<?xml version="1.0" standalone="no"?>
<!DOCTYPE svg PUBLIC "-//W3C//DTD SVG 20010904//EN"
 "http://www.w3.org/TR/2001/REC-SVG-20010904/DTD/svg10.dtd">
<svg version="1.0" xmlns="http://www.w3.org/2000/svg"
 width="1366.000000pt" height="688.000000pt" viewBox="0 0 1366.000000 688.000000"
 preserveAspectRatio="xMidYMid meet">

<g transform="translate(0.000000,688.000000) scale(0.100000,-0.100000)"
fill="#000000" stroke="none">
<path d="M3412 6873 c1880 -2 4956 -2 6835 0 1880 1 342 2 -3417 2 -3759 0
-5297 -1 -3418 -2z"/>
<path d="M925 6460 c-53 -18 -85 -55 -85 -99 0 -18 6 -21 40 -21 28 0 40 4 40
14 0 28 30 46 76 46 56 0 89 -28 79 -68 -9 -37 -9 -37 -104 -71 -104 -37 -122
-54 -129 -120 -6 -71 12 -109 62 -132 82 -37 214 -11 236 46 14 37 13 318 -2
349 -6 14 -22 33 -36 42 -30 20 -134 28 -177 14z m145 -310 c0 -58 -3 -71 -19
-80 -30 -15 -97 -12 -115 6 -19 19 -21 64 -3 87 10 14 102 54 130 56 4 1 7
-30 7 -69z"/>
<path d="M12240 5136 c0 -9 7 -16 16 -16 17 0 14 22 -4 28 -7 2 -12 -3 -12
-12z"/>
<path d="M5447 5053 c-12 -11 -8 -23 8 -23 8 0 15 7 15 15 0 16 -12 20 -23 8z"/>
<path d="M2460 4935 c0 -70 4 -115 10 -115 6 0 10 45 10 115 0 70 -4 115 -10
115 -6 0 -10 -45 -10 -115z"/>
<path d="M3860 4935 c0 -70 4 -115 10 -115 6 0 10 45 10 115 0 70 -4 115 -10
115 -6 0 -10 -45 -10 -115z"/>
<path d="M4030 5011 c0 -11 -6 -22 -12 -25 -10 -5 -10 -7 0 -12 7 -3 12 -26
12 -60 0 -64 13 -94 40 -94 26 0 25 12 0 28 -16 10 -20 23 -20 67 0 48 2 55
20 55 11 0 20 5 20 10 0 6 -7 10 -16 10 -9 0 -18 9 -21 20 -7 25 -23 26 -23 1z"/>
<path d="M4500 5011 c0 -11 -6 -22 -12 -25 -10 -5 -10 -7 0 -12 7 -3 12 -26
12 -60 0 -64 13 -94 40 -94 26 0 25 12 0 28 -16 10 -20 23 -20 67 0 48 2 55
20 55 11 0 20 5 20 10 0 6 -7 10 -16 10 -9 0 -18 9 -21 20 -7 25 -23 26 -23 1z"/>
<path d="M12070 5000 c0 -21 -49 -60 -76 -60 -23 0 -26 3 -22 29 l4 29 -44
-39 c-39 -34 -119 -69 -157 -69 -20 0 -66 -41 -75 -66 -6 -16 -18 -24 -32 -24
-13 0 -42 -9 -66 -20 -34 -15 -47 -29 -63 -65 -24 -53 -20 -87 17 -140 29 -43
29 -45 7 -45 -15 0 -15 -2 -4 -9 10 -7 18 -5 26 5 8 12 16 12 42 4 113 -40
216 107 145 207 -12 17 -22 33 -22 36 0 3 21 10 48 16 40 9 52 7 87 -10 58
-30 72 -45 84 -93 10 -42 12 -43 48 -42 31 1 39 -3 41 -20 4 -26 -32 -72 -60
-76 -26 -4 -37 -33 -27 -73 l7 -30 1 36 c1 32 6 38 42 54 22 10 59 36 81 58
38 37 40 42 35 84 -3 32 1 58 14 87 25 54 24 64 -5 59 -22 -5 -23 -3 -19 49 3
41 2 49 -7 36 -6 -10 -19 -18 -30 -18 -16 0 -18 6 -13 60 3 33 3 60 -1 60 -3
0 -6 -5 -6 -10z m-380 -243 c0 -7 -6 -19 -12 -26 -10 -11 -10 -13 0 -7 6 4 12
2 12 -3 0 -6 -4 -11 -8 -11 -5 0 -17 -7 -28 -16 -18 -14 -18 -15 4 -4 19 9 22
8 22 -8 0 -10 -4 -22 -8 -27 -5 -6 -5 -23 -1 -40 7 -30 7 -29 8 8 1 38 16 50
24 20 3 -11 5 -7 6 10 1 17 -3 26 -9 22 -5 -3 -10 3 -10 15 0 12 9 24 23 30
12 5 15 9 8 9 -12 1 -13 3 -2 14 10 10 16 7 31 -13 43 -56 23 -136 -44 -172
-14 -7 -21 -6 -27 3 -6 10 -9 11 -9 2 0 -16 -31 -17 -65 -1 -71 32 -71 162 -1
197 31 15 86 14 86 -2z"/>
<path d="M11604 4664 c-18 -14 -18 -15 4 -4 12 6 22 13 22 15 0 8 -5 6 -26
-11z"/>
<path d="M11742 4630 c0 -14 2 -19 5 -12 2 6 2 18 0 25 -3 6 -5 1 -5 -13z"/>
<path d="M11599 4603 c-13 -16 -12 -17 4 -4 16 13 21 21 13 21 -2 0 -10 -8
-17 -17z"/>
<path d="M2972 4984 c-12 -8 -22 -10 -22 -5 0 6 -4 11 -10 11 -6 0 -10 -35
-10 -85 0 -50 4 -85 10 -85 6 0 10 28 10 63 0 65 11 87 42 87 10 0 18 7 18 15
0 19 -10 19 -38 -1z"/>
<path d="M2540 4905 c0 -50 4 -85 10 -85 6 0 10 26 10 58 0 71 15 95 55 90 30
-3 30 -3 33 -75 2 -56 6 -73 17 -73 19 0 20 104 2 140 -14 28 -68 40 -93 19
-10 -8 -14 -8 -14 0 0 6 -4 11 -10 11 -6 0 -10 -35 -10 -85z"/>
<path d="M2747 4973 c-60 -67 -2 -177 74 -139 28 14 29 14 29 -9 0 -48 -46
-69 -87 -40 -13 9 -24 11 -28 6 -3 -6 6 -18 20 -27 31 -20 90 -12 105 16 13
25 13 210 0 210 -5 0 -10 -5 -10 -12 0 -9 -3 -9 -12 0 -18 18 -73 15 -91 -5z
m97 -35 c13 -37 -2 -78 -32 -89 -18 -7 -28 -4 -48 16 -28 28 -30 51 -8 83 23
34 75 27 88 -10z"/>
<path d="M3064 4982 c-37 -24 -44 -96 -13 -136 23 -30 72 -35 105 -12 24 18
13 31 -14 17 -30 -16 -57 -13 -75 7 -31 34 -21 42 48 42 36 0 65 4 65 9 0 19
-21 66 -33 73 -15 10 -69 10 -83 0z m84 -39 c3 -21 0 -23 -47 -23 -55 0 -56 1
-40 31 16 30 83 23 87 -8z"/>
<path d="M3236 4974 c-31 -31 -8 -66 52 -79 27 -5 33 -11 30 -28 -4 -26 -50
-36 -74 -16 -8 6 -18 9 -22 5 -12 -13 30 -36 65 -36 23 0 37 7 48 24 22 33 6
62 -37 71 -41 9 -58 22 -52 40 8 20 40 24 64 8 25 -18 38 -10 20 12 -16 20
-74 19 -94 -1z"/>
<path d="M3412 4977 c-6 -7 -16 -26 -22 -41 -13 -36 3 -91 30 -106 30 -16 76
-12 95 10 20 22 6 27 -25 8 -27 -17 -74 1 -78 30 -3 21 0 22 57 22 57 0 61 2
61 23 0 41 -27 67 -69 67 -21 0 -43 -6 -49 -13z m86 -19 c26 -26 13 -38 -38
-38 -34 0 -50 4 -50 13 0 21 22 37 50 37 14 0 31 -5 38 -12z"/>
<path d="M3694 4982 c-37 -24 -44 -96 -13 -136 23 -30 72 -35 105 -12 24 18
13 31 -14 17 -30 -16 -57 -13 -75 7 -31 34 -21 42 48 42 36 0 65 4 65 9 0 19
-21 66 -33 73 -15 10 -69 10 -83 0z m84 -39 c3 -21 0 -23 -47 -23 -55 0 -56 1
-40 31 16 30 83 23 87 -8z"/>
<path d="M4150 4970 c-29 -29 -28 -99 3 -128 27 -25 74 -29 103 -8 24 18 10
34 -16 18 -28 -17 -54 -15 -73 6 -31 34 -21 42 48 42 l65 0 -6 28 c-4 15 -14
35 -22 45 -21 24 -77 22 -102 -3z m88 -12 c26 -26 13 -38 -38 -38 -54 0 -55 1
-40 31 12 22 59 26 78 7z"/>
<path d="M4335 4949 l26 -40 -26 -45 c-31 -52 -16 -59 18 -8 l25 35 22 -35
c12 -20 26 -36 31 -36 14 0 11 7 -17 50 l-26 39 19 28 c31 45 35 53 23 53 -6
0 -19 -13 -28 -30 -21 -37 -29 -37 -50 0 -9 16 -23 30 -30 30 -8 0 -3 -15 13
-41z"/>
<path d="M4620 4970 c-29 -29 -28 -99 3 -128 33 -31 80 -29 106 4 31 40 24
112 -13 136 -22 15 -76 8 -96 -12z m94 -22 c44 -63 -21 -141 -76 -91 -20 18
-24 64 -8 94 15 27 64 25 84 -3z"/>
<path d="M4903 4983 c-14 -5 -18 -33 -5 -33 4 0 13 5 19 11 6 6 23 9 39 7 21
-2 29 -8 29 -23 0 -15 -9 -21 -43 -27 -23 -4 -47 -10 -52 -13 -14 -9 -12 -59
2 -73 15 -15 53 -16 79 -2 13 7 19 7 19 0 0 -5 5 -10 10 -10 15 0 13 143 -2
158 -12 12 -71 15 -95 5z m77 -129 c-16 -19 -69 -18 -76 1 -9 23 13 43 49 47
24 2 33 -1 35 -15 2 -10 -2 -25 -8 -33z"/>
<path d="M5076 4968 c-23 -33 -21 -103 4 -128 22 -22 69 -27 88 -8 9 9 12 3
12 -30 0 -31 4 -42 15 -42 12 0 15 19 15 115 0 101 -9 141 -23 103 -4 -10 -7
-10 -18 0 -22 20 -76 15 -93 -10z m92 -10 c7 -7 12 -30 12 -53 0 -45 -13 -65
-44 -65 -46 0 -72 62 -46 111 12 22 59 26 78 7z"/>
<path d="M5260 4922 c0 -54 4 -72 18 -85 23 -21 56 -22 73 -1 11 13 9 14 -13
9 -40 -10 -58 16 -58 86 0 33 -4 59 -10 59 -6 0 -10 -29 -10 -68z"/>
<path d="M5368 4923 c-4 -75 0 -103 13 -103 5 0 9 38 9 85 0 101 -17 114 -22
18z"/>
<path d="M5450 4905 c0 -50 4 -85 10 -85 6 0 10 35 10 85 0 50 -4 85 -10 85
-6 0 -10 -35 -10 -85z"/>
<path d="M11252 4930 c0 -14 2 -19 5 -12 2 6 2 18 0 25 -3 6 -5 1 -5 -13z"/>
<path d="M11299 4893 l-24 -28 28 24 c15 14 27 26 27 28 0 8 -8 1 -31 -24z"/>
<path d="M10504 4879 c-3 -6 0 -17 7 -25 18 -17 44 -2 36 20 -7 18 -33 21 -43
5z"/>
<path d="M11368 4843 c6 -2 18 -2 25 0 6 3 1 5 -13 5 -14 0 -19 -2 -12 -5z"/>
<path d="M8165 4718 l-40 -43 43 40 c23 21 42 40 42 42 0 8 -9 0 -45 -39z"/>
<path d="M11011 4746 c-10 -12 -8 -13 8 -9 12 3 18 9 15 14 -7 12 -10 11 -23
-5z"/>
<path d="M11305 4750 c-3 -5 0 -10 9 -10 8 0 17 -6 19 -12 4 -8 6 -9 6 -2 1
18 -26 37 -34 24z"/>
<path d="M11841 4747 c2 -1 15 -11 29 -22 l25 -20 -19 23 c-11 12 -24 22 -29
22 -6 0 -8 -1 -6 -3z"/>
<path d="M11073 4725 c7 -7 14 -9 15 -4 5 12 159 12 164 0 2 -5 9 -3 16 5 12
13 -1 15 -97 13 -89 -1 -108 -4 -98 -14z"/>
<path d="M8184 4698 l-19 -23 23 19 c12 11 22 21 22 23 0 8 -8 2 -26 -19z"/>
<path d="M11128 4683 c23 -2 59 -2 80 0 20 2 1 4 -43 4 -44 0 -61 -2 -37 -4z"/>
<path d="M11010 4660 c-8 -5 -10 -10 -5 -10 6 0 17 5 25 10 8 5 11 10 5 10 -5
0 -17 -5 -25 -10z"/>
<path d="M11324 4656 c10 -8 23 -17 29 -19 6 -2 6 -12 -2 -27 -11 -24 -11 -24
3 -6 17 22 22 61 6 51 -5 -3 -20 -1 -32 5 -22 10 -22 10 -4 -4z"/>
<path d="M10960 4636 c0 -8 4 -17 9 -20 5 -4 7 3 4 14 -6 23 -13 26 -13 6z"/>
<path d="M11231 4624 c0 -11 3 -14 6 -6 3 7 2 16 -1 19 -3 4 -6 -2 -5 -13z"/>
<path d="M10980 4596 c0 -2 8 -10 18 -17 15 -13 16 -12 3 4 -13 16 -21 21 -21
13z"/>
<path d="M11316 4553 c-6 -14 -5 -15 5 -6 7 7 10 15 7 18 -3 3 -9 -2 -12 -12z"/>
<path d="M11496 4560 c16 -20 10 -65 -10 -85 -18 -19 -49 -16 -57 5 -4 9 -8 3
-11 -17 -4 -28 -2 -31 10 -20 8 6 23 11 32 9 10 -2 27 9 38 23 13 17 23 22 27
14 10 -14 -86 -111 -103 -104 -7 2 -11 1 -7 -4 3 -5 -1 -12 -7 -14 -9 -4 -8
-6 3 -6 8 -1 20 4 26 10 15 15 33 3 34 -24 1 -18 2 -18 6 -4 3 10 -1 25 -8 33
-10 12 -5 22 31 59 41 42 43 45 27 63 -22 24 -21 32 1 33 10 0 12 3 4 6 -6 2
-9 10 -5 16 3 7 3 9 -2 5 -4 -4 -15 -2 -24 5 -14 10 -14 10 -5 -3z"/>
<path d="M11010 4556 c0 -2 8 -10 18 -17 15 -13 16 -12 3 4 -13 16 -21 21 -21
13z"/>
<path d="M11211 4534 c0 -11 3 -14 6 -6 3 7 2 16 -1 19 -3 4 -6 -2 -5 -13z"/>
<path d="M11453 4538 c-24 -32 -26 -40 -5 -27 12 7 18 17 15 23 -4 5 1 7 11 3
10 -4 15 -3 11 3 -8 14 -21 13 -32 -2z"/>
<path d="M11131 4524 c0 -11 3 -14 6 -6 3 7 2 16 -1 19 -3 4 -6 -2 -5 -13z"/>
<path d="M11756 4522 c-3 -5 1 -9 9 -9 8 0 12 4 9 9 -3 4 -7 8 -9 8 -2 0 -6
-4 -9 -8z"/>
<path d="M11040 4516 c0 -2 8 -10 18 -17 15 -13 16 -12 3 4 -13 16 -21 21 -21
13z"/>
<path d="M11681 4500 c0 -8 4 -22 9 -30 12 -18 12 -2 0 25 -6 13 -9 15 -9 5z"/>
<path d="M11141 4484 c0 -11 3 -14 6 -6 3 7 2 16 -1 19 -3 4 -6 -2 -5 -13z"/>
<path d="M11202 4480 c0 -14 2 -19 5 -12 2 6 2 18 0 25 -3 6 -5 1 -5 -13z"/>
<path d="M11266 4473 c-6 -14 -5 -15 5 -6 7 7 10 15 7 18 -3 3 -9 -2 -12 -12z"/>
<path d="M11572 4460 c0 -19 2 -27 5 -17 2 9 2 25 0 35 -3 9 -5 1 -5 -18z"/>
<path d="M11750 4481 c0 -10 19 -25 25 -20 1 2 -3 10 -11 17 -8 7 -14 8 -14 3z"/>
<path d="M11937 4469 c-8 -11 -28 -30 -44 -42 -16 -12 -28 -27 -26 -33 2 -6
-26 -25 -61 -43 -39 -19 -74 -45 -88 -64 -15 -22 -17 -28 -5 -18 16 12 17 8
17 -66 0 -75 10 -123 56 -283 8 -30 16 -83 17 -117 l2 -62 42 -7 c52 -8 103
19 193 103 l61 56 -2 176 c0 97 2 184 6 193 10 26 43 32 71 13 25 -16 25 -16
15 3 -24 44 -133 112 -180 112 -11 0 -22 8 -25 18 -2 9 -4 5 -3 -10 2 -30 -37
-78 -64 -78 -11 0 -22 13 -30 37 -11 34 -10 38 13 57 26 21 65 76 55 76 -3 0
-12 -9 -20 -21z"/>
<path d="M11070 4476 c0 -2 8 -10 18 -17 15 -13 16 -12 3 4 -13 16 -21 21 -21
13z"/>
<path d="M11151 4444 c0 -11 3 -14 6 -6 3 7 2 16 -1 19 -3 4 -6 -2 -5 -13z"/>
<path d="M11100 4436 c0 -2 8 -10 18 -17 15 -13 16 -12 3 4 -13 16 -21 21 -21
13z"/>
<path d="M11191 4424 c0 -11 3 -14 6 -6 3 7 2 16 -1 19 -3 4 -6 -2 -5 -13z"/>
<path d="M11161 4404 c0 -11 3 -14 6 -6 3 7 2 16 -1 19 -3 4 -6 -2 -5 -13z"/>
<path d="M11556 4405 c-3 -9 -5 -35 -5 -58 2 -40 2 -39 9 13 7 59 6 71 -4 45z"/>
<path d="M11150 4373 c28 -36 37 -37 58 -2 13 23 13 23 -2 5 -9 -11 -16 -14
-16 -7 0 7 -5 9 -11 6 -5 -4 -20 1 -32 12 -18 15 -18 13 3 -14z"/>
<path d="M11757 4389 c7 -7 15 -10 18 -7 3 3 -2 9 -12 12 -14 6 -15 5 -6 -5z"/>
<path d="M11798 4383 c7 -3 16 -2 19 1 4 3 -2 6 -13 5 -11 0 -14 -3 -6 -6z"/>
<path d="M12447 4354 c-14 -15 -6 -34 14 -34 14 0 19 5 17 17 -3 18 -20 27
-31 17z"/>
<path d="M11463 4270 c0 -25 2 -35 4 -22 2 12 2 32 0 45 -2 12 -4 2 -4 -23z"/>
<path d="M11562 4245 c0 -16 2 -22 5 -12 2 9 2 23 0 30 -3 6 -5 -1 -5 -18z"/>
<path d="M11680 4230 c-6 -11 -8 -20 -6 -20 3 0 10 9 16 20 6 11 8 20 6 20 -3
0 -10 -9 -16 -20z"/>
<path d="M12212 4210 c0 -14 2 -19 5 -12 2 6 2 18 0 25 -3 6 -5 1 -5 -13z"/>
<path d="M11572 4126 c-1 -33 -1 -57 1 -55 1 2 13 17 27 34 21 25 21 27 3 11
l-22 -18 -4 44 c-3 37 -4 35 -5 -16z"/>
<path d="M11629 4153 c-13 -16 -12 -17 4 -4 16 13 21 21 13 21 -2 0 -10 -8
-17 -17z"/>
<path d="M12224 4025 c0 -77 2 -107 3 -67 2 40 2 103 0 140 -2 37 -3 4 -3 -73z"/>
<path d="M10524 4136 c-10 -26 4 -48 28 -44 17 2 23 10 23 28 0 18 -6 26 -23
28 -13 2 -25 -3 -28 -12z"/>
<path d="M11463 4070 c0 -25 2 -35 4 -22 2 12 2 32 0 45 -2 12 -4 2 -4 -23z"/>
<path d="M11685 4018 l-40 -43 43 40 c23 21 42 40 42 42 0 8 -9 0 -45 -39z"/>
<path d="M11356 4011 c-4 -5 -2 -12 3 -15 5 -4 12 -2 15 3 4 5 2 12 -3 15 -5
4 -12 2 -15 -3z"/>
<path d="M11471 4009 c-1 -9 7 -25 17 -36 9 -10 14 -14 10 -8 -4 6 -12 22 -17
36 -6 15 -10 18 -10 8z"/>
<path d="M11595 3959 c-22 -10 -34 -19 -27 -19 15 0 72 28 72 35 0 6 3 7 -45
-16z"/>
<path d="M12660 3896 c0 -8 4 -17 9 -20 11 -7 33 18 24 27 -12 12 -33 7 -33
-7z"/>
<path d="M12211 3854 c0 -11 3 -14 6 -6 3 7 2 16 -1 19 -3 4 -6 -2 -5 -13z"/>
<path d="M12191 3811 c-15 -27 -102 -80 -192 -116 -43 -18 -76 -35 -72 -39 20
-19 168 1 233 32 33 16 35 20 40 80 3 34 4 62 3 62 -1 0 -7 -8 -12 -19z"/>
<path d="M11755 3750 c-8 -13 3 -30 18 -30 7 0 6 4 -3 10 -13 9 -13 11 0 20 9
6 10 10 3 10 -6 0 -15 -4 -18 -10z"/>
<path d="M11778 3661 c-19 -18 -23 -28 -13 -28 8 0 12 4 9 9 -3 4 -1 8 5 8 6
0 15 9 21 20 14 26 10 25 -22 -9z"/>
<path d="M11484 3669 c-8 -14 11 -33 25 -25 6 4 11 14 11 22 0 16 -26 19 -36
3z"/>
<path d="M11840 3604 c-30 -30 -48 -54 -40 -52 9 2 14 -3 12 -11 -3 -12 0 -12
12 -2 9 7 15 16 14 19 -4 18 26 60 39 55 11 -5 11 -9 -4 -27 l-18 -21 23 20
c21 17 22 20 7 31 -15 11 -14 14 7 28 12 9 18 16 12 16 -5 0 -34 -25 -64 -56z
m-9 -27 c-6 -8 -7 -18 -3 -22 4 -5 1 -5 -6 -1 -10 6 -10 11 -1 22 6 8 14 14
16 14 3 0 0 -6 -6 -13z"/>
<path d="M11689 3587 c-25 -23 -38 -36 -29 -29 13 9 24 10 43 3 17 -7 28 -7
32 -1 4 6 -6 10 -20 10 -22 0 -24 2 -13 14 7 8 18 11 23 8 6 -3 7 -2 3 3 -4 4
-3 14 3 22 21 25 4 13 -42 -30z"/>
<path d="M12192 3605 c0 -16 2 -22 5 -12 2 9 2 23 0 30 -3 6 -5 -1 -5 -18z"/>
<path d="M11771 3590 c-14 -12 -18 -20 -10 -20 8 0 20 9 27 20 15 25 13 25
-17 0z"/>
<path d="M12182 3540 c0 -14 2 -19 5 -12 2 6 2 18 0 25 -3 6 -5 1 -5 -13z"/>
<path d="M10350 3540 c0 -5 7 -10 15 -10 8 0 15 5 15 10 0 6 -7 10 -15 10 -8
0 -15 -4 -15 -10z"/>
<path d="M11748 3543 c6 -2 18 -2 25 0 6 3 1 5 -13 5 -14 0 -19 -2 -12 -5z"/>
<path d="M11589 3503 l-34 -38 38 34 c34 33 42 41 34 41 -2 0 -19 -17 -38 -37z"/>
<path d="M12223 3501 c-19 -33 -43 -48 -52 -32 -3 5 -19 -10 -35 -32 -29 -42
-29 -42 -3 -18 l26 24 31 -33 c16 -17 30 -42 31 -54 0 -14 2 -16 6 -6 13 35
47 55 98 57 81 3 185 49 169 74 -3 5 -22 9 -42 9 -33 0 -131 19 -189 36 -18 5
-26 0 -40 -25z"/>
<path d="M11725 3458 l-60 -63 63 60 c34 33 62 61 62 62 0 8 -10 -1 -65 -59z"/>
<path d="M11509 3433 l-34 -38 38 34 c34 33 42 41 34 41 -2 0 -19 -17 -38 -37z"/>
<path d="M12025 3339 c-100 -86 -114 -104 -23 -30 69 56 107 92 97 90 -2 0
-35 -27 -74 -60z"/>
<path d="M12199 3313 c-13 -16 -12 -17 4 -4 9 7 17 15 17 17 0 8 -8 3 -21 -13z"/>
<path d="M11421 3294 c0 -11 3 -14 6 -6 3 7 2 16 -1 19 -3 4 -6 -2 -5 -13z"/>
<path d="M12154 3278 l-19 -23 23 19 c21 18 27 26 19 26 -2 0 -12 -10 -23 -22z"/>
<path d="M11412 3240 c0 -14 2 -19 5 -12 2 6 2 18 0 25 -3 6 -5 1 -5 -13z"/>
<path d="M11591 3244 c0 -11 3 -14 6 -6 3 7 2 16 -1 19 -3 4 -6 -2 -5 -13z"/>
<path d="M12044 3204 c-18 -14 -18 -15 4 -4 12 6 22 13 22 15 0 8 -5 6 -26
-11z"/>
<path d="M11994 3174 c-18 -14 -18 -15 4 -4 12 6 22 13 22 15 0 8 -5 6 -26
-11z"/>
<path d="M11430 3156 c0 -2 8 -10 18 -17 15 -13 16 -12 3 4 -13 16 -21 21 -21
13z"/>
<path d="M11944 3144 c-18 -14 -18 -15 4 -4 12 6 22 13 22 15 0 8 -5 6 -26
-11z"/>
<path d="M11590 3136 c0 -8 4 -17 9 -20 5 -4 7 3 4 14 -6 23 -13 26 -13 6z"/>
<path d="M11508 3113 c7 -3 16 -2 19 1 4 3 -2 6 -13 5 -11 0 -14 -3 -6 -6z"/>
<path d="M11860 3100 c-19 -11 -31 -19 -27 -20 11 0 67 29 67 35 0 7 -1 7 -40
-15z"/>
<path d="M11629 3081 c13 -12 28 -21 34 -21 12 0 11 0 -28 24 l-30 17 24 -20z"/>
<path d="M11698 3053 c12 -2 32 -2 45 0 12 2 2 4 -23 4 -25 0 -35 -2 -22 -4z"/>
<path d="M10482 2748 c6 -18 28 -21 28 -4 0 9 -7 16 -16 16 -9 0 -14 -5 -12
-12z"/>
<path d="M11990 2745 c0 -8 7 -15 15 -15 8 0 15 7 15 15 0 8 -7 15 -15 15 -8
0 -15 -7 -15 -15z"/>
<path d="M12272 2748 c-7 -7 -12 -17 -12 -24 0 -7 -6 -15 -12 -18 -10 -5 -10
-7 0 -12 7 -3 12 -26 12 -60 0 -41 4 -54 15 -54 12 0 15 13 15 55 0 42 3 55
15 55 8 0 15 5 15 10 0 6 -7 10 -15 10 -8 0 -15 5 -15 10 0 6 7 13 15 16 8 4
15 10 15 15 0 13 -34 11 -48 -3z"/>
<path d="M10310 2665 c0 -68 3 -85 15 -85 10 0 15 15 17 56 l3 57 39 -57 c55
-80 66 -75 66 29 0 69 -3 85 -15 85 -11 0 -15 -12 -15 -50 0 -27 -3 -50 -7
-50 -5 0 -23 23 -42 50 -50 73 -61 67 -61 -35z"/>
<path d="M10480 2645 c0 -51 3 -65 15 -65 12 0 15 14 15 65 0 51 -3 65 -15 65
-12 0 -15 -14 -15 -65z"/>
<path d="M10550 2645 c0 -51 3 -65 15 -65 11 0 15 12 15 50 0 47 2 50 25 50
23 0 25 -3 25 -50 0 -38 4 -50 15 -50 13 0 15 11 13 56 -3 66 -23 88 -58 66
-12 -7 -20 -8 -20 -2 0 5 -7 10 -15 10 -12 0 -15 -14 -15 -65z"/>
<path d="M10704 2685 c-32 -49 9 -120 56 -95 17 9 20 8 20 -10 0 -25 -25 -37
-45 -20 -19 16 -40 3 -24 -16 15 -18 60 -18 84 0 16 11 20 30 23 90 4 72 3 76
-17 76 -12 0 -21 -5 -21 -12 0 -9 -3 -9 -12 0 -19 19 -46 14 -64 -13z m74 -39
c-2 -21 -9 -32 -22 -34 -33 -7 -47 35 -21 62 24 23 47 9 43 -28z"/>
<path d="M10850 2664 c0 -73 32 -107 69 -71 11 10 14 10 18 0 3 -7 11 -13 19
-13 11 0 14 16 14 65 0 58 -2 65 -20 65 -17 0 -20 -7 -20 -51 0 -47 -2 -50
-22 -47 -20 3 -23 10 -26 51 -2 33 -7 47 -18 47 -10 0 -14 -13 -14 -46z"/>
<path d="M11000 2645 c0 -51 3 -65 15 -65 11 0 15 12 15 50 0 47 2 50 25 50
23 0 25 -3 25 -50 0 -38 4 -50 15 -50 13 0 15 11 13 56 -3 66 -23 88 -58 66
-12 -7 -20 -8 -20 -2 0 5 -7 10 -15 10 -12 0 -15 -14 -15 -65z"/>
<path d="M11200 2645 c0 -50 3 -65 14 -65 11 0 16 14 18 48 3 40 6 47 26 50
20 3 22 0 22 -47 0 -39 4 -51 15 -51 11 0 15 12 15 51 0 47 2 50 23 47 19 -3
22 -10 25 -50 2 -34 7 -48 18 -48 17 0 20 80 4 111 -12 21 -40 25 -57 8 -8 -8
-17 -7 -32 3 -17 10 -25 10 -41 0 -12 -7 -20 -8 -20 -2 0 5 -7 10 -15 10 -12
0 -15 -14 -15 -65z"/>
<path d="M11437 2692 c-22 -25 -21 -75 1 -95 23 -21 66 -22 82 -2 17 21 7 29
-18 16 -24 -13 -52 -5 -52 15 0 10 13 14 46 14 42 0 45 1 39 23 -14 46 -68 62
-98 29z m63 -17 c11 -13 8 -15 -19 -15 -31 0 -42 14 -18 23 20 9 24 8 37 -8z"/>
<path d="M11570 2645 c0 -51 3 -65 15 -65 11 0 15 12 15 50 0 47 2 50 25 50
23 0 25 -3 25 -50 0 -38 4 -50 15 -50 13 0 15 11 13 56 -4 67 -23 88 -60 65
-16 -10 -23 -10 -26 -2 -10 31 -22 4 -22 -54z"/>
<path d="M11726 2694 c-9 -8 -16 -19 -16 -23 0 -13 23 -29 53 -36 15 -4 27
-11 27 -15 0 -18 -23 -22 -46 -9 -30 16 -46 2 -20 -17 24 -17 68 -18 84 -2 16
16 15 47 0 53 -67 23 -71 26 -59 38 9 9 16 9 32 -1 25 -16 45 -6 28 14 -15 19
-64 18 -83 -2z"/>
<path d="M11861 2696 c-15 -18 5 -34 22 -17 16 16 37 14 37 -3 0 -8 -13 -17
-30 -21 -36 -8 -52 -32 -39 -57 11 -21 49 -24 67 -6 9 9 12 9 12 0 0 -7 7 -12
15 -12 21 0 21 93 -1 114 -19 20 -68 21 -83 2z m69 -65 c0 -16 -30 -33 -46
-27 -13 5 -14 9 -4 21 13 16 50 21 50 6z"/>
<path d="M11990 2635 c0 -43 -4 -75 -10 -75 -5 0 -10 -7 -10 -15 0 -18 5 -18
31 -5 16 9 19 22 19 90 0 64 -3 80 -15 80 -12 0 -15 -15 -15 -75z"/>
<path d="M12066 2688 c-33 -46 -7 -108 44 -108 28 0 67 27 55 38 -3 3 -16 -1
-30 -8 -20 -11 -27 -11 -40 0 -26 21 -17 30 30 30 49 0 56 10 29 48 -10 14
-26 22 -44 22 -18 0 -34 -8 -44 -22z m58 -4 c27 -10 18 -24 -15 -24 -27 0 -30
2 -19 15 14 17 13 17 34 9z"/>
<path d="M12352 2654 c3 -66 23 -88 58 -66 12 7 20 8 20 2 0 -5 7 -10 15 -10
12 0 15 14 15 65 0 50 -3 65 -14 65 -11 0 -16 -14 -18 -47 -3 -41 -6 -48 -25
-51 -21 -3 -23 0 -23 47 0 39 -4 51 -15 51 -13 0 -15 -11 -13 -56z"/>
<path d="M12506 2688 c-33 -46 -7 -108 44 -108 28 0 67 27 55 38 -3 3 -16 -1
-30 -8 -20 -11 -27 -11 -40 0 -26 21 -17 30 30 30 49 0 56 10 29 48 -10 14
-26 22 -44 22 -18 0 -34 -8 -44 -22z m58 -4 c27 -10 18 -24 -15 -24 -27 0 -30
2 -19 15 14 17 13 17 34 9z"/>
<path d="M11940 2358 c0 -25 -3 -29 -12 -20 -7 7 -21 12 -33 12 -32 0 -45 -19
-45 -65 0 -46 13 -65 45 -65 12 0 26 5 33 12 9 9 12 9 12 0 0 -7 7 -12 15 -12
12 0 15 16 15 85 0 69 -3 85 -15 85 -10 0 -15 -10 -15 -32z m0 -68 c0 -29 -29
-53 -46 -39 -17 14 -18 66 -1 72 19 7 47 -12 47 -33z"/>
<path d="M11529 2363 c-3 -40 4 -109 12 -125 12 -22 49 -24 49 -3 0 8 -4 15
-10 15 -15 0 -12 77 3 84 10 5 10 7 0 12 -7 3 -13 12 -13 20 0 21 -40 18 -41
-3z"/>
<path d="M10806 2328 c-33 -46 -7 -108 44 -108 28 0 67 27 55 38 -3 3 -16 -1
-30 -8 -20 -11 -27 -11 -40 0 -26 21 -17 30 30 30 49 0 56 10 29 48 -10 14
-26 22 -44 22 -18 0 -34 -8 -44 -22z m58 -4 c27 -10 18 -24 -15 -24 -27 0 -30
2 -19 15 14 17 13 17 34 9z"/>
<path d="M10940 2285 c0 -51 3 -65 15 -65 11 0 15 12 15 50 0 47 2 50 25 50
23 0 25 -3 25 -50 0 -38 4 -50 15 -50 13 0 15 11 13 56 -3 66 -23 88 -58 66
-12 -7 -20 -8 -20 -2 0 5 -7 10 -15 10 -12 0 -15 -14 -15 -65z"/>
<path d="M11100 2330 c-39 -39 -11 -110 43 -110 22 0 57 27 57 43 0 12 -21 7
-36 -8 -17 -17 -41 -10 -49 15 -12 39 23 71 49 45 16 -17 36 -20 36 -6 0 18
-32 41 -56 41 -13 0 -33 -9 -44 -20z"/>
<path d="M11240 2330 c-51 -51 16 -141 77 -102 32 20 32 94 0 114 -22 14 -57
8 -77 -12z m54 -6 c21 -8 22 -70 1 -78 -15 -5 -45 18 -45 35 0 12 19 49 25 49
2 0 10 -3 19 -6z"/>
<path d="M11380 2285 c0 -51 3 -65 15 -65 11 0 15 12 15 50 0 47 2 50 25 50
23 0 25 -3 25 -50 0 -38 4 -50 15 -50 13 0 15 11 13 56 -4 67 -23 88 -60 65
-16 -10 -23 -10 -26 -2 -10 31 -22 4 -22 -54z"/>
<path d="M11620 2285 c0 -51 3 -65 15 -65 11 0 15 12 15 46 0 37 4 47 20 51
11 3 20 12 20 19 0 17 -12 18 -28 2 -9 -9 -12 -9 -12 0 0 7 -7 12 -15 12 -12
0 -15 -14 -15 -65z"/>
<path d="M11733 2343 c-14 -5 -18 -33 -5 -33 4 0 13 5 19 11 12 12 43 6 43 -9
0 -5 -17 -13 -37 -18 -33 -8 -38 -13 -38 -39 0 -24 5 -31 23 -33 13 -2 30 2
38 8 10 9 14 9 14 1 0 -6 7 -11 15 -11 21 0 21 93 -1 114 -15 16 -46 20 -71 9z
m55 -75 c-6 -16 -36 -34 -44 -26 -3 4 -4 14 -1 23 7 17 51 21 45 3z"/>
<path d="M12017 2332 c-22 -25 -21 -75 1 -95 40 -36 102 -7 102 48 0 56 -67
86 -103 47z m61 -14 c30 -30 -1 -94 -33 -68 -25 20 -13 80 15 80 3 0 11 -5 18
-12z"/>
<path d="M10093 2045 c0 -33 2 -45 4 -27 2 18 2 45 0 60 -2 15 -4 0 -4 -33z"/>
<path d="M10743 2045 c0 -33 2 -45 4 -27 2 18 2 45 0 60 -2 15 -4 0 -4 -33z"/>
<path d="M11583 2050 c0 -30 2 -43 4 -27 2 15 2 39 0 55 -2 15 -4 2 -4 -28z"/>
<path d="M10818 2077 c-7 -22 7 -80 20 -83 7 -1 8 0 2 3 -12 6 -13 60 -1 65 5
2 3 8 -4 15 -10 9 -14 9 -17 0z"/>
<path d="M11038 2077 c-7 -22 7 -80 20 -83 7 -1 8 0 2 3 -12 6 -13 60 -1 65 5
2 3 8 -4 15 -10 9 -14 9 -17 0z"/>
<path d="M12529 2079 c-2 -29 3 -74 9 -81 4 -4 6 13 5 38 -1 43 -12 74 -14 43z"/>
<path d="M10158 2063 c7 -3 16 -2 19 1 4 3 -2 6 -13 5 -11 0 -14 -3 -6 -6z"/>
<path d="M10240 2061 c20 -5 25 -14 26 -39 2 -50 14 -51 14 -1 0 44 -1 45 -32
46 -29 1 -30 1 -8 -6z"/>
<path d="M10301 2025 c2 -33 3 -35 6 -10 2 17 11 35 20 42 13 10 13 12 -6 10
-18 -1 -21 -7 -20 -42z"/>
<path d="M10366 2062 c-3 -5 6 -7 19 -4 14 2 25 0 25 -6 0 -6 -12 -13 -27 -15
-26 -4 -25 -4 5 -6 27 -1 33 2 30 17 -3 18 -42 29 -52 14z"/>
<path d="M10450 2063 c0 -5 11 -8 24 -8 13 0 22 3 19 8 -2 4 -13 7 -24 7 -10
0 -19 -3 -19 -7z"/>
<path d="M10548 2063 c23 -5 31 -23 10 -23 -9 0 -10 -2 -2 -8 7 -4 14 -16 17
-27 3 -11 5 -2 4 20 -2 35 -5 40 -27 42 -22 1 -22 1 -2 -4z"/>
<path d="M10660 2066 c0 -2 11 -6 25 -8 13 -3 22 -1 19 3 -5 9 -44 13 -44 5z"/>
<path d="M10876 2062 c-3 -5 6 -7 19 -4 14 2 25 0 25 -6 0 -6 -12 -13 -27 -15
-26 -4 -25 -4 5 -6 27 -1 33 2 30 17 -3 18 -42 29 -52 14z"/>
<path d="M11097 2063 c-3 -5 8 -8 23 -8 15 0 26 3 23 8 -2 4 -13 7 -23 7 -10
0 -21 -3 -23 -7z"/>
<path d="M11224 2056 c-3 -8 -4 -23 -1 -33 3 -11 5 -8 6 10 1 23 5 28 24 25
19 -3 22 -10 24 -47 3 -63 13 -64 13 0 0 54 -1 55 -30 57 -19 1 -33 -3 -36
-12z"/>
<path d="M11311 2048 c-2 -37 8 -58 27 -58 14 0 14 1 0 13 -9 6 -19 26 -21 42
-4 28 -4 29 -6 3z"/>
<path d="M11363 2030 c0 -25 2 -35 4 -22 2 12 2 32 0 45 -2 12 -4 2 -4 -23z"/>
<path d="M11406 2062 c-3 -5 6 -7 19 -4 14 2 25 0 25 -6 0 -6 -12 -13 -27 -15
-26 -4 -25 -4 5 -6 27 -1 33 2 30 17 -3 18 -42 29 -52 14z"/>
<path d="M11536 2061 c-4 -5 3 -7 14 -4 23 6 26 13 6 13 -8 0 -17 -4 -20 -9z"/>
<path d="M11630 2066 c0 -2 11 -6 25 -8 13 -3 22 -1 19 3 -5 9 -44 13 -44 5z"/>
<path d="M11714 2058 c-7 -11 22 -39 40 -37 6 0 1 5 -11 11 -28 14 -30 32 -3
25 11 -3 18 -1 14 4 -7 13 -31 11 -40 -3z"/>
<path d="M11796 2062 c-3 -5 6 -7 19 -4 14 2 25 0 25 -6 0 -6 -12 -13 -27 -15
-26 -4 -25 -4 5 -6 27 -1 33 2 30 17 -3 18 -42 29 -52 14z"/>
<path d="M11886 2062 c-3 -5 6 -7 19 -4 15 2 25 0 25 -7 0 -6 -13 -11 -30 -11
-16 0 -30 -4 -30 -8 0 -4 16 -6 36 -4 26 3 34 9 32 21 -3 18 -43 28 -52 13z"/>
<path d="M11965 2060 c-8 -13 3 -30 18 -29 9 0 9 2 0 6 -20 8 -15 21 10 26 22
4 22 4 0 6 -12 0 -25 -3 -28 -9z"/>
<path d="M12100 2066 c0 -2 9 -6 20 -9 11 -3 18 -1 14 4 -5 9 -34 13 -34 5z"/>
<path d="M12173 2030 c0 -25 2 -35 4 -22 2 12 2 32 0 45 -2 12 -4 2 -4 -23z"/>
<path d="M12202 2064 c11 -3 18 -19 21 -42 l4 -37 -1 40 c-1 32 -5 40 -21 42
-15 1 -15 0 -3 -3z"/>
<path d="M12267 2063 c-3 -5 8 -8 23 -8 15 0 26 3 23 8 -2 4 -13 7 -23 7 -10
0 -21 -3 -23 -7z"/>
<path d="M12343 2030 c0 -25 2 -35 4 -22 2 12 2 32 0 45 -2 12 -4 2 -4 -23z"/>
<path d="M12403 2030 c0 -25 2 -35 4 -22 2 12 2 32 0 45 -2 12 -4 2 -4 -23z"/>
<path d="M12430 2012 c0 -64 10 -65 13 -1 2 37 6 45 24 47 16 2 23 -3 26 -23
4 -24 4 -24 3 2 -1 24 -5 28 -33 29 l-33 1 0 -55z"/>
<path d="M12586 2061 c-3 -4 6 -6 19 -3 14 2 25 6 25 8 0 8 -39 4 -44 -5z"/>
<path d="M12661 2025 c2 -33 3 -35 6 -10 2 17 11 35 20 42 13 10 13 12 -6 10
-18 -1 -21 -7 -20 -42z"/>
<path d="M12789 2061 c13 -3 28 -15 32 -26 5 -14 8 -15 8 -4 1 21 -19 39 -43
38 -18 -1 -18 -2 3 -8z"/>
<path d="M10182 2020 c0 -19 2 -27 5 -17 2 9 2 25 0 35 -3 9 -5 1 -5 -18z"/>
<path d="M10211 2035 c-1 -22 16 -45 33 -45 5 0 3 6 -6 13 -9 6 -18 21 -21 32
-5 20 -5 20 -6 0z"/>
<path d="M10650 2025 c0 -12 3 -16 8 -8 4 6 21 13 37 15 29 3 29 4 -7 9 -33 4
-38 2 -38 -16z"/>
<path d="M11620 2025 c0 -12 3 -16 8 -8 4 6 21 13 37 15 29 3 29 4 -7 9 -33 4
-38 2 -38 -16z"/>
<path d="M12082 2027 c4 -26 34 -45 48 -31 8 8 4 10 -11 10 -37 -2 -34 22 3
26 l33 3 -38 6 c-33 4 -38 3 -35 -14z"/>
<path d="M12615 2040 c-18 -8 -18 -9 -2 -9 26 -1 16 -24 -14 -32 -21 -6 -19
-7 9 -6 28 1 32 5 32 29 0 15 -1 28 -2 27 -2 0 -12 -4 -23 -9z"/>
<path d="M12762 2030 c0 -14 2 -19 5 -12 2 6 2 18 0 25 -3 6 -5 1 -5 -13z"/>
<path d="M10970 2030 c0 -5 5 -10 10 -10 6 0 10 5 10 10 0 6 -4 10 -10 10 -5
0 -10 -4 -10 -10z"/>
<path d="M10486 2016 c4 -9 -3 -16 -18 -19 -22 -5 -22 -5 2 -4 24 2 44 37 21
37 -6 0 -8 -6 -5 -14z"/>
<path d="M10522 2013 c2 -10 12 -19 23 -20 17 -2 17 -1 2 3 -11 4 -16 12 -13
20 3 8 1 14 -5 14 -6 0 -9 -8 -7 -17z"/>
<path d="M12006 2016 c6 -16 4 -18 -19 -14 -15 3 -24 1 -21 -3 7 -13 42 -11
50 2 3 6 1 16 -5 22 -9 9 -10 7 -5 -7z"/>
<path d="M11140 2011 c0 -9 -9 -12 -25 -9 -13 3 -22 1 -19 -3 7 -13 42 -11 49
2 4 6 4 13 1 16 -3 4 -6 1 -6 -6z"/>
<path d="M10367 1998 c2 -5 13 -8 23 -8 10 0 21 3 23 8 3 4 -8 7 -23 7 -15 0
-26 -3 -23 -7z"/>
<path d="M10685 2000 c-16 -7 -17 -9 -3 -9 9 -1 20 4 23 9 7 11 7 11 -20 0z"/>
<path d="M10877 1998 c2 -5 13 -8 23 -8 10 0 21 3 23 8 3 4 -8 7 -23 7 -15 0
-26 -3 -23 -7z"/>
<path d="M11407 1998 c2 -5 13 -8 23 -8 10 0 21 3 23 8 3 4 -8 7 -23 7 -15 0
-26 -3 -23 -7z"/>
<path d="M11538 1998 c5 -5 16 -8 23 -6 8 3 3 7 -10 11 -17 4 -21 3 -13 -5z"/>
<path d="M11655 2000 c-16 -7 -17 -9 -3 -9 9 -1 20 4 23 9 7 11 7 11 -20 0z"/>
<path d="M11717 1998 c2 -5 10 -8 18 -8 8 0 16 3 18 8 3 4 -5 7 -18 7 -13 0
-21 -3 -18 -7z"/>
<path d="M11797 1998 c2 -5 13 -8 23 -8 10 0 21 3 23 8 3 4 -8 7 -23 7 -15 0
-26 -3 -23 -7z"/>
<path d="M11887 1998 c2 -5 13 -8 23 -8 10 0 21 3 23 8 3 4 -8 7 -23 7 -15 0
-26 -3 -23 -7z"/>
<path d="M12267 1998 c2 -5 13 -8 23 -8 10 0 21 3 23 8 3 4 -8 7 -23 7 -15 0
-26 -3 -23 -7z"/>
<path d="M12795 2000 c-16 -7 -17 -9 -3 -9 9 -1 20 4 23 9 7 11 7 11 -20 0z"/>
<path d="M11238 1993 c7 -3 16 -2 19 1 4 3 -2 6 -13 5 -11 0 -14 -3 -6 -6z"/>
<path d="M10233 1963 c9 -2 23 -2 30 0 6 3 -1 5 -18 5 -16 0 -22 -2 -12 -5z"/>
<path d="M12735 1868 l-40 -43 43 40 c23 21 42 40 42 42 0 8 -9 0 -45 -39z"/>
<path d="M11063 1825 c0 -33 2 -45 4 -27 2 18 2 45 0 60 -2 15 -4 0 -4 -33z"/>
<path d="M11708 1857 c-7 -22 7 -80 20 -83 7 -1 8 0 2 3 -12 6 -13 60 -1 65 5
2 3 8 -4 15 -10 9 -14 9 -17 0z"/>
<path d="M12754 1848 l-19 -23 23 19 c21 18 27 26 19 26 -2 0 -12 -10 -23 -22z"/>
<path d="M11016 1841 c-4 -5 3 -7 14 -4 23 6 26 13 6 13 -8 0 -17 -4 -20 -9z"/>
<path d="M11106 1842 c-3 -5 6 -7 19 -4 14 2 25 0 25 -6 0 -6 -12 -13 -27 -15
-26 -4 -25 -4 5 -6 27 -1 33 2 30 17 -3 18 -42 29 -52 14z"/>
<path d="M11190 1843 c0 -5 11 -8 24 -8 13 0 22 3 19 8 -2 4 -13 7 -24 7 -10
0 -19 -3 -19 -7z"/>
<path d="M11280 1846 c0 -2 9 -6 20 -9 11 -3 18 -1 14 4 -5 9 -34 13 -34 5z"/>
<path d="M11353 1810 c0 -25 2 -35 4 -22 2 12 2 32 0 45 -2 12 -4 2 -4 -23z"/>
<path d="M11382 1844 c11 -3 18 -19 21 -42 l4 -37 -1 40 c-1 32 -5 40 -21 42
-15 1 -15 0 -3 -3z"/>
<path d="M11447 1843 c-3 -5 8 -8 23 -8 15 0 26 3 23 8 -2 4 -13 7 -23 7 -10
0 -21 -3 -23 -7z"/>
<path d="M11521 1805 c2 -33 3 -35 6 -10 2 17 11 35 20 42 13 10 13 12 -6 10
-18 -1 -21 -7 -20 -42z"/>
<path d="M11583 1810 c0 -25 2 -35 4 -22 2 12 2 32 0 45 -2 12 -4 2 -4 -23z"/>
<path d="M11610 1792 c0 -64 10 -65 13 -1 2 37 6 45 24 47 16 2 23 -3 26 -23
4 -24 4 -24 3 2 -1 24 -5 28 -33 29 l-33 1 0 -55z"/>
<path d="M11766 1842 c-3 -5 6 -7 19 -4 15 2 25 0 25 -7 0 -6 -6 -11 -12 -11
-9 0 -10 -2 -2 -8 7 -4 14 -16 17 -27 3 -11 5 -2 4 20 -2 33 -6 41 -24 43 -11
2 -24 -1 -27 -6z"/>
<path d="M11841 1805 c2 -33 3 -35 6 -10 2 17 11 35 20 42 13 10 13 12 -6 10
-18 -1 -21 -7 -20 -42z"/>
<path d="M11262 1807 c4 -26 34 -45 48 -31 8 8 4 10 -11 10 -37 -2 -34 22 3
26 l33 3 -38 6 c-33 4 -38 3 -35 -14z"/>
<path d="M11226 1796 c4 -9 -3 -16 -18 -19 -22 -5 -22 -5 2 -4 24 2 44 37 21
37 -6 0 -8 -6 -5 -14z"/>
<path d="M11764 1790 c1 -8 10 -16 21 -17 15 -1 15 0 3 3 -9 3 -19 11 -21 17
-2 7 -3 5 -3 -3z"/>
<path d="M2543 1778 c-55 -27 -50 -114 8 -138 89 -37 151 99 63 139 -30 13
-42 13 -71 -1z m47 -53 c0 -14 -4 -25 -10 -25 -5 0 -10 11 -10 25 0 14 5 25
10 25 6 0 10 -11 10 -25z m0 -45 c0 -5 -4 -10 -10 -10 -5 0 -10 5 -10 10 0 6
5 10 10 10 6 0 10 -4 10 -10z"/>
<path d="M11018 1778 c5 -5 16 -8 23 -6 8 3 3 7 -10 11 -17 4 -21 3 -13 -5z"/>
<path d="M11107 1778 c2 -5 13 -8 23 -8 10 0 21 3 23 8 3 4 -8 7 -23 7 -15 0
-26 -3 -23 -7z"/>
<path d="M11447 1778 c2 -5 13 -8 23 -8 10 0 21 3 23 8 3 4 -8 7 -23 7 -15 0
-26 -3 -23 -7z"/>
<path d="M2590 1401 c-69 -21 -121 -65 -156 -131 -16 -30 -19 -58 -19 -195 0
-137 3 -165 19 -195 26 -49 64 -88 111 -113 l40 -22 1290 0 1290 0 40 22 c47
25 85 64 111 113 16 30 19 58 19 195 0 137 -3 165 -19 195 -26 49 -64 88 -111
113 l-40 22 -1275 2 c-701 1 -1286 -2 -1300 -6z m1033 -268 c-25 -3 -33 -9
-33 -24 0 -14 8 -19 33 -21 l32 -1 -32 -4 c-27 -4 -33 -9 -33 -28 0 -20 6 -24
38 -28 30 -3 28 -4 -15 -5 l-53 -2 0 60 0 60 48 -2 c36 -1 39 -2 15 -5z m418
-10 c1 -10 0 -35 -1 -55 -1 -22 3 -38 9 -38 6 0 11 9 11 19 0 12 9 21 25 25
14 4 25 11 25 16 0 14 -13 13 -28 -2 -13 -13 -27 -5 -17 11 10 17 62 13 69 -5
3 -9 6 -29 6 -45 0 -28 0 -29 -59 -28 l-59 1 -4 42 c-1 24 -2 50 0 59 5 22 22
22 23 0z m-296 -30 c6 -17 7 -17 16 0 11 19 54 23 64 7 4 -7 -2 -9 -18 -5 -26
7 -37 -11 -29 -48 3 -14 10 -17 29 -12 16 4 22 2 18 -5 -8 -14 -48 -13 -63 2
-9 9 -12 9 -12 0 0 -7 -7 -12 -15 -12 -11 0 -15 11 -15 41 0 52 -24 48 -28 -4
-5 -52 -22 -46 -22 8 0 44 0 45 34 45 23 0 36 -6 41 -17z m165 -28 c0 -25 -4
-45 -10 -45 -5 0 -10 18 -10 41 0 52 -24 48 -28 -4 -5 -52 -22 -46 -22 8 0 45
0 45 35 45 35 0 35 0 35 -45z m91 24 c15 -29 -3 -69 -31 -69 -11 0 -20 -7 -20
-15 0 -8 -4 -15 -10 -15 -6 0 -10 27 -10 60 0 60 0 60 30 60 20 0 33 -7 41
-21z m187 10 c-12 -6 -18 -22 -18 -44 0 -19 -4 -35 -10 -35 -5 0 -10 20 -10
45 0 42 2 45 28 45 23 -1 24 -2 10 -11z"/>
<path d="M4080 1044 c0 -9 5 -14 12 -12 18 6 21 28 4 28 -9 0 -16 -7 -16 -16z"/>
<path d="M3954 1087 c-7 -20 -2 -47 11 -50 14 -3 19 43 6 56 -7 7 -12 6 -17
-6z"/>
<path d="M6633 1403 c351 -2 923 -2 1270 0 348 1 61 2 -638 2 -698 0 -983 -1
-632 -2z"/>
<path d="M10833 1403 c351 -2 923 -2 1270 0 348 1 61 2 -638 2 -698 0 -983 -1
-632 -2z"/>
<path d="M5950 1390 c-18 -12 -2 -12 25 0 13 6 15 9 5 9 -8 0 -22 -4 -30 -9z"/>
<path d="M8555 1390 c27 -12 43 -12 25 0 -8 5 -22 9 -30 9 -10 0 -8 -3 5 -9z"/>
<path d="M10168 1393 c7 -3 16 -2 19 1 4 3 -2 6 -13 5 -11 0 -14 -3 -6 -6z"/>
<path d="M12748 1393 c7 -3 16 -2 19 1 4 3 -2 6 -13 5 -11 0 -14 -3 -6 -6z"/>
<path d="M5885 1349 c-20 -18 -40 -41 -46 -53 -6 -11 1 -7 15 11 15 17 39 41
54 52 15 11 24 21 20 21 -4 0 -23 -14 -43 -31z"/>
<path d="M8622 1359 c15 -11 39 -35 54 -52 14 -18 21 -22 15 -11 -11 22 -77
84 -89 84 -4 0 5 -10 20 -21z"/>
<path d="M10085 1349 c-20 -18 -40 -41 -46 -53 -6 -11 1 -7 15 11 15 17 39 41
54 52 15 11 24 21 20 21 -4 0 -23 -14 -43 -31z"/>
<path d="M12822 1359 c15 -11 39 -35 54 -52 14 -18 21 -22 15 -11 -11 22 -77
84 -89 84 -4 0 5 -10 20 -21z"/>
<path d="M5816 1255 c-3 -9 -6 -22 -5 -28 0 -7 5 -1 10 12 5 13 8 26 5 28 -2
2 -6 -3 -10 -12z"/>
<path d="M8701 1265 c1 -19 18 -51 18 -35 0 8 -4 22 -9 30 -5 8 -9 11 -9 5z"/>
<path d="M10011 1234 c0 -11 3 -14 6 -6 3 7 2 16 -1 19 -3 4 -6 -2 -5 -13z"/>
<path d="M12911 1234 c0 -11 3 -14 6 -6 3 7 2 16 -1 19 -3 4 -6 -2 -5 -13z"/>
<path d="M5804 1075 c0 -77 2 -107 3 -67 2 40 2 103 0 140 -2 37 -3 4 -3 -73z"/>
<path d="M8724 1075 c0 -77 2 -107 3 -67 2 40 2 103 0 140 -2 37 -3 4 -3 -73z"/>
<path d="M10004 1075 c0 -77 2 -107 3 -67 2 40 2 103 0 140 -2 37 -3 4 -3 -73z"/>
<path d="M12924 1075 c0 -77 2 -107 3 -67 2 40 2 103 0 140 -2 37 -3 4 -3 -73z"/>
<path d="M6830 1070 l0 -61 32 3 c23 2 37 11 48 31 13 24 13 30 0 55 -11 19
-25 28 -48 30 l-32 3 0 -61z m72 25 c16 -36 -3 -75 -37 -75 -23 0 -25 3 -25
50 0 47 2 50 25 50 17 0 29 -8 37 -25z"/>
<path d="M11256 1108 c-21 -29 -20 -51 2 -78 14 -18 25 -21 44 -17 14 4 29 14
32 24 6 16 6 16 -12 0 -26 -24 -51 -21 -64 8 -22 49 25 98 60 63 8 -8 12 -8
12 -1 0 12 -23 23 -45 23 -8 0 -21 -10 -29 -22z"/>
<path d="M7548 1110 c-5 -16 3 -100 11 -100 3 0 5 23 4 51 -1 50 -7 71 -15 49z"/>
<path d="M6950 1086 c-15 -20 -9 -56 12 -70 14 -8 21 -6 35 9 16 17 17 18 1 6
-19 -14 -48 -9 -48 9 0 5 14 10 30 10 31 0 39 17 18 38 -16 16 -33 15 -48 -2z
m48 -13 c2 -8 -6 -13 -22 -13 -25 0 -33 10 -19 24 10 10 36 3 41 -11z"/>
<path d="M7031 1086 c-12 -15 -2 -27 32 -39 26 -10 10 -30 -19 -24 -13 2 -21
0 -18 -4 8 -13 40 -11 52 4 14 16 4 32 -26 41 -27 9 -18 30 9 23 11 -3 17 -1
13 4 -8 13 -30 11 -43 -5z"/>
<path d="M7110 1079 c-17 -31 2 -72 32 -67 12 2 23 9 24 16 1 7 0 8 -3 2 -7
-15 -40 -12 -46 4 -4 11 3 16 26 19 l32 4 -32 1 c-24 2 -31 6 -27 17 7 17 40
20 47 5 3 -6 4 -5 3 2 -5 23 -44 21 -56 -3z"/>
<path d="M7201 1051 l2 -46 6 40 c4 26 12 41 23 43 13 3 18 -6 21 -40 l4 -43
-1 45 c-1 42 -3 45 -28 46 -27 1 -28 -1 -27 -45z"/>
<path d="M7289 1079 c-8 -16 -8 -28 0 -45 10 -23 44 -33 55 -15 3 4 -5 6 -18
4 -17 -4 -26 0 -30 15 -10 31 4 54 30 49 13 -2 21 0 18 4 -10 17 -43 9 -55
-12z"/>
<path d="M7372 1053 l1 -48 4 42 c3 29 9 43 21 46 12 3 11 5 -5 6 -21 1 -23
-3 -21 -46z"/>
<path d="M7423 1055 c0 -27 2 -38 4 -22 2 15 2 37 0 50 -2 12 -4 0 -4 -28z"/>
<path d="M7493 1090 c9 -6 17 -22 17 -36 0 -28 -28 -44 -41 -23 -6 10 -8 3 -8
-21 1 -19 3 -28 5 -20 3 9 15 20 27 25 30 14 32 78 2 83 -18 2 -18 2 -2 -8z"/>
<path d="M7595 1090 c-4 -6 -4 -14 -1 -17 3 -4 6 -1 6 5 0 7 9 12 20 12 27 0
25 -17 -2 -26 -47 -14 -44 -56 4 -52 27 2 29 4 26 43 -2 32 -7 41 -25 43 -11
2 -24 -2 -28 -8z m45 -45 c0 -19 -24 -30 -41 -19 -9 5 -7 11 6 21 24 17 35 17
35 -2z"/>
<path d="M7682 1053 l1 -48 4 42 c3 29 9 43 21 46 12 3 11 5 -5 6 -21 1 -23
-3 -21 -46z"/>
<path d="M11359 1079 c-16 -31 4 -71 33 -67 12 2 23 9 24 16 1 7 0 8 -3 2 -8
-16 -40 -12 -47 6 -10 25 3 54 24 54 10 0 22 -9 25 -21 4 -11 9 -18 12 -16 2
3 0 15 -7 26 -14 27 -46 27 -61 0z"/>
<path d="M11451 1036 c1 -34 4 -52 7 -41 4 11 16 20 27 20 12 0 20 7 21 18 2
13 1 14 -3 2 -8 -26 -38 -13 -41 18 -4 31 24 49 40 26 8 -12 9 -11 5 1 -2 8
-16 15 -30 16 -27 1 -27 0 -26 -60z"/>
<path d="M11543 1055 c0 -27 2 -38 4 -22 2 15 2 37 0 50 -2 12 -4 0 -4 -28z"/>
<path d="M11575 1089 c-4 -6 -4 -13 -1 -16 3 -4 6 -1 6 5 0 7 9 12 20 12 29 0
25 -18 -6 -26 -18 -5 -24 -12 -22 -28 2 -16 10 -21 35 -21 30 -1 31 1 26 30
-2 16 -6 36 -9 43 -4 15 -40 16 -49 1z m43 -46 c-4 -22 -38 -30 -38 -10 0 14
13 24 33 26 5 1 7 -7 5 -16z"/>
<path d="M11662 1050 c1 -40 2 -41 5 -10 2 19 11 40 20 47 13 10 13 12 -6 10
-18 -1 -21 -7 -19 -47z"/>
<path d="M5811 920 c0 -8 4 -22 9 -30 12 -18 12 -2 0 25 -6 13 -9 15 -9 5z"/>
<path d="M8711 923 c-1 -6 -4 -20 -7 -30 -5 -17 -5 -17 6 0 6 10 9 23 6 30 -3
9 -5 9 -5 0z"/>
<path d="M10011 914 c0 -11 3 -14 6 -6 3 7 2 16 -1 19 -3 4 -6 -2 -5 -13z"/>
<path d="M12911 914 c0 -11 3 -14 6 -6 3 7 2 16 -1 19 -3 4 -6 -2 -5 -13z"/>
<path d="M5830 868 c0 -12 62 -78 84 -89 11 -6 7 1 -11 15 -17 15 -41 39 -52
54 -11 15 -21 24 -21 20z"/>
<path d="M8648 819 c-26 -27 -45 -49 -43 -49 9 0 76 64 86 81 13 26 11 24 -43
-32z"/>
<path d="M10030 868 c0 -12 62 -78 84 -89 11 -6 7 1 -11 15 -17 15 -41 39 -52
54 -11 15 -21 24 -21 20z"/>
<path d="M12848 819 c-26 -27 -45 -49 -43 -49 9 0 76 64 86 81 13 26 11 24
-43 -32z"/>
<path d="M5950 760 c8 -5 22 -9 30 -9 10 0 8 3 -5 9 -27 12 -43 12 -25 0z"/>
<path d="M8555 760 c-13 -6 -15 -9 -5 -9 8 0 22 4 30 9 18 12 2 12 -25 0z"/>
<path d="M10168 753 c7 -3 16 -2 19 1 4 3 -2 6 -13 5 -11 0 -14 -3 -6 -6z"/>
<path d="M12748 753 c7 -3 16 -2 19 1 4 3 -2 6 -13 5 -11 0 -14 -3 -6 -6z"/>
<path d="M6633 743 c351 -2 923 -2 1270 0 348 1 61 2 -638 2 -698 0 -983 -1
-632 -2z"/>
<path d="M10833 743 c351 -2 923 -2 1270 0 348 1 61 2 -638 2 -698 0 -983 -1
-632 -2z"/>
<path d="M0 10 c0 -7 2283 -10 6830 -10 4547 0 6830 3 6830 10 0 7 -2283 10
-6830 10 -4547 0 -6830 -3 -6830 -10z"/>
</g>
</svg>
