<?xml version="1.0" standalone="no"?>
<!DOCTYPE svg PUBLIC "-//W3C//DTD SVG 20010904//EN"
 "http://www.w3.org/TR/2001/REC-SVG-20010904/DTD/svg10.dtd">
<svg version="1.0" xmlns="http://www.w3.org/2000/svg"
 width="1366.000000pt" height="785.000000pt" viewBox="0 0 1366.000000 785.000000"
 preserveAspectRatio="xMidYMid meet">

<g transform="translate(0.000000,785.000000) scale(0.100000,-0.100000)"
fill="#000000" stroke="none">
<path d="M0 5185 l0 -2665 6830 0 6830 0 0 30 0 30 -1041 0 c-980 0 -1043 1
-1055 18 -13 16 -13 16 -14 0 0 -14 -9 -18 -38 -18 -33 0 -39 4 -49 30 -12 33
-49 42 -59 15 -4 -10 -14 -13 -29 -9 -31 8 -42 -14 -13 -25 15 -7 -35 -10
-154 -10 -188 -1 -196 1 -164 44 9 12 20 16 35 12 19 -4 20 -3 10 9 -9 11 -9
21 -1 37 6 12 21 51 34 87 l24 65 59 -2 c65 -2 63 7 -5 30 -47 16 -56 31 -45
74 6 24 9 25 52 19 37 -5 48 -3 59 11 21 28 17 33 -29 33 -46 0 -67 13 -67 42
0 24 23 32 49 18 29 -15 44 -4 28 21 -10 17 -9 22 4 29 28 16 57 84 73 167 8
43 13 79 11 81 -2 2 -17 1 -33 -3 -23 -5 -32 -14 -38 -38 -4 -18 -7 -40 -6
-50 2 -15 -3 -17 -20 -11 -32 9 -33 12 -16 31 18 21 13 43 -8 43 -13 0 -71 25
-83 36 -2 2 2 10 9 19 19 23 5 29 -24 10 -28 -19 -36 -6 -10 16 14 11 14 13
-1 22 -9 5 -38 6 -65 2 -62 -9 -69 5 -25 48 19 19 35 37 35 41 0 16 -29 2 -69
-34 -25 -22 -55 -40 -67 -40 -13 0 -24 -7 -27 -17 -3 -12 -5 -8 -6 9 -2 39
-42 98 -63 92 -10 -3 -26 -1 -36 5 -28 15 -35 2 -10 -18 18 -15 21 -30 23
-112 2 -96 -9 -129 -41 -129 -20 0 -27 19 -11 34 20 20 10 73 -14 79 -13 3
-24 -2 -32 -14 -14 -22 -27 -25 -27 -6 0 7 -9 18 -19 24 -17 10 -20 9 -24 -15
-7 -34 1 -46 19 -31 19 15 31 -15 14 -36 -12 -15 -35 -11 -25 4 2 5 -7 6 -20
3 -29 -5 -31 -14 -10 -36 19 -19 19 -32 -1 -40 -26 -10 -46 -7 -65 10 -31 28
-42 10 -13 -19 28 -28 26 -37 -11 -50 -5 -2 2 -22 18 -45 31 -48 32 -52 12
-52 -7 0 -18 -7 -23 -16 -5 -9 -23 -17 -39 -19 -40 -3 -53 -12 -53 -36 0 -29
25 -34 59 -10 16 12 36 21 44 21 8 0 25 8 38 18 46 33 68 42 75 31 7 -12 3
-17 -40 -43 -72 -45 -115 -82 -131 -115 -9 -18 -15 -35 -13 -36 2 -1 12 -7 24
-13 16 -9 22 -7 32 9 7 10 31 31 55 45 23 15 45 31 48 37 12 18 88 46 95 35 8
-12 -14 -28 -40 -28 -18 0 -116 -94 -116 -111 0 -5 7 -9 16 -9 9 0 12 -5 8
-12 -4 -6 -11 -28 -15 -47 -4 -20 -14 -63 -23 -95 -10 -35 -13 -63 -8 -68 6
-6 12 1 16 16 3 14 11 25 18 23 6 -1 22 14 35 33 13 19 43 55 65 80 48 53 64
39 21 -18 -47 -59 -78 -115 -67 -119 6 -2 8 -17 6 -33 l-4 -30 -939 0 -939 0
0 1749 0 1749 -62 -21 c-88 -29 -391 -31 -482 -4 -276 85 -494 319 -567 607
-30 118 -24 308 15 425 87 269 308 483 572 556 68 18 97 20 243 17 154 -4 172
-7 247 -34 203 -75 396 -249 476 -431 24 -54 54 -160 63 -224 l7 -46 196 -6
c119 -4 198 -11 200 -17 2 -5 10 -4 18 5 13 13 159 15 1117 15 658 0 1108 -4
1117 -10 12 -7 11 -13 -10 -34 -19 -21 -21 -26 -7 -26 9 0 17 6 17 14 0 8 7
17 16 20 8 3 13 10 10 15 -3 4 25 11 62 14 90 9 1336 9 1379 1 l33 -6 -67 -77
c-37 -42 -70 -78 -73 -81 -3 -3 -39 -43 -80 -90 -41 -47 -77 -87 -80 -90 -71
-71 -179 -200 -167 -200 9 0 20 6 24 14 4 8 47 56 94 107 47 52 105 117 129
144 23 28 72 81 109 119 36 38 87 91 112 118 l46 48 102 0 101 0 0 465 0 465
-6830 0 -6830 0 0 -2665z m4862 2087 c56 -33 186 -107 288 -167 102 -59 257
-148 345 -198 88 -49 180 -104 204 -120 44 -30 44 -30 23 -47 -12 -10 -74 -48
-139 -85 -201 -115 -427 -246 -586 -339 -84 -49 -159 -91 -167 -94 -8 -3 -27
-14 -42 -24 -14 -10 -31 -18 -37 -18 -8 0 -11 165 -11 575 0 337 4 575 9 575
5 0 56 -26 113 -58z m-3192 -159 c-1 -31 -54 -128 -72 -131 -12 -2 -26 14 -48
57 -44 89 -43 91 45 91 65 0 75 -2 75 -17z m148 -170 l3 -132 42 -3 c59 -4 59
-32 0 -36 l-43 -3 0 -134 c0 -153 2 -150 -91 -143 -36 2 -44 6 -44 23 0 16 8
21 43 23 l42 3 0 115 0 114 -46 0 c-38 0 -45 3 -42 18 2 12 15 18 46 20 l42 3
0 115 0 114 -45 0 c-39 0 -45 3 -45 20 0 19 5 21 68 18 l67 -3 3 -132z m316
-57 c125 -52 51 -245 -76 -197 -70 27 -92 111 -43 170 22 26 35 32 78 40 4 0
23 -5 41 -13z m226 -16 c0 -23 -5 -30 -19 -30 -32 0 -51 -38 -51 -103 0 -55
-1 -58 -22 -55 -22 3 -23 8 -26 105 l-3 102 46 -1 c25 0 49 2 52 6 14 14 23 4
23 -24z m198 18 l32 2 0 -109 c0 -60 -3 -117 -6 -126 -9 -21 -56 -45 -92 -45
-39 0 -89 18 -96 35 -8 22 19 38 44 25 32 -17 81 -8 98 17 14 22 14 23 -17 12
-88 -31 -169 58 -126 141 19 37 69 62 105 53 14 -3 40 -6 58 -5z m-914 -39
c52 -41 21 -139 -44 -139 -41 0 -80 35 -80 71 0 76 67 113 124 68z m24 -336
l-3 -78 -49 -3 c-92 -6 -96 -2 -96 83 l0 75 75 0 76 0 -3 -77z m207 -1329
c106 -54 112 -231 9 -294 -29 -19 -56 -25 -121 -28 l-83 -5 0 -84 0 -83 30 -6
c17 -4 30 -13 30 -20 0 -11 -23 -14 -105 -14 -82 0 -105 3 -105 14 0 7 14 16
30 20 l30 6 0 240 0 240 -24 0 c-25 0 -50 22 -38 34 4 4 75 6 157 4 128 -2
156 -6 190 -24z m4723 -10 c26 -18 28 -50 5 -76 -32 -35 -93 -10 -93 38 0 22
33 54 55 54 6 0 21 -7 33 -16z m-4352 -170 c37 -18 68 -62 79 -111 l7 -33
-133 0 -132 0 6 -62 c6 -73 30 -109 79 -122 44 -11 101 14 125 55 10 16 23 29
30 29 35 0 -7 -75 -57 -100 -107 -54 -233 8 -258 127 -19 86 21 182 89 216 43
21 121 22 165 1z m244 0 c0 -15 2 -15 25 0 53 35 135 11 135 -39 0 -30 -23
-47 -57 -43 -20 2 -28 9 -28 23 0 26 -31 31 -56 9 -17 -15 -19 -31 -19 -146
l0 -128 25 0 c16 0 25 -6 25 -15 0 -12 -17 -15 -90 -15 -71 0 -90 3 -90 14 0
8 10 16 23 18 22 3 22 6 25 151 l3 147 -26 0 c-18 0 -25 5 -25 20 0 18 7 20
65 20 53 0 65 -3 65 -16z m427 -18 c17 -20 23 -38 21 -60 -3 -28 -6 -31 -38
-31 -34 0 -35 1 -32 36 3 47 -16 63 -68 56 -48 -6 -70 -22 -70 -49 0 -19 9
-24 113 -62 27 -10 60 -28 75 -41 22 -19 26 -30 25 -75 -1 -45 -5 -57 -32 -84
-29 -29 -36 -31 -100 -31 -78 0 -118 21 -136 69 -13 38 4 61 46 61 33 0 34 -1
31 -37 -5 -63 52 -87 116 -48 22 13 32 27 32 44 0 21 -11 27 -90 56 -110 40
-134 64 -127 128 8 76 48 103 146 99 56 -3 67 -7 88 -31z m352 14 c20 -12 47
-38 61 -58 21 -31 25 -49 25 -109 0 -63 -3 -76 -30 -115 -54 -76 -143 -99
-232 -59 -108 49 -137 228 -50 309 59 56 158 70 226 32z m251 -12 l0 -31 23
20 c50 46 121 57 177 28 39 -20 50 -64 50 -207 0 -113 1 -117 23 -120 12 -2
22 -7 22 -13 0 -6 -38 -11 -87 -13 -74 -2 -88 0 -88 13 0 8 9 15 20 15 19 0
20 7 20 138 0 94 -4 142 -12 150 -17 17 -59 15 -91 -6 -52 -35 -56 -49 -57
-169 l0 -113 25 0 c16 0 25 -6 25 -15 0 -12 -17 -15 -90 -15 -73 0 -90 3 -90
15 0 9 9 15 25 15 l25 0 0 150 c0 142 -1 150 -19 150 -11 0 -23 5 -26 10 -13
21 8 30 66 30 l59 0 0 -32z m578 12 c45 -28 52 -53 52 -190 0 -120 9 -149 34
-114 13 17 36 13 36 -7 0 -22 -42 -49 -75 -49 -34 0 -75 27 -75 50 0 5 -11 -2
-24 -15 -43 -43 -144 -45 -182 -4 -25 27 -25 96 -1 133 23 35 70 54 147 63
l60 6 0 38 c0 67 -64 102 -115 65 -17 -13 -18 -17 -6 -40 18 -32 1 -56 -38
-56 -53 0 -67 47 -30 94 28 36 52 45 124 45 43 1 69 -5 93 -19z m351 5 c34
-17 59 -70 44 -94 -6 -9 -23 -16 -39 -16 -28 0 -29 2 -26 42 3 38 1 43 -22 49
-61 15 -144 -27 -117 -60 6 -7 50 -28 96 -45 97 -37 115 -56 115 -121 0 -77
-49 -120 -137 -120 -86 0 -150 60 -125 116 10 21 18 25 45 22 30 -3 32 -5 29
-40 -2 -30 2 -40 22 -54 52 -33 142 18 116 65 -5 9 -45 29 -89 44 -101 36
-126 62 -117 127 9 67 49 100 122 100 30 0 68 -7 83 -15z m411 -5 c0 -13 -7
-20 -20 -20 -11 0 -20 -2 -20 -5 0 -10 95 -195 100 -195 4 0 42 99 66 172 5
12 -1 19 -20 24 -17 4 -26 13 -26 25 0 17 8 19 65 19 57 0 65 -2 65 -19 0 -12
-9 -21 -25 -25 -22 -6 -30 -23 -70 -151 -67 -211 -111 -324 -136 -351 -25 -26
-84 -33 -120 -13 -28 14 -41 53 -29 85 9 22 15 25 47 22 32 -3 38 -7 41 -28 5
-46 10 -52 31 -41 18 10 61 116 61 151 0 17 -125 296 -142 318 -6 6 -19 12
-29 12 -21 0 -33 15 -24 30 3 6 46 10 96 10 82 0 89 -1 89 -20z m666 -10 c33
-32 54 -72 54 -105 l0 -25 -120 0 -120 0 0 -61 c0 -71 10 -93 51 -115 50 -25
138 7 154 56 7 21 35 28 35 9 0 -25 -42 -78 -74 -93 -41 -20 -106 -21 -149 -2
-43 17 -93 76 -108 125 -25 82 18 187 92 224 51 26 150 19 185 -13z m355 1
l29 -29 0 29 0 29 66 0 c57 0 65 -2 62 -17 -2 -10 -13 -19 -26 -21 l-22 -3 0
-244 0 -244 23 -3 c12 -2 22 -10 22 -18 0 -12 -18 -15 -105 -15 -87 0 -105 3
-105 15 0 10 13 16 43 18 l42 3 0 107 c0 96 -1 104 -15 86 -53 -77 -203 -46
-250 52 -25 54 -18 167 14 213 36 49 77 71 139 71 46 0 58 -4 83 -29z m299
-120 c0 -129 2 -152 18 -171 23 -28 55 -23 101 16 l31 26 0 119 c0 112 -1 119
-20 119 -13 0 -20 7 -20 20 0 18 7 20 65 20 l65 0 0 -170 c0 -163 1 -170 20
-170 11 0 20 -7 20 -15 0 -12 -14 -15 -65 -15 -59 0 -65 2 -65 21 l0 20 -30
-21 c-56 -40 -141 -39 -180 2 -18 20 -20 35 -20 164 0 140 0 143 -22 146 -13
2 -24 11 -26 21 -3 15 5 17 62 17 l66 0 0 -149z m438 -23 c2 -160 3 -168 22
-168 11 0 20 -7 20 -15 0 -12 -17 -15 -91 -15 -68 0 -90 3 -87 13 3 6 14 13
26 15 21 3 22 7 22 153 0 141 -1 149 -19 149 -11 0 -23 5 -26 10 -13 22 9 31
68 28 l62 -3 3 -167z m192 146 l0 -26 31 26 c24 20 41 26 80 26 93 0 157 -65
167 -171 14 -151 -130 -260 -242 -184 l-36 24 0 -99 0 -100 30 0 c23 0 30 -4
30 -20 0 -19 -7 -20 -95 -20 -80 0 -95 2 -95 16 0 9 9 18 20 21 19 5 20 14 20
249 0 237 -1 244 -20 244 -13 0 -20 7 -20 20 0 18 7 20 65 20 63 0 65 -1 65
-26z m583 12 c39 -16 82 -61 96 -99 6 -16 11 -51 11 -78 0 -142 -138 -230
-265 -169 -102 50 -135 192 -66 287 16 22 44 47 62 56 41 20 118 22 162 3z
m392 -16 c20 -19 25 -32 23 -60 -3 -32 -6 -35 -33 -35 -28 0 -30 2 -27 37 3
42 -15 58 -66 58 -32 0 -82 -34 -82 -55 0 -8 36 -27 86 -46 104 -40 134 -67
134 -121 0 -81 -49 -128 -135 -128 -50 0 -77 10 -112 43 -25 22 -30 66 -11 85
29 29 94 -1 69 -32 -16 -19 -4 -42 30 -56 24 -10 37 -10 67 2 32 12 37 18 37
47 0 33 -2 34 -78 61 -43 15 -89 38 -103 51 -23 21 -25 30 -21 73 4 40 11 55
37 79 30 27 37 29 96 25 50 -3 69 -9 89 -28z m-5167 -698 c3 -16 -2 -22 -17
-22 -24 0 -35 15 -27 36 9 23 40 13 44 -14z m602 -105 l0 -133 -67 -2 c-79 -2
-106 12 -123 62 -24 75 44 148 119 126 l31 -9 0 45 c0 37 3 44 20 44 19 0 20
-7 20 -133z m2020 -3 c0 -124 -2 -135 -17 -132 -16 3 -18 19 -21 136 -2 127
-2 132 18 132 19 0 20 -6 20 -136z m400 1 c0 -128 -1 -135 -20 -135 -19 0 -20
7 -20 135 0 128 1 135 20 135 19 0 20 -7 20 -135z m2039 13 c206 -355 231
-399 371 -643 34 -60 100 -173 145 -250 113 -192 165 -286 165 -296 0 -5 -333
-9 -751 -9 -669 0 -751 2 -745 15 3 9 36 66 72 128 37 61 81 137 97 167 17 30
56 98 87 150 31 52 76 131 100 175 24 44 63 110 86 147 24 36 64 106 90 155
26 48 72 129 102 178 31 50 66 111 79 138 13 26 28 47 33 47 5 0 36 -46 69
-102z m-6003 42 c8 0 26 -11 39 -25 19 -18 25 -35 25 -67 -1 -46 -12 -68 -47
-86 -27 -15 -78 -15 -105 -1 -27 14 -51 74 -43 109 10 45 65 85 103 74 8 -2
20 -4 28 -4z m204 -10 c0 -13 -7 -20 -19 -20 -28 0 -35 -16 -41 -90 -4 -51 -9
-66 -22 -68 -16 -3 -18 6 -18 92 l0 95 40 -1 c23 0 44 2 47 6 10 10 13 7 13
-14z m178 8 l32 2 0 -99 c0 -112 -14 -143 -71 -155 -35 -7 -104 8 -115 25 -13
22 13 31 48 19 41 -15 83 -7 92 16 9 23 3 26 -26 15 -59 -22 -128 25 -128 88
0 20 7 46 15 59 18 25 70 43 100 34 11 -3 35 -5 53 -4z m199 -3 c29 -8 46 -62
41 -130 l-3 -50 -64 -3 c-73 -3 -101 13 -101 59 0 36 33 59 83 59 31 0 38 3
35 18 -4 21 -48 28 -79 12 -17 -10 -23 -9 -30 1 -11 18 -3 27 34 38 32 9 41 9
84 -4z m251 -22 c20 -22 22 -34 20 -92 -3 -58 -5 -66 -23 -66 -18 0 -20 8 -23
65 -3 71 -13 90 -47 90 -34 0 -44 -19 -47 -90 -2 -52 -6 -65 -20 -68 -16 -3
-18 6 -18 92 l0 95 40 -1 c23 0 44 2 47 6 11 11 47 -5 71 -31z m465 9 c13 -12
17 -31 17 -92 l0 -76 -64 -2 c-79 -2 -104 15 -96 68 4 33 32 50 82 50 46 0 48
1 38 20 -12 22 -49 26 -82 9 -16 -8 -22 -8 -29 2 -11 18 -3 27 34 38 38 10 75
4 100 -17z m461 -14 c24 -27 28 -36 23 -72 -8 -56 -43 -86 -102 -86 -36 0 -47
5 -69 31 -48 56 -27 139 39 158 43 13 76 3 109 -31z m174 26 c6 -2 12 -10 12
-18 0 -10 -13 -13 -52 -12 -70 1 -72 -22 -4 -39 51 -13 66 -27 66 -62 0 -31
-37 -53 -91 -53 -50 0 -76 18 -65 46 5 13 9 14 20 4 17 -13 91 -10 91 5 0 6
-22 17 -49 26 -60 18 -77 46 -53 83 21 32 64 39 125 20z m279 -18 c12 -11 25
-36 29 -53 l7 -33 -78 0 c-77 0 -78 0 -60 -20 20 -22 74 -27 93 -8 9 9 13 7
18 -7 15 -37 -68 -61 -119 -33 -34 18 -46 40 -47 81 0 50 15 76 53 92 39 17
74 10 104 -19z m226 6 c13 -12 17 -31 17 -94 0 -70 -2 -79 -17 -76 -15 3 -19
16 -21 68 -3 73 -14 92 -51 88 -34 -4 -51 -39 -51 -106 0 -45 -3 -53 -17 -50
-15 3 -18 17 -21 95 l-3 92 41 -1 c23 0 44 2 47 6 9 9 56 -5 76 -22z m550 0
c13 -12 17 -31 17 -94 0 -70 -2 -79 -17 -76 -15 3 -19 16 -21 68 -3 73 -14 92
-51 88 -34 -4 -51 -39 -51 -106 0 -45 -3 -53 -17 -50 -15 3 -18 17 -21 95 l-3
92 41 -1 c23 0 44 2 47 6 9 9 56 -5 76 -22z m279 12 c10 -3 15 -11 11 -19 -4
-11 -15 -13 -44 -9 -79 13 -90 -26 -11 -41 47 -9 62 -21 62 -53 0 -41 -27 -62
-80 -62 -54 0 -84 17 -75 43 6 13 11 14 26 6 24 -13 81 -8 86 7 2 6 -20 17
-49 25 -49 13 -53 16 -56 47 -6 63 36 81 130 56z m189 -5 c25 -13 42 -64 35
-103 -14 -72 -110 -103 -161 -51 -34 33 -36 112 -2 142 34 32 81 36 128 12z
m322 -20 c30 -33 34 -66 12 -109 -19 -37 -43 -50 -93 -50 -105 0 -127 160 -27
189 43 13 76 3 108 -30z m605 18 c8 -6 12 -6 12 2 0 6 7 11 15 11 12 0 15 -17
15 -95 0 -110 -11 -140 -56 -155 -39 -13 -112 3 -121 26 -9 23 3 27 41 13 45
-16 85 -4 98 30 7 21 6 22 -7 11 -8 -7 -34 -13 -57 -13 -33 0 -47 6 -65 27
-46 54 -23 144 42 159 25 5 66 -2 83 -16z m225 -5 c13 -12 17 -31 17 -92 l0
-76 -62 -2 c-71 -2 -98 14 -98 59 0 37 33 59 87 59 44 0 52 7 31 28 -15 15
-53 15 -80 1 -16 -8 -22 -8 -29 2 -11 18 -3 27 34 38 38 10 75 4 100 -17z
m177 8 c0 -11 -6 -20 -13 -20 -28 0 -46 -35 -49 -95 -3 -52 -6 -60 -23 -60
-18 0 -20 8 -23 92 l-3 93 41 -2 c22 -1 43 2 47 5 12 13 23 7 23 -13z m-3850
-85 c0 -78 -3 -95 -15 -95 -12 0 -15 17 -15 95 0 78 3 95 15 95 12 0 15 -17
15 -95z m200 89 c0 -7 -59 -92 -84 -121 l-19 -23 51 0 c45 0 52 -3 52 -20 0
-18 -7 -20 -80 -20 -99 0 -102 9 -31 95 l50 60 -50 3 c-35 2 -49 7 -49 18 0
11 17 14 80 14 44 0 80 -3 80 -6z m1500 -57 c0 -69 10 -87 50 -87 40 0 50 18
50 87 0 56 2 63 20 63 19 0 20 -7 20 -93 l0 -93 -67 -2 c-57 -1 -71 2 -90 20
-20 19 -23 31 -23 95 0 66 2 73 20 73 18 0 20 -7 20 -63z m1420 0 c0 -66 10
-87 44 -87 38 0 56 29 56 92 0 52 2 58 20 58 20 0 21 -5 18 -92 l-3 -93 -67
-3 c-61 -2 -68 -1 -87 24 -17 21 -21 41 -21 95 0 62 2 69 20 69 18 0 20 -7 20
-63z m795 -102 c0 -23 -34 -33 -45 -14 -13 20 1 40 24 37 13 -2 21 -10 21 -23z
m-5614 -245 c114 -22 257 -115 326 -212 19 -26 48 -86 65 -135 29 -82 30 -94
26 -198 -8 -165 -49 -260 -161 -368 -240 -231 -631 -183 -813 100 -56 87 -76
148 -82 254 -5 111 7 177 48 263 107 223 345 342 591 296z m10109 -462 c0 -4
-7 -8 -15 -8 -8 0 -15 4 -15 8 0 5 7 9 15 9 8 0 15 -4 15 -9z m-50 -28 c0 -5
-5 -10 -11 -10 -5 0 -7 5 -4 10 3 6 8 10 11 10 2 0 4 -4 4 -10z m-34 -17 c-10
-10 -46 -11 -46 -1 0 4 12 8 27 8 14 0 23 -3 19 -7z m118 -38 c-10 -8 -27 -15
-36 -15 -10 0 -27 -9 -38 -20 -11 -11 -25 -20 -30 -20 -11 0 -21 -5 -78 -34
-18 -10 -39 -15 -47 -12 -7 2 -16 0 -19 -7 -2 -7 -5 3 -5 21 -1 27 2 32 23 32
29 0 96 27 96 39 0 7 85 26 134 30 20 1 20 1 0 -14z m-394 -31 c0 -8 5 -12 10
-9 6 3 10 0 10 -8 0 -15 -20 -27 -47 -27 -8 0 -24 -11 -35 -25 -26 -33 -33
-32 -32 7 1 29 4 33 28 30 16 -2 26 2 26 11 0 14 19 37 32 37 4 0 8 -7 8 -16z
m620 -34 c-6 -11 -13 -20 -16 -20 -2 0 0 9 6 20 6 11 13 20 16 20 2 0 0 -9 -6
-20z m-600 -30 c0 -5 -4 -10 -10 -10 -5 0 -10 5 -10 10 0 6 5 10 10 10 6 0 10
-4 10 -10z m530 -5 c0 -8 -7 -15 -15 -15 -8 0 -15 7 -15 15 0 8 7 15 15 15 8
0 15 -7 15 -15z m-572 -73 c2 -7 -3 -12 -12 -12 -9 0 -16 7 -16 16 0 17 22 14
28 -4z m227 -41 c3 -5 1 -12 -5 -16 -5 -3 -10 1 -10 9 0 18 6 21 15 7z m62
-56 c3 -9 3 -18 0 -21 -7 -8 -47 15 -47 26 0 16 40 11 47 -5z m89 -42 c-11
-11 -19 6 -11 24 8 17 8 17 12 0 3 -10 2 -21 -1 -24z m-339 -389 c-3 -3 -12
-4 -19 -1 -8 3 -5 6 6 6 11 1 17 -2 13 -5z"/>
<path d="M4780 6757 l0 -525 88 52 c48 29 139 82 202 118 154 87 295 168 410
236 52 31 121 70 153 87 l57 31 -37 18 c-20 9 -86 47 -147 83 -61 37 -156 92
-211 123 -231 131 -491 282 -502 292 -10 8 -13 -96 -13 -515z"/>
<path d="M1580 7093 c0 -5 4 -14 9 -22 7 -11 11 -9 20 8 10 18 9 21 -9 21 -11
0 -20 -3 -20 -7z"/>
<path d="M2055 6825 c-30 -29 -31 -49 -5 -75 24 -24 48 -25 78 -4 35 25 28 70
-15 93 -29 15 -30 15 -58 -14z"/>
<path d="M2470 6843 c-38 -14 -51 -60 -24 -87 36 -37 113 -2 101 46 -5 19 -47
52 -60 47 -1 0 -9 -3 -17 -6z"/>
<path d="M1571 6806 c-13 -16 1 -56 19 -56 23 0 40 14 40 35 0 33 -38 46 -59
21z"/>
<path d="M1560 6515 c0 -33 2 -35 35 -35 33 0 35 2 35 35 0 33 -2 35 -35 35
-33 0 -35 -2 -35 -35z"/>
<path d="M1680 5029 l0 -142 58 7 c100 11 129 54 119 171 -7 81 -34 105 -118
105 l-59 0 0 -141z"/>
<path d="M2109 4961 c-16 -16 -29 -39 -29 -50 0 -19 6 -21 75 -21 l75 0 0 30
c0 37 -31 70 -66 70 -15 0 -38 -12 -55 -29z"/>
<path d="M3123 4966 c-27 -23 -28 -29 -31 -123 -2 -84 0 -103 17 -130 24 -39
68 -50 109 -29 43 22 55 61 51 166 -4 86 -6 93 -32 116 -36 31 -78 31 -114 0z"/>
<path d="M3949 4801 c-34 -34 -37 -63 -9 -91 48 -48 130 3 130 79 l0 41 -46 0
c-37 0 -51 -5 -75 -29z"/>
<path d="M5381 4976 c-26 -14 -39 -37 -40 -68 -1 -16 9 -18 80 -18 70 0 80 2
75 16 -3 9 -6 22 -6 30 0 22 -37 54 -62 54 -13 -1 -34 -7 -47 -14z"/>
<path d="M5765 4979 c-40 -23 -45 -40 -45 -145 0 -87 3 -105 21 -128 40 -51
130 -27 159 43 7 19 11 58 8 101 -3 62 -7 74 -33 100 -34 33 -80 46 -110 29z"/>
<path d="M6860 4968 c-41 -28 -54 -73 -47 -166 4 -52 10 -69 33 -93 50 -53
133 -32 150 38 4 12 4 61 3 108 -3 68 -8 88 -24 104 -32 33 -75 36 -115 9z"/>
<path d="M7269 4975 c-35 -19 -49 -62 -49 -150 0 -58 4 -78 23 -105 28 -42 67
-56 108 -40 38 16 48 35 55 108 17 158 -43 238 -137 187z"/>
<path d="M3087 4192 c-37 -41 -11 -102 43 -102 32 0 50 23 50 64 0 50 -60 75
-93 38z"/>
<path d="M7574 4178 c-15 -29 -58 -107 -97 -173 -39 -66 -96 -165 -127 -220
-32 -55 -106 -183 -165 -285 -59 -102 -143 -247 -185 -322 l-78 -138 689 0
c379 0 689 3 689 8 0 4 -35 66 -78 139 -42 72 -117 201 -165 285 -49 84 -123
212 -165 283 -42 72 -92 159 -111 195 -74 133 -163 280 -172 280 -5 0 -21 -24
-35 -52z"/>
<path d="M1607 4192 c-19 -21 -22 -54 -7 -83 14 -25 68 -26 86 -1 44 57 -31
137 -79 84z"/>
<path d="M1944 4185 c-19 -29 -11 -60 20 -81 56 -36 117 43 70 90 -24 25 -71
20 -90 -9z"/>
<path d="M2174 4119 c-3 -6 1 -18 9 -27 13 -13 21 -13 42 -4 38 17 32 42 -9
42 -19 0 -38 -5 -42 -11z"/>
<path d="M2874 4119 c-3 -6 1 -18 10 -27 15 -15 19 -15 43 -2 43 24 40 40 -6
40 -22 0 -43 -5 -47 -11z"/>
<path d="M3323 4203 c-18 -7 -27 -67 -14 -92 16 -28 76 -29 91 -2 33 62 -15
120 -77 94z"/>
<path d="M3785 4190 c-18 -20 -17 -20 38 -20 32 0 57 2 57 4 0 3 -7 12 -16 20
-21 22 -57 20 -79 -4z"/>
<path d="M5026 4188 c-21 -30 -20 -61 2 -81 40 -36 102 -9 102 45 0 53 -74 79
-104 36z"/>
<path d="M5336 4188 c-33 -46 -10 -98 42 -98 34 0 52 22 52 64 0 53 -65 76
-94 34z"/>
<path d="M5956 4188 c-23 -32 -20 -54 11 -77 30 -24 58 -20 86 11 31 37 0 88
-54 88 -17 0 -34 -8 -43 -22z"/>
<path d="M6184 4119 c-3 -6 1 -18 10 -27 15 -15 19 -15 43 -2 43 24 40 40 -6
40 -22 0 -43 -5 -47 -11z"/>
<path d="M735 3800 c-158 -24 -322 -144 -383 -280 -139 -314 51 -661 391 -710
222 -32 469 128 537 349 25 78 26 205 4 282 -32 108 -131 236 -226 292 -94 55
-223 82 -323 67z"/>
<path d="M8354 7629 c-255 -30 -501 -201 -610 -424 -63 -130 -86 -226 -86
-360 1 -205 71 -386 207 -533 220 -237 566 -319 858 -203 l27 11 0 400 0 400
240 0 c218 0 240 2 240 17 0 43 -36 156 -75 238 -88 180 -197 291 -370 375
-147 71 -285 96 -431 79z"/>
<path d="M9564 6885 c22 -17 20 -28 -3 -20 -18 5 -19 1 -14 -72 3 -43 9 -86
14 -95 10 -18 49 -24 63 -11 4 4 23 6 42 4 l35 -3 -7 74 c-9 93 -18 118 -44
118 -12 0 -19 3 -17 8 3 4 -15 7 -40 8 -37 0 -42 -2 -29 -11z"/>
<path d="M12390 6856 c0 -19 39 -31 98 -30 23 1 42 -3 42 -8 0 -4 7 -8 15 -8
38 0 9 19 -52 34 -38 9 -76 19 -85 22 -12 4 -18 0 -18 -10z"/>
<path d="M11807 6796 c-26 -24 -47 -45 -47 -48 0 -3 18 -5 40 -5 37 0 40 2 54
43 8 24 11 46 8 48 -4 2 -29 -15 -55 -38z"/>
<path d="M10594 6728 c-15 -24 -41 -66 -59 -93 -32 -51 -52 -105 -37 -105 4 0
17 7 28 14 12 8 43 16 70 18 51 3 74 16 74 42 0 8 5 18 10 21 16 10 7 125 -11
136 -28 18 -49 8 -75 -33z"/>
<path d="M11720 6700 c-9 -6 -10 -10 -3 -10 6 0 15 5 18 10 8 12 4 12 -15 0z"/>
<path d="M11985 6610 c3 -5 14 -10 23 -10 15 0 15 2 2 10 -20 13 -33 13 -25 0z"/>
<path d="M12050 6590 c0 -5 -13 -10 -30 -10 -21 0 -28 -4 -24 -14 3 -9 -5 -15
-23 -19 -20 -4 -29 -12 -30 -26 -1 -12 2 -21 8 -21 5 0 9 -10 10 -22 1 -24 4
-19 13 22 7 34 40 54 65 39 10 -7 27 -9 37 -5 18 7 18 8 1 20 -10 8 -15 20
-11 30 3 9 1 16 -5 16 -6 0 -11 -4 -11 -10z"/>
<path d="M12080 6571 c0 -5 7 -11 15 -15 8 -3 15 -12 15 -19 0 -8 -7 -20 -15
-27 -17 -14 -21 -35 -5 -25 6 3 10 -1 10 -9 0 -9 -4 -16 -10 -16 -5 0 -10 -7
-10 -15 0 -22 23 -18 38 5 17 28 36 26 28 -4 -5 -19 -1 -25 16 -29 12 -4 25
-2 28 3 3 5 14 8 25 6 15 -2 19 -9 17 -29 -2 -19 1 -27 12 -27 23 0 20 -17
-10 -47 -24 -24 -27 -62 -2 -47 7 5 9 2 5 -8 -4 -11 1 -18 14 -21 20 -5 22
-30 4 -70 -4 -9 -5 -26 -2 -36 3 -13 0 -18 -8 -15 -7 3 -15 -1 -18 -9 -4 -10
4 -14 26 -15 51 -2 87 17 87 45 0 13 7 26 15 29 8 4 15 10 15 16 0 5 -4 6 -10
3 -5 -3 -10 3 -10 14 0 12 7 21 15 21 8 0 15 3 15 6 0 3 -7 12 -15 20 -16 17
-20 44 -6 44 5 0 14 13 19 29 7 21 6 41 -8 80 -20 60 -27 70 -36 47 -6 -15 -8
-14 -25 5 -11 12 -19 33 -19 46 0 30 -18 30 -22 1 -3 -20 -8 -23 -38 -20 -37
4 -90 42 -58 42 10 0 22 9 28 20 10 18 8 19 -13 11 -25 -10 -74 -4 -83 10 -7
12 -24 12 -24 0z m200 -150 c0 -12 -20 -25 -27 -18 -7 7 6 27 18 27 5 0 9 -4
9 -9z m30 -135 c0 -28 -19 -44 -30 -26 -11 17 0 50 16 50 8 0 14 -10 14 -24z"/>
<path d="M13364 6542 c-6 -4 -14 -24 -18 -44 -4 -21 -13 -41 -20 -45 -16 -10
-83 -107 -91 -133 -4 -11 -10 -20 -16 -20 -5 0 -8 -10 -6 -22 1 -16 -3 -22
-13 -20 -12 3 -12 1 -3 -9 16 -16 29 -5 78 68 71 105 105 146 135 165 37 22
37 29 1 51 -33 19 -32 19 -47 9z"/>
<path d="M10545 6520 c3 -5 8 -10 11 -10 2 0 4 5 4 10 0 6 -5 10 -11 10 -5 0
-7 -4 -4 -10z"/>
<path d="M11853 6492 c-8 -5 -9 -13 -3 -22 7 -12 12 -12 22 -2 14 14 -1 35
-19 24z"/>
<path d="M11890 6486 c0 -9 5 -16 10 -16 6 0 10 4 10 9 0 6 -4 13 -10 16 -5 3
-10 -1 -10 -9z"/>
<path d="M13447 6478 c-15 -16 -16 -22 -6 -34 10 -12 8 -16 -10 -21 -12 -3
-20 -10 -19 -17 1 -6 -14 -27 -34 -48 -24 -25 -35 -46 -36 -67 0 -17 2 -31 6
-31 9 0 72 92 73 105 1 19 59 57 79 52 12 -3 18 -1 14 5 -4 6 -7 20 -8 31 -1
11 -10 25 -21 32 -17 10 -23 9 -38 -7z m-77 -162 c0 -3 -4 -8 -10 -11 -5 -3
-10 -1 -10 4 0 6 5 11 10 11 6 0 10 -2 10 -4z"/>
<path d="M12000 6439 c0 -5 -4 -8 -8 -5 -5 3 -9 -8 -10 -25 -1 -26 2 -29 20
-23 16 5 20 3 15 -9 -3 -9 0 -20 7 -26 10 -8 13 -2 14 31 2 39 -11 68 -29 68
-5 0 -9 -5 -9 -11z"/>
<path d="M13547 6439 c7 -7 15 -10 18 -7 3 3 -2 9 -12 12 -14 6 -15 5 -6 -5z"/>
<path d="M13539 6406 c9 -11 7 -19 -13 -39 -14 -14 -26 -24 -28 -22 -2 2 -10
-7 -19 -19 -13 -17 -14 -25 -5 -38 10 -14 16 -10 46 33 19 29 41 49 52 49 25
0 23 16 -4 34 -28 20 -44 21 -29 2z"/>
<path d="M11880 6391 c0 -22 26 -36 33 -18 6 18 -3 37 -19 37 -8 0 -14 -9 -14
-19z"/>
<path d="M10747 6393 c-14 -13 -6 -33 13 -33 23 0 25 -13 9 -59 -9 -27 -8 -35
6 -51 12 -13 15 -28 11 -44 -4 -16 0 -30 10 -40 9 -10 13 -24 9 -36 -7 -21 11
-90 24 -90 4 0 13 -16 21 -34 7 -19 18 -34 24 -33 6 1 10 -11 8 -28 -2 -20 0
-26 6 -17 7 10 12 10 22 -3 13 -15 15 -15 22 5 4 12 4 29 -1 38 -5 9 -14 53
-21 97 -7 44 -13 85 -15 90 -1 6 -6 29 -10 53 -4 23 -11 42 -16 42 -5 0 -9 12
-9 28 0 30 -32 86 -43 75 -4 -3 -7 1 -7 10 0 11 -5 14 -16 10 -10 -4 -22 0
-29 10 -7 9 -15 14 -18 10z"/>
<path d="M12145 6384 c-11 -8 -15 -20 -11 -32 9 -27 36 -37 37 -14 1 11 3 8 8
-7 l6 -24 12 27 c8 17 9 26 2 26 -6 0 -8 9 -4 19 5 15 1 19 -14 18 -11 0 -27
-7 -36 -13z"/>
<path d="M12059 6377 c-14 -9 -15 -15 -6 -35 8 -18 8 -25 -2 -31 -7 -5 -16
-30 -18 -55 -4 -28 -10 -45 -17 -43 -6 2 -10 13 -8 23 2 16 1 17 -7 3 -11 -17
10 -91 27 -97 5 -1 13 13 16 32 4 21 16 41 34 52 58 38 78 82 41 91 -11 3 -18
11 -16 17 3 7 -2 22 -12 33 -12 17 -20 19 -32 10z m47 -93 c-3 -9 -6 -20 -6
-25 0 -20 -18 -7 -22 16 -4 20 -1 25 14 25 14 0 18 -5 14 -16z"/>
<path d="M13630 6350 c0 -6 -22 -32 -49 -59 -42 -42 -47 -52 -43 -80 l4 -32
50 68 c27 37 54 70 59 71 14 6 11 29 -6 36 -8 3 -15 1 -15 -4z"/>
<path d="M11864 6325 c-4 -10 -15 -13 -33 -10 -23 5 -24 5 -4 -4 42 -19 56
-17 58 7 2 25 -13 30 -21 7z"/>
<path d="M11943 6306 c3 -8 -2 -16 -13 -19 -10 -2 -23 -14 -29 -25 -9 -18 -8
-19 12 -15 12 3 28 10 34 16 7 5 22 7 33 4 11 -3 20 -1 20 5 0 5 -9 12 -20 15
-11 3 -20 12 -20 19 0 8 -5 14 -11 14 -6 0 -9 -6 -6 -14z"/>
<path d="M12120 6205 c-12 -19 -28 -35 -36 -35 -21 0 -17 -27 6 -33 15 -4 20
0 20 14 0 20 13 24 64 20 20 -2 26 1 21 9 -4 7 -2 16 5 20 22 14 3 40 -29 40
-23 0 -34 -8 -51 -35z"/>
<path d="M12230 6221 c0 -5 5 -13 10 -16 6 -3 10 -2 10 4 0 5 -4 13 -10 16 -5
3 -10 2 -10 -4z"/>
<path d="M13147 6206 c-12 -18 -13 -26 -4 -35 9 -9 7 -11 -8 -5 -17 6 -18 5
-7 -7 12 -12 18 -9 43 21 16 19 29 38 29 42 0 18 -39 6 -53 -16z"/>
<path d="M13642 6217 c-7 -8 -14 -26 -15 -39 0 -13 -6 -26 -11 -30 -6 -4 -3
-10 7 -14 27 -10 39 8 35 56 -3 37 -5 41 -16 27z"/>
<path d="M10671 6198 c-18 -49 -22 -68 -14 -67 20 3 23 -2 12 -22 -9 -17 -8
-20 2 -14 9 6 11 3 6 -8 -11 -28 28 -41 63 -21 33 20 43 48 34 93 -7 35 -19
47 -29 30 -5 -7 -12 -3 -22 10 -19 27 -41 27 -52 -1z"/>
<path d="M11445 6150 c-27 -5 -83 -9 -123 -9 -49 -1 -81 -6 -97 -17 -33 -22
-33 -46 0 -40 13 3 104 8 202 12 98 3 181 8 184 10 4 2 4 14 2 27 -4 22 -10
24 -61 24 -32 0 -79 -3 -107 -7z"/>
<path d="M13400 6121 c0 -5 7 -21 15 -37 17 -33 2 -63 -16 -31 -6 9 -14 15
-20 12 -13 -9 -11 -69 3 -83 9 -9 9 -12 1 -12 -7 0 -10 -10 -7 -26 4 -22 2
-25 -16 -19 -14 5 -20 2 -20 -9 0 -9 -4 -16 -8 -16 -12 0 -72 46 -87 66 -9 13
-23 18 -48 16 -19 -2 -38 2 -42 8 -5 8 -13 6 -26 -6 -14 -12 -16 -21 -9 -29 8
-9 6 -17 -4 -28 -8 -8 -12 -18 -8 -21 3 -4 0 -11 -8 -16 -22 -14 -33 -12 -26
6 4 11 1 14 -12 12 -9 -1 -19 2 -22 7 -3 6 7 11 23 13 30 4 36 17 10 24 -30 7
-53 -2 -53 -21 0 -10 -9 -26 -21 -37 -25 -23 -49 -67 -49 -91 0 -26 17 -3 27
37 8 32 13 35 46 36 28 1 38 -3 43 -18 3 -11 1 -25 -5 -31 -8 -8 -11 -7 -11 2
0 8 -6 11 -15 7 -8 -3 -15 -1 -15 4 0 6 -5 10 -11 10 -5 0 -8 -4 -5 -9 4 -5 0
-11 -6 -14 -9 -3 -7 -10 7 -21 16 -13 17 -17 6 -25 -9 -6 -10 -11 -2 -15 6 -4
16 4 22 18 10 21 17 24 38 19 14 -3 27 -7 29 -8 6 -5 -22 -45 -31 -45 -4 0 -5
5 -2 10 3 6 2 10 -4 10 -11 0 -8 -56 3 -67 3 -3 1 -12 -5 -19 -7 -8 -5 -22 5
-46 12 -26 15 -29 15 -11 1 12 6 23 13 25 14 5 22 48 8 48 -6 0 -10 7 -10 15
0 8 5 15 10 15 6 0 10 -7 10 -15 0 -10 10 -15 29 -15 31 0 49 -25 25 -34 -8
-3 -17 1 -20 9 -9 22 -24 18 -24 -5 0 -11 -7 -23 -15 -26 -23 -9 -18 -24 8
-24 13 0 28 -5 35 -12 9 -9 15 -8 27 8 14 18 15 17 13 -13 -1 -17 4 -38 11
-47 8 -9 9 -16 3 -16 -5 0 -8 -9 -5 -20 5 -19 6 -20 20 -3 13 17 14 16 8 -7
-7 -24 -26 -45 -49 -53 -12 -5 32 -50 57 -60 9 -3 36 8 61 25 26 16 53 27 61
24 17 -6 20 -42 5 -51 -5 -3 -10 -16 -10 -28 -1 -25 -26 -72 -125 -227 -38
-60 -75 -109 -80 -110 -17 0 -39 -44 -36 -72 1 -16 -2 -28 -8 -28 -6 0 -11 7
-11 16 0 8 -5 12 -10 9 -6 -3 -7 -18 -4 -32 5 -19 3 -24 -7 -21 -7 2 -22 -6
-34 -18 -11 -13 -32 -26 -47 -30 -25 -5 -28 -3 -28 20 0 21 -5 26 -24 26 -14
0 -28 5 -32 12 -5 7 -11 5 -21 -7 -11 -16 -13 -7 -14 71 -1 90 -15 80 -18 -13
-1 -49 -12 -60 -31 -33 -8 10 -17 17 -21 15 -4 -3 -21 0 -38 6 -24 9 -33 20
-41 51 -8 29 -8 43 1 54 6 8 8 14 3 14 -5 0 0 7 10 15 11 8 15 15 8 15 -13 0
-4 31 12 42 7 5 4 8 -6 8 -28 0 -31 18 -9 53 22 36 21 75 -4 111 -15 20 -15
20 -15 1 0 -15 -3 -16 -9 -7 -4 7 -5 31 -1 52 4 21 5 53 2 71 -8 63 -2 157 13
193 14 33 14 36 -2 36 -10 0 -31 -10 -46 -23 -24 -19 -27 -27 -21 -54 6 -30
24 -47 24 -23 0 6 5 10 11 10 7 0 9 -11 5 -32 -4 -18 -7 -44 -7 -58 1 -58 -68
-95 -70 -38 0 23 0 23 -10 -2 -6 -14 -14 -85 -19 -158 -4 -75 -13 -139 -20
-147 -13 -15 2 -141 20 -176 15 -27 12 -43 -14 -81 -20 -31 -126 -374 -126
-411 0 -7 21 -35 46 -62 25 -28 42 -43 36 -35 -18 27 -25 89 -12 105 17 21 44
20 36 -1 -4 -9 3 -32 14 -51 21 -36 26 -68 11 -77 -5 -3 -7 -16 -4 -29 3 -12
2 -18 -3 -14 -12 12 -32 -32 -26 -59 5 -30 27 -26 26 3 -1 13 8 25 22 32 20 9
26 7 39 -12 23 -33 18 -63 -17 -96 -37 -35 -46 -37 -54 -16 -10 26 -28 16 -46
-25 -24 -58 -46 -53 -45 10 1 35 -7 67 -28 110 -16 33 -32 60 -36 60 -7 0 -25
-97 -20 -114 2 -10 -29 -46 -41 -46 -12 0 -10 18 6 53 21 48 28 107 11 101 -7
-3 -17 -22 -22 -41 -13 -56 -32 -53 -25 4 5 44 4 47 -11 34 -10 -7 -17 -26
-17 -41 0 -16 -7 -30 -16 -34 -10 -4 -14 -12 -10 -22 12 -31 -5 -64 -33 -65
-14 -1 0 -5 32 -9 32 -4 60 -9 62 -12 2 -2 -2 -40 -10 -83 -21 -119 -20 -160
8 -177 12 -8 40 -18 62 -22 22 -4 53 -9 69 -12 19 -4 26 -3 22 5 -4 6 -2 11 3
11 6 0 11 -7 11 -16 0 -14 7 -16 45 -11 34 5 43 3 39 -6 -3 -9 9 -18 32 -25
34 -10 40 -9 68 14 30 26 64 42 101 50 71 14 72 14 126 106 30 50 64 97 76
105 12 8 25 28 28 44 4 16 18 38 32 49 21 16 24 23 14 33 -10 9 -17 6 -33 -15
-24 -34 -47 -35 -81 -4 -23 21 -47 79 -47 114 0 15 -12 16 -28 0 -14 -14 -19
-3 -29 71 -8 54 -8 54 -22 27 -13 -24 -13 -31 9 -74 14 -26 26 -51 28 -55 2
-5 -5 -3 -17 5 -12 7 -28 28 -38 48 l-16 34 -15 -22 c-19 -29 -40 -28 -48 3
-3 14 -11 25 -16 25 -11 0 -7 40 7 75 7 16 3 15 -22 -7 -16 -16 -34 -28 -40
-28 -14 0 -11 43 4 62 6 7 13 25 16 39 4 17 17 30 34 37 30 11 187 11 198 0 8
-8 45 3 115 35 30 14 123 39 205 55 83 17 175 35 205 42 30 6 67 11 82 11 33
0 44 13 26 34 -47 56 -68 64 -68 24 0 -29 -17 -14 -25 21 l-6 30 -49 -25 c-27
-14 -55 -34 -63 -46 -9 -11 -24 -27 -35 -35 -19 -13 -19 -11 -15 34 3 32 1 43
-5 33 -5 -7 -28 -17 -51 -21 -39 -7 -41 -6 -41 17 0 21 -2 23 -22 12 -16 -9
-23 -9 -26 0 -2 6 -24 11 -50 11 -28 0 -52 6 -64 17 -10 9 -18 11 -18 5 0 -6
5 -14 10 -17 6 -4 8 -11 5 -16 -4 -5 -13 -2 -22 6 -13 14 -13 19 1 49 16 35
61 54 80 35 6 -5 25 -9 43 -9 29 0 33 -3 33 -26 0 -14 -4 -23 -10 -19 -5 3
-10 -1 -10 -10 0 -12 5 -15 16 -11 9 3 27 9 40 12 13 3 24 12 24 19 0 6 19 30
43 53 23 22 55 57 71 77 20 25 31 32 37 24 5 -8 11 -6 20 10 8 11 19 21 26 21
7 0 13 4 13 9 0 18 39 18 69 -1 32 -21 38 -32 21 -43 -5 -3 -10 -11 -10 -17 0
-6 19 13 43 44 23 30 61 79 85 107 50 63 54 96 16 132 -15 13 -43 49 -63 81
-34 53 -85 97 -173 150 -42 26 -45 32 -22 50 44 36 74 74 93 114 12 24 21 47
21 52 0 5 9 18 21 30 11 12 17 27 13 33 -12 21 -11 79 2 97 8 10 13 12 14 5 0
-18 45 -16 59 1 9 11 9 19 0 35 -20 31 -48 34 -61 6 -6 -13 -26 -31 -44 -40
-19 -9 -38 -24 -44 -35 -17 -31 -43 -14 -37 24 3 18 -1 39 -8 49 -11 15 -11
23 1 45 8 15 14 31 14 35 0 4 10 21 21 37 19 25 24 27 36 14 8 -8 12 -21 9
-29 -8 -21 60 -61 78 -46 15 13 19 61 5 61 -5 0 -9 7 -9 15 0 8 9 15 20 15 11
0 20 7 20 16 0 11 -6 13 -19 9 -11 -3 -22 -1 -26 5 -4 6 -13 9 -21 6 -8 -3
-14 1 -14 9 0 19 -24 19 -42 2 -11 -12 -16 -12 -26 -1 -16 18 -16 47 1 38 6
-4 1 5 -12 19 -25 27 -41 34 -41 18z m-188 -263 c-7 -7 -12 -8 -12 -2 0 14 12
26 19 19 2 -3 -1 -11 -7 -17z m-104 -14 c4 2 13 -3 21 -11 12 -14 12 -15 0
-11 -8 3 -22 1 -31 -4 -14 -7 -18 -5 -18 10 0 22 13 38 18 23 2 -6 7 -9 10 -7z
m62 -79 c0 -8 -7 -15 -15 -15 -16 0 -20 12 -8 23 11 12 23 8 23 -8z m31 -38
c-13 -13 -26 -3 -16 12 3 6 11 8 17 5 6 -4 6 -10 -1 -17z m39 -147 c0 -5 -4
-10 -10 -10 -5 0 -10 5 -10 10 0 6 5 10 10 10 6 0 10 -4 10 -10z m-460 -654
c0 -3 -4 -8 -10 -11 -5 -3 -10 -1 -10 4 0 6 5 11 10 11 6 0 10 -2 10 -4z m-77
-797 c-5 -25 -3 -29 13 -23 16 5 16 4 4 -5 -21 -15 -40 -13 -40 4 0 8 -7 15
-15 15 -8 0 -15 4 -15 9 0 5 7 14 15 21 8 7 15 20 15 29 1 14 3 13 15 -3 9
-11 12 -30 8 -47z m-258 6 c11 -19 16 -37 12 -41 -3 -4 -11 5 -16 19 -5 14
-15 28 -20 32 -13 7 -15 25 -3 25 5 0 17 -16 27 -35z m175 -235 c0 -5 -4 -10
-10 -10 -5 0 -10 5 -10 10 0 6 5 10 10 10 6 0 10 -4 10 -10z m-105 -10 c3 -6
-4 -10 -17 -10 -18 0 -20 2 -8 10 19 12 18 12 25 0z"/>
<path d="M10973 6112 c-25 -2 -33 -8 -33 -23 0 -21 8 -22 86 -13 32 4 55 13
61 23 10 16 6 17 -36 17 -25 -1 -61 -2 -78 -4z"/>
<path d="M13490 6100 c0 -5 7 -10 15 -10 8 0 15 5 15 10 0 6 -7 10 -15 10 -8
0 -15 -4 -15 -10z"/>
<path d="M9870 6090 c0 -5 5 -10 10 -10 6 0 10 5 10 10 0 6 -4 10 -10 10 -5 0
-10 -4 -10 -10z"/>
<path d="M13550 6060 c0 -5 5 -10 11 -10 5 0 7 5 4 10 -3 6 -8 10 -11 10 -2 0
-4 -4 -4 -10z"/>
<path d="M12178 6033 c-7 -16 -18 -36 -26 -45 -10 -11 -11 -18 -4 -18 12 0 25
21 42 64 13 35 3 33 -12 -1z"/>
<path d="M9293 6003 c-36 -5 -36 -4 -33 -78 2 -70 16 -89 25 -36 7 41 37 81
61 81 13 0 26 25 17 34 -6 6 -12 6 -70 -1z"/>
<path d="M11601 5770 c0 -8 6 -26 14 -40 8 -14 14 -19 14 -10 0 8 -6 26 -14
40 -8 14 -14 19 -14 10z"/>
<path d="M12918 5730 c2 -16 6 -30 8 -30 2 0 4 14 4 30 0 17 -4 30 -8 30 -5 0
-7 -13 -4 -30z"/>
<path d="M9887 5735 c-11 -7 -25 -11 -33 -8 -9 3 -14 -2 -14 -16 0 -12 5 -21
10 -21 6 0 10 5 10 10 0 6 11 10 25 10 14 0 25 -5 25 -11 0 -5 5 -7 10 -4 6 4
8 10 5 15 -3 5 -1 11 5 15 5 3 10 10 10 16 0 14 -32 10 -53 -6z"/>
<path d="M12962 5727 c-15 -35 -15 -57 -2 -57 6 0 9 3 8 8 0 4 2 15 6 24 4 9
6 25 3 35 -3 15 -6 13 -15 -10z"/>
<path d="M9961 5685 c-27 -29 -82 -37 -138 -19 -14 4 -23 2 -23 -5 0 -6 5 -11
11 -11 21 0 70 -42 65 -56 -6 -16 -2 -17 22 -5 9 5 33 16 53 25 20 9 44 27 53
42 17 25 17 25 -3 15 -11 -6 -28 -11 -38 -10 -11 0 -13 3 -5 6 10 4 38 43 30
43 -2 0 -14 -12 -27 -25z"/>
<path d="M9870 5690 c0 -5 5 -10 10 -10 6 0 10 5 10 10 0 6 -4 10 -10 10 -5 0
-10 -4 -10 -10z"/>
<path d="M12470 5603 c-23 -48 -52 -98 -65 -111 -18 -16 -25 -33 -25 -59 0
-43 14 -35 45 24 11 21 23 40 26 43 14 11 67 116 73 147 14 65 -14 43 -54 -44z"/>
<path d="M12997 5653 c9 -25 24 -43 36 -43 5 0 3 8 -6 18 -10 10 -17 24 -17
30 0 7 -4 12 -10 12 -5 0 -7 -8 -3 -17z"/>
<path d="M11568 5643 c5 -10 9 -42 10 -71 1 -29 9 -88 18 -130 9 -42 16 -108
16 -147 0 -44 5 -77 14 -89 18 -26 18 -36 -1 -36 -10 0 -15 -10 -15 -30 0 -19
5 -30 14 -30 11 0 13 -10 9 -40 -4 -28 -2 -40 7 -40 6 0 10 -6 7 -12 -7 -20
12 -48 28 -42 9 4 15 0 15 -8 0 -22 86 -191 106 -210 33 -29 124 -43 124 -19
0 5 -22 17 -48 28 -59 25 -84 69 -86 155 -1 31 -5 61 -9 64 -4 4 -7 20 -7 36
0 22 5 28 20 28 19 0 20 4 15 47 -3 26 -9 49 -13 52 -10 8 -50 112 -65 171 -7
25 -21 61 -33 80 -12 19 -31 62 -44 95 -50 132 -66 165 -78 165 -9 0 -10 -5
-4 -17z"/>
<path d="M11935 5640 c-3 -5 -1 -10 4 -10 6 0 11 5 11 10 0 6 -2 10 -4 10 -3
0 -8 -4 -11 -10z"/>
<path d="M10004 5586 c-10 -8 -15 -18 -11 -22 4 -4 17 2 30 14 24 25 12 30
-19 8z"/>
<path d="M12316 5516 c-20 -35 -36 -68 -36 -73 0 -4 -11 -21 -25 -37 -14 -17
-23 -36 -21 -43 3 -7 -1 -13 -9 -13 -8 0 -15 -7 -15 -16 0 -11 -6 -14 -20 -9
-15 5 -18 3 -14 -9 3 -9 2 -16 -4 -16 -5 0 -13 -10 -16 -22 -6 -21 -7 -22 -19
-6 -11 14 -12 7 -9 -43 3 -39 1 -59 -7 -59 -6 0 -11 5 -11 12 0 9 -3 9 -12 0
-10 -10 -10 -15 -1 -20 9 -6 9 -26 2 -80 -6 -40 -9 -87 -7 -104 l3 -31 37 47
c22 29 35 54 31 64 -3 12 -2 13 4 5 6 -9 22 5 56 49 26 33 47 67 47 75 0 8 4
12 9 9 5 -3 11 3 14 14 5 19 -7 28 -16 13 -2 -5 -2 -1 0 7 3 8 8 34 12 58 5
23 17 52 26 62 11 12 19 39 20 63 4 65 4 67 17 65 6 -2 19 13 29 32 18 38 17
53 -4 29 -6 -8 -20 -21 -30 -28 -16 -13 -16 -11 -1 24 25 61 9 51 -30 -19z"/>
<path d="M11506 5515 c19 -29 29 -27 19 4 -3 12 -13 21 -21 21 -12 0 -12 -4 2
-25z"/>
<path d="M9939 5488 c-12 -23 -12 -23 9 -5 13 12 22 14 25 7 3 -6 5 -6 3 2 -4
22 -24 20 -37 -4z"/>
<path d="M9710 5490 c-9 -6 -10 -10 -3 -10 6 0 15 5 18 10 8 12 4 12 -15 0z"/>
<path d="M10426 5465 c4 -8 8 -15 10 -15 2 0 4 7 4 15 0 8 -4 15 -10 15 -5 0
-7 -7 -4 -15z"/>
<path d="M11532 5450 c0 -14 2 -19 5 -12 2 6 2 18 0 25 -3 6 -5 1 -5 -13z"/>
<path d="M11891 5454 c0 -11 3 -14 6 -6 3 7 2 16 -1 19 -3 4 -6 -2 -5 -13z"/>
<path d="M11866 5337 c-16 -57 -42 -97 -64 -97 -10 0 -9 -31 2 -48 4 -7 15
-11 24 -10 10 2 16 -3 14 -11 -2 -8 8 -37 21 -65 57 -118 77 -166 77 -178 1
-17 35 -58 49 -58 11 0 15 15 11 35 -6 29 -11 93 -14 168 -3 96 -8 107 -37
100 -19 -5 -21 -3 -17 20 3 17 1 27 -6 27 -7 0 -12 16 -13 37 -1 22 -8 42 -17
49 -13 9 -15 21 -10 53 10 61 -1 50 -20 -22z m34 -51 c0 -3 -4 -8 -10 -11 -5
-3 -10 -1 -10 4 0 6 5 11 10 11 6 0 10 -2 10 -4z m-20 -56 c0 -5 -6 -10 -14
-10 -8 0 -18 5 -21 10 -3 6 3 10 14 10 12 0 21 -4 21 -10z"/>
<path d="M11536 5372 c-4 -13 -5 -26 -2 -29 10 -11 18 4 14 29 l-4 23 -8 -23z"/>
<path d="M11766 5304 c-13 -33 -6 -49 9 -20 18 33 18 36 6 36 -5 0 -12 -7 -15
-16z"/>
<path d="M11243 5267 c-10 -21 -9 -28 8 -43 18 -16 19 -16 18 7 0 13 -4 32 -8
42 -6 17 -8 17 -18 -6z"/>
<path d="M11530 5130 c-12 -8 -11 -10 8 -10 12 0 22 5 22 10 0 13 -11 13 -30
0z"/>
<path d="M11550 5100 c0 -5 5 -10 10 -10 6 0 10 5 10 10 0 6 -4 10 -10 10 -5
0 -10 -4 -10 -10z"/>
<path d="M11550 5028 c1 -31 1 -32 15 -14 19 25 19 46 0 46 -10 0 -15 -10 -15
-32z"/>
<path d="M10597 5030 c-20 -11 -53 -20 -72 -20 -32 0 -35 -2 -35 -30 0 -35 7
-36 81 -13 57 17 79 35 79 65 0 23 -7 23 -53 -2z"/>
<path d="M12772 4985 c0 -16 2 -22 5 -12 2 9 2 23 0 30 -3 6 -5 -1 -5 -18z"/>
<path d="M9511 4991 c-8 -6 -9 -11 -3 -15 6 -3 14 -1 17 5 9 14 2 20 -14 10z"/>
<path d="M9966 4986 c3 -8 19 -19 36 -25 49 -17 54 -13 14 14 -42 28 -58 32
-50 11z"/>
<path d="M13466 4883 c-6 -14 -5 -15 5 -6 7 7 10 15 7 18 -3 3 -9 -2 -12 -12z"/>
<path d="M9728 4863 c-10 -2 -18 -9 -18 -14 0 -13 110 -7 113 6 2 11 -66 17
-95 8z"/>
<path d="M13052 4790 c0 -14 2 -19 5 -12 2 6 2 18 0 25 -3 6 -5 1 -5 -13z"/>
<path d="M13010 4780 c0 -5 7 -10 16 -10 8 0 12 5 9 10 -3 6 -10 10 -16 10 -5
0 -9 -4 -9 -10z"/>
<path d="M11493 4716 c4 -6 7 -27 7 -49 0 -23 4 -36 10 -32 16 10 12 51 -7 72
-10 10 -15 14 -10 9z"/>
<path d="M12941 4476 c-13 -14 -21 -31 -18 -38 4 -10 6 -10 6 1 1 8 11 25 23
38 12 13 19 23 16 23 -2 0 -15 -11 -27 -24z"/>
<path d="M12380 4445 c0 -25 90 -158 90 -134 1 23 -64 139 -77 139 -7 0 -13
-2 -13 -5z"/>
<path d="M12942 4375 c-31 -40 -36 -63 -17 -91 21 -32 31 -24 17 14 -8 24 -6
36 9 62 25 40 18 50 -9 15z"/>
<path d="M13000 4340 c-6 -11 -8 -20 -6 -20 3 0 10 9 16 20 6 11 8 20 6 20 -3
0 -10 -9 -16 -20z"/>
<path d="M11450 4327 c0 -21 6 -25 35 -29 53 -6 44 29 -12 46 -20 6 -23 4 -23
-17z"/>
<path d="M12550 4190 c0 -5 5 -10 10 -10 6 0 10 5 10 10 0 6 -4 10 -10 10 -5
0 -10 -4 -10 -10z"/>
<path d="M12091 4139 c-1 -23 2 -26 24 -21 29 5 34 22 6 22 -11 0 -22 6 -24
13 -3 6 -6 0 -6 -14z"/>
<path d="M12155 4130 c-3 -5 1 -10 9 -10 8 0 18 5 21 10 3 6 -1 10 -9 10 -8 0
-18 -4 -21 -10z"/>
<path d="M9759 4106 c-9 -12 -69 -46 -133 -76 -64 -29 -114 -55 -111 -58 8 -8
125 38 173 69 25 16 54 29 64 29 11 0 20 10 24 25 9 34 3 38 -17 11z"/>
<path d="M12997 4032 c-10 -10 -17 -23 -17 -28 0 -5 -16 -33 -35 -63 -19 -30
-33 -56 -31 -58 2 -2 15 1 29 8 19 8 32 30 51 82 13 40 24 73 22 74 -2 2 -10
-5 -19 -15z"/>
<path d="M13010 3910 c0 -20 -64 -92 -92 -103 -9 -4 -7 -6 5 -6 25 -1 21 -21
-5 -21 -13 0 -30 -5 -38 -11 -11 -7 -4 -9 25 -4 32 5 45 2 63 -15 29 -28 28
-34 -7 -27 -29 6 -49 -13 -35 -34 3 -5 -1 -9 -9 -9 -8 0 -20 -6 -26 -14 -9
-11 -6 -15 16 -21 15 -3 23 -9 17 -13 -9 -7 -34 -48 -34 -57 0 -3 7 -5 16 -5
12 0 15 -6 10 -25 -5 -18 -2 -27 9 -32 9 -3 14 -11 11 -19 -3 -7 -2 -14 2 -16
4 -2 27 -27 51 -55 24 -29 51 -53 60 -53 13 -1 13 -3 -3 -15 -16 -12 -22 -12
-35 -2 -12 10 -14 9 -8 -5 3 -9 2 -19 -4 -22 -5 -2 -4 -3 3 -2 21 5 53 -15 39
-24 -9 -5 0 -17 28 -39 24 -19 38 -38 35 -46 -3 -7 4 -23 15 -34 27 -27 28
-61 1 -61 -25 0 -27 -30 -2 -31 9 -1 24 -2 31 -3 9 0 20 -20 26 -46 l11 -45
16 25 c9 14 19 59 23 100 6 71 9 79 46 117 22 23 54 72 71 109 27 57 31 77 31
148 -1 68 -5 91 -26 132 -33 64 -152 174 -188 174 -7 0 -21 8 -31 17 -11 10
-34 17 -51 18 -25 0 -33 5 -35 23 -2 12 -8 20 -13 16 -6 -3 -8 5 -5 20 3 14 0
28 -5 31 -5 4 -9 -3 -9 -15z m94 -185 c-6 -16 -24 -21 -24 -7 0 11 11 22 21
22 5 0 6 -7 3 -15z m-99 -85 c3 -5 1 -10 -4 -10 -6 0 -11 5 -11 10 0 6 2 10 4
10 3 0 8 -4 11 -10z m20 -160 c3 -5 1 -10 -4 -10 -6 0 -11 5 -11 10 0 6 2 10
4 10 3 0 8 -4 11 -10z m45 0 c8 -5 12 -12 9 -15 -8 -8 -39 5 -39 16 0 11 11
11 30 -1z m89 -59 c11 -7 9 -10 -8 -16 -26 -8 -111 4 -111 16 0 12 101 11 119
0z m-59 -75 c0 -11 -19 -15 -25 -6 -3 5 1 10 9 10 9 0 16 -2 16 -4z"/>
<path d="M10044 3813 c4 -25 -23 -63 -44 -63 -12 0 -19 -10 -22 -27 -3 -16 -7
-35 -9 -43 -3 -10 5 -16 24 -18 31 -4 34 -10 10 -28 -22 -15 -12 -28 15 -20
42 14 92 113 92 183 0 31 -2 33 -34 33 -27 0 -34 -4 -32 -17z"/>
<path d="M10440 3806 c0 -30 36 -113 52 -118 7 -3 4 -22 -11 -61 -11 -32 -21
-63 -20 -70 0 -7 4 -3 8 8 6 16 16 19 55 16 27 -1 62 -11 80 -22 44 -27 56
-24 56 13 0 20 -15 54 -41 94 -22 35 -40 73 -39 86 1 13 1 26 0 31 -4 12 -7
27 -9 37 0 6 -30 10 -66 10 -62 0 -65 -1 -65 -24z m80 -175 c0 -6 -4 -13 -10
-16 -5 -3 -10 1 -10 9 0 9 5 16 10 16 6 0 10 -4 10 -9z"/>
<path d="M11823 3693 c-38 -44 -40 -49 -26 -65 15 -16 15 -18 0 -18 -9 0 -19
5 -22 10 -5 9 -52 4 -64 -6 -3 -2 6 -15 19 -29 47 -50 143 -57 175 -12 23 33
20 122 -5 147 -11 11 -24 20 -28 20 -4 0 -27 -21 -49 -47z m7 -103 c0 -5 -4
-10 -10 -10 -5 0 -10 5 -10 10 0 6 5 10 10 10 6 0 10 -4 10 -10z"/>
<path d="M10653 3493 c-20 -8 -15 -23 7 -23 11 0 20 -6 20 -14 0 -13 28 -31
36 -23 2 2 -3 18 -12 35 -15 31 -25 36 -51 25z"/>
<path d="M13590 3444 c-25 -8 -54 -21 -64 -29 -18 -14 -18 -15 1 -62 11 -27
31 -123 44 -218 20 -143 25 -164 33 -137 8 28 26 45 26 24 0 -5 7 -17 15 -28
13 -17 14 -2 15 140 l0 159 -45 -5 c-57 -7 -57 3 0 66 32 34 45 57 45 77 0 33
-6 34 -70 13z"/>
<path d="M10565 3330 c-3 -5 -1 -10 4 -10 6 0 11 5 11 10 0 6 -2 10 -4 10 -3
0 -8 -4 -11 -10z"/>
<path d="M13060 3220 c0 -5 5 -10 11 -10 5 0 7 5 4 10 -3 6 -8 10 -11 10 -2 0
-4 -4 -4 -10z"/>
<path d="M12860 3195 c0 -5 9 -21 20 -35 11 -14 20 -20 20 -15 0 6 -9 21 -20
35 -11 14 -20 21 -20 15z"/>
<path d="M10415 3170 c-3 -5 -1 -10 4 -10 6 0 11 5 11 10 0 6 -2 10 -4 10 -3
0 -8 -4 -11 -10z"/>
<path d="M13100 3161 c0 -12 5 -21 10 -21 6 0 10 6 10 14 0 8 -4 18 -10 21 -5
3 -10 -3 -10 -14z"/>
<path d="M13070 3110 c0 -5 5 -10 10 -10 6 0 10 5 10 10 0 6 -4 10 -10 10 -5
0 -10 -4 -10 -10z"/>
<path d="M13626 2935 c4 -10 0 -15 -15 -15 -31 0 -28 -43 5 -69 15 -12 31 -21
35 -21 14 0 11 94 -3 108 -17 17 -29 15 -22 -3z"/>
<path d="M11506 2701 c-4 -7 -5 -15 -2 -18 9 -9 19 4 14 18 -4 11 -6 11 -12 0z"/>
<path d="M11650 2665 c7 -9 15 -13 17 -11 7 7 -7 26 -19 26 -6 0 -6 -6 2 -15z"/>
<path d="M11670 2614 c0 -8 5 -12 10 -9 6 4 8 11 5 16 -9 14 -15 11 -15 -7z"/>
<path d="M10180 2069 c-200 -41 -346 -245 -310 -436 30 -167 156 -293 323
-323 153 -29 329 64 400 210 67 138 53 279 -41 407 -78 105 -243 169 -372 142z
m290 -329 l0 -170 -50 0 -50 0 0 -50 0 -50 -170 0 -170 0 0 170 0 170 50 0 50
0 0 50 0 50 170 0 170 0 0 -170z"/>
<path d="M10150 1740 l0 -150 150 0 150 0 0 150 0 150 -150 0 -150 0 0 -150z
m160 55 l0 -45 45 0 c25 0 45 -4 45 -10 0 -5 -20 -10 -45 -10 l-45 0 0 -45 c0
-25 -4 -45 -10 -45 -5 0 -10 20 -10 45 l0 45 -45 0 c-25 0 -45 5 -45 10 0 6
20 10 45 10 l45 0 0 45 c0 25 5 45 10 45 6 0 10 -20 10 -45z"/>
<path d="M10050 1640 l0 -150 150 0 150 0 0 40 0 40 -110 0 -110 0 0 110 0
110 -40 0 -40 0 0 -150z"/>
<path d="M6085 1781 c26 -28 30 -41 33 -101 6 -93 -3 -132 -36 -165 -19 -20
-21 -25 -7 -17 64 33 98 121 76 200 -12 48 -40 86 -76 104 -14 7 -11 1 10 -21z"/>
<path d="M5280 1794 c9 -3 40 -67 74 -156 50 -129 60 -148 68 -129 6 18 -4 55
-43 157 -52 133 -52 134 -83 133 -17 -1 -24 -3 -16 -5z"/>
<path d="M5540 1793 c-1 -5 -1 -74 0 -155 1 -145 1 -147 -22 -151 -13 -2 4 -4
37 -4 33 0 50 2 38 4 -23 4 -23 7 -23 153 0 109 3 150 13 153 6 3 0 6 -15 6
-16 1 -28 -2 -28 -6z"/>
<path d="M5921 1779 c-52 -49 -65 -141 -32 -216 11 -23 29 -46 40 -53 l21 -11
-20 33 c-29 47 -29 189 0 236 23 38 22 39 -9 11z"/>
<path d="M8084 1758 l-17 -33 26 24 c15 13 24 28 21 32 -8 14 -13 11 -30 -23z"/>
<path d="M5671 1766 c-9 -10 -8 -16 3 -25 10 -9 16 -8 25 3 9 10 8 16 -3 25
-10 9 -16 8 -25 -3z"/>
<path d="M7103 1773 c-18 -6 -16 -30 2 -37 9 -3 18 1 22 10 7 18 -7 33 -24 27z"/>
<path d="M7863 1764 c-8 -21 13 -42 28 -27 13 13 5 43 -11 43 -6 0 -13 -7 -17
-16z"/>
<path d="M6548 1695 c5 -28 22 -24 22 6 0 10 -6 19 -14 19 -9 0 -12 -8 -8 -25z"/>
<path d="M5663 1683 c15 -4 17 -17 17 -98 0 -81 -2 -94 -17 -98 -10 -3 2 -5
27 -5 25 0 39 2 33 5 -9 3 -13 34 -13 104 l0 99 -32 -1 c-18 -1 -25 -3 -15 -6z"/>
<path d="M6213 1683 c15 -4 17 -17 17 -98 0 -65 -4 -95 -12 -98 -7 -3 7 -5 32
-5 25 0 37 2 28 5 -16 4 -18 18 -18 104 l0 99 -32 -1 c-18 -1 -25 -3 -15 -6z"/>
<path d="M6310 1681 c0 -6 5 -13 10 -16 6 -4 8 -11 5 -16 -4 -5 1 -9 9 -9 21
0 21 36 0 44 -21 8 -24 8 -24 -3z"/>
<path d="M6838 1683 c8 -3 12 -33 12 -98 0 -81 -2 -94 -17 -98 -10 -3 2 -5 27
-5 25 0 39 2 33 5 -9 3 -13 34 -13 104 l0 99 -27 -1 c-16 0 -22 -3 -15 -6z"/>
<path d="M7093 1683 c15 -4 17 -17 17 -98 0 -81 -2 -94 -17 -98 -10 -3 2 -5
27 -5 25 0 37 2 28 5 -16 4 -18 18 -18 104 l0 99 -27 -1 c-17 -1 -21 -3 -10
-6z"/>
<path d="M7200 1663 c1 -27 1 -27 15 -9 19 25 19 36 0 36 -10 0 -15 -10 -15
-27z"/>
<path d="M7262 1592 c-34 -55 -62 -102 -62 -105 0 -4 36 -7 80 -7 l80 0 0 33
-1 32 -15 -27 c-13 -25 -20 -28 -64 -28 l-50 0 65 100 c50 77 61 100 47 100
-11 0 -40 -36 -80 -98z"/>
<path d="M7853 1683 c15 -4 17 -17 17 -98 0 -81 -2 -94 -17 -98 -10 -3 5 -5
32 -5 28 0 42 2 33 5 -16 4 -18 18 -18 104 l0 99 -32 -1 c-18 -1 -25 -3 -15
-6z"/>
<path d="M8218 1683 c8 -3 12 -33 12 -98 0 -81 -2 -94 -17 -98 -10 -3 2 -5 27
-5 25 0 39 2 33 5 -9 3 -13 34 -13 104 l0 99 -27 -1 c-16 0 -22 -3 -15 -6z"/>
<path d="M6406 1658 c-21 -29 -20 -51 2 -77 17 -22 17 -21 17 38 0 34 -1 61
-2 61 -1 0 -9 -10 -17 -22z"/>
<path d="M6508 1634 c3 -27 0 -50 -8 -59 -8 -10 -9 -15 -1 -15 6 0 18 11 27
25 18 27 12 80 -10 88 -10 4 -12 -5 -8 -39z"/>
<path d="M6628 1669 c-23 -13 -24 -52 -1 -47 10 2 17 13 17 31 1 15 2 27 1 27
0 0 -8 -5 -17 -11z"/>
<path d="M6728 1641 c4 -35 1 -40 -20 -44 -23 -4 -23 -4 0 -6 19 -1 22 -7 22
-40 0 -39 20 -72 43 -70 9 0 8 2 0 6 -9 3 -13 29 -13 79 0 70 -11 114 -28 114
-4 0 -6 -18 -4 -39z"/>
<path d="M6989 1589 c2 -69 0 -94 -10 -100 -9 -6 0 -8 26 -8 22 0 34 3 28 6
-9 3 -13 29 -13 79 0 70 -11 114 -28 114 -4 0 -5 -41 -3 -91z"/>
<path d="M7432 1668 c-17 -17 -15 -48 2 -48 10 0 14 10 14 30 -1 35 0 34 -16
18z"/>
<path d="M7530 1661 c19 -36 12 -59 -17 -64 l-28 -4 29 -2 c26 -1 28 -3 24
-33 -6 -40 -2 -55 20 -67 15 -8 16 -1 11 74 -5 77 -18 115 -41 115 -5 0 -4 -9
2 -19z"/>
<path d="M7669 1667 c-51 -39 -51 -132 1 -165 17 -10 18 -10 4 16 -19 36 -18
112 2 140 17 25 16 27 -7 9z"/>
<path d="M7767 1669 c7 -8 10 -25 6 -37 -4 -16 -1 -22 11 -22 25 0 20 47 -6
61 -20 11 -21 10 -11 -2z"/>
<path d="M8115 1655 c8 -16 15 -48 15 -70 0 -22 -7 -53 -15 -70 l-15 -30 30
33 c21 23 30 42 30 67 0 25 -9 44 -30 67 l-30 33 15 -30z"/>
<path d="M8369 1589 c2 -69 0 -94 -10 -100 -9 -6 0 -8 26 -8 22 0 34 3 28 6
-9 3 -13 29 -13 79 0 70 -11 114 -28 114 -4 0 -5 -41 -3 -91z"/>
<path d="M7986 1648 c-25 -39 -24 -96 2 -127 16 -21 17 -20 17 63 0 48 -1 86
-2 86 -2 0 -9 -10 -17 -22z"/>
<path d="M6622 1574 c-30 -21 -29 -59 3 -80 14 -9 29 -14 33 -10 4 4 -1 12
-11 17 -20 11 -23 59 -5 77 17 17 7 15 -20 -4z"/>
<path d="M7428 1576 c-11 -8 -18 -26 -18 -45 0 -25 6 -34 26 -41 32 -12 34
-12 34 0 0 6 -6 10 -14 10 -23 0 -30 38 -12 65 18 27 11 32 -16 11z"/>
<path d="M6400 1523 c0 -12 6 -25 13 -30 14 -9 137 -21 137 -13 -1 22 -25 34
-77 38 -32 3 -61 10 -65 16 -5 6 -8 2 -8 -11z"/>
<path d="M5260 1490 c-11 -7 -4 -10 25 -10 29 0 36 3 25 10 -8 5 -19 10 -25
10 -5 0 -17 -5 -25 -10z"/>
<path d="M6393 1453 c-28 -11 -7 -63 25 -63 12 0 12 3 2 15 -7 8 -10 24 -7 35
5 20 2 22 -20 13z"/>
<path d="M4980 1080 c0 -20 7 -20 1850 -20 1843 0 1850 0 1850 20 0 20 -7 20
-1850 20 -1843 0 -1850 0 -1850 -20z"/>
<path d="M12793 453 c64 -2 170 -2 235 0 64 1 11 3 -118 3 -129 0 -182 -2
-117 -3z"/>
<path d="M12664 325 c0 -66 1 -92 3 -57 2 34 2 88 0 120 -2 31 -3 3 -3 -63z"/>
<path d="M13154 325 c0 -66 1 -92 3 -57 2 34 2 88 0 120 -2 31 -3 3 -3 -63z"/>
<path d="M12710 325 l0 -75 200 0 200 0 0 75 0 75 -200 0 -200 0 0 -75z m390
0 l0 -65 -190 0 -190 0 0 65 0 65 190 0 190 0 0 -65z"/>
<path d="M12793 193 c64 -2 170 -2 235 0 64 1 11 3 -118 3 -129 0 -182 -2
-117 -3z"/>
</g>
</svg>
