<?xml version="1.0" standalone="no"?>
<!DOCTYPE svg PUBLIC "-//W3C//DTD SVG 20010904//EN"
 "http://www.w3.org/TR/2001/REC-SVG-20010904/DTD/svg10.dtd">
<svg version="1.0" xmlns="http://www.w3.org/2000/svg"
 width="1366.000000pt" height="685.000000pt" viewBox="0 0 1366.000000 685.000000"
 preserveAspectRatio="xMidYMid meet">

<g transform="translate(0.000000,685.000000) scale(0.100000,-0.100000)"
fill="#000000" stroke="none">
<path d="M0 3090 l0 -3090 6830 0 6830 0 0 3090 0 3090 -6830 0 -6830 0 0
-3090z m3900 2709 l0 -60 33 25 c21 16 47 26 67 26 l34 0 -32 -33 c-18 -18
-32 -36 -32 -41 0 -4 16 -28 36 -52 l36 -44 -36 0 c-29 0 -43 7 -63 30 -28 33
-43 31 -43 -6 0 -20 -5 -24 -30 -24 l-30 0 0 120 0 120 30 0 30 0 0 -61z
m-1669 34 c5 -5 7 -17 4 -25 -5 -12 -20 -15 -58 -14 -70 1 -69 -20 2 -44 57
-19 71 -32 71 -67 0 -51 -76 -83 -150 -63 -34 9 -41 15 -38 33 2 17 8 21 28
18 14 -2 41 -5 60 -5 53 -1 46 26 -11 44 -60 20 -79 36 -79 70 0 46 43 73 108
68 29 -3 57 -9 63 -15z m1114 3 c31 -13 35 -20 35 -50 0 -19 -5 -38 -11 -42
-8 -5 -6 -10 5 -16 10 -6 16 -22 16 -43 0 -51 -27 -65 -127 -65 l-83 0 0 115
0 115 65 0 c36 0 81 -7 100 -14z m-335 -26 c0 -15 7 -20 25 -20 18 0 25 -5 25
-20 0 -15 -7 -20 -26 -20 -23 0 -25 -3 -22 -42 2 -34 7 -44 23 -47 22 -4 36
-21 29 -33 -9 -14 -81 -9 -94 7 -7 9 -15 38 -18 65 -2 28 -8 50 -13 50 -5 0
-9 9 -9 20 0 11 5 20 10 20 6 0 10 9 10 20 0 16 7 20 30 20 23 0 30 -4 30 -20z
m-594 -24 c17 -12 22 -12 39 0 27 20 58 17 89 -7 24 -19 26 -27 26 -90 l0 -69
-30 0 -30 0 0 60 c0 45 -4 62 -15 66 -28 11 -45 -16 -45 -72 0 -53 0 -54 -30
-54 l-30 0 0 60 c0 45 -4 62 -15 66 -28 11 -45 -16 -45 -72 0 -53 0 -54 -30
-54 l-30 0 0 84 0 85 48 4 c26 2 54 4 62 5 9 1 25 -4 36 -12z m336 -16 c13
-16 18 -40 18 -86 l0 -64 -73 0 c-80 0 -97 9 -97 50 0 37 18 50 68 50 31 0 42
4 39 13 -2 7 -21 12 -46 12 -54 0 -73 24 -33 43 38 17 103 8 124 -18z m168 5
c0 -15 -6 -25 -14 -25 -29 0 -46 -30 -46 -81 0 -48 -1 -49 -30 -49 l-30 0 0
85 0 86 40 -3 c22 -1 43 1 46 5 16 15 34 6 34 -18z m641 -1 c15 -14 19 -31 19
-85 l0 -67 -70 -1 c-73 -1 -100 12 -100 49 0 30 28 50 72 50 27 0 38 4 35 13
-2 7 -20 11 -46 10 -22 -1 -42 2 -42 8 -5 28 -2 34 21 40 36 11 89 3 111 -17z
m202 15 c33 -18 37 -28 37 -101 l0 -68 -30 0 -30 0 0 60 c0 45 -4 62 -15 66
-28 11 -45 -16 -45 -72 0 -53 0 -54 -30 -54 l-30 0 0 85 0 85 40 -2 c22 -1 43
2 47 5 10 10 32 8 56 -4z m-1353 -774 c18 -22 5 -30 -48 -30 -47 0 -47 0 -50
-37 -4 -46 22 -65 63 -46 21 10 29 9 42 -5 16 -15 14 -18 -22 -33 -52 -21
-108 -6 -130 36 -21 41 -19 64 11 99 22 27 32 31 74 31 30 0 52 -5 60 -15z
m560 -10 c0 -8 7 -15 15 -15 8 0 15 -9 15 -20 0 -11 -7 -20 -15 -20 -24 0 -20
-56 5 -63 26 -7 26 -24 0 -32 -35 -11 -70 20 -70 60 0 19 -4 35 -10 35 -5 0
-10 9 -10 20 0 11 5 20 10 20 6 0 10 7 10 15 0 9 9 15 25 15 16 0 25 -6 25
-15z m-245 -38 c30 -42 20 -57 -37 -57 -28 0 -48 -3 -44 -7 4 -5 24 -8 43 -8
45 0 54 -19 15 -33 -78 -27 -142 41 -97 105 26 36 95 36 120 0z m162 -8 c7
-13 13 -41 13 -61 0 -36 -2 -38 -30 -38 -29 0 -30 2 -30 45 0 38 -3 45 -20 45
-17 0 -20 -7 -20 -45 0 -41 -2 -45 -25 -45 -24 0 -25 2 -25 64 l0 65 43 3 c56
4 79 -4 94 -33z m248 8 c8 -12 15 -40 15 -63 l0 -41 -47 -6 c-55 -6 -93 11
-93 43 0 21 28 40 59 40 12 0 21 5 21 10 0 6 -15 9 -32 8 -40 -4 -46 23 -8 32
37 9 69 0 85 -23z m-655 -8 c0 -17 5 -39 11 -50 16 -30 39 -5 39 42 0 35 3 39
25 39 24 0 25 -2 25 -65 0 -64 0 -65 -27 -65 -16 0 -38 -3 -50 -6 -37 -10 -73
35 -73 91 0 41 2 45 25 45 21 0 25 -5 25 -31z m6473 -33 c7 -8 24 -12 39 -9
14 3 29 0 33 -7 4 -7 11 -8 18 -2 18 14 94 25 101 14 3 -5 17 -7 31 -4 14 2
32 -1 40 -8 10 -9 15 -9 15 -1 0 6 7 11 15 11 9 0 15 -9 15 -25 0 -14 5 -25
10 -25 6 0 10 11 10 25 0 24 2 25 63 25 36 0 68 -5 75 -12 9 -9 12 -9 12 1 0
8 13 12 38 10 20 -1 45 2 55 6 10 4 23 3 29 -3 6 -6 23 -9 38 -6 32 7 55 -16
45 -46 -5 -17 -15 -20 -61 -20 -49 0 -54 2 -55 23 l-2 22 -4 -22 c-5 -28 -33
-30 -33 -3 0 11 -4 20 -10 20 -5 0 -10 -9 -10 -21 0 -18 -5 -20 -52 -17 -43 2
-53 6 -52 21 1 9 -2 17 -7 17 -5 0 -9 -9 -9 -19 0 -19 -9 -20 -185 -20 -163 0
-186 2 -195 17 -11 16 -11 16 -6 0 6 -21 -14 -24 -32 -6 -9 9 -12 9 -12 0 0
-7 -7 -12 -15 -12 -11 0 -15 12 -15 45 0 43 1 45 29 45 16 0 36 -6 44 -14z
m-1154 -83 c1 22 6 27 26 27 19 0 25 -5 26 -22 l0 -23 11 23 c12 24 37 29 56
10 15 -15 16 -74 2 -83 -5 -3 -10 -20 -10 -36 0 -18 -4 -28 -10 -24 -6 4 -9
-12 -9 -42 2 -47 2 -47 9 -13 l7 35 2 -38 c1 -32 -2 -38 -16 -35 -15 3 -18 15
-19 73 0 39 -4 79 -9 89 -16 36 -35 -11 -35 -85 0 -38 -5 -71 -11 -75 -13 -8
-36 13 -25 23 4 4 11 1 16 -7 7 -10 9 1 8 35 -1 36 -2 41 -5 18 -2 -18 -9 -33
-15 -33 -7 0 -9 19 -5 55 3 30 1 57 -4 60 -5 4 -8 27 -8 53 1 42 2 44 9 17 l8
-30 1 28z m191 7 c0 -22 -15 -27 -23 -7 -3 6 -5 -13 -5 -43 1 -40 2 -45 5 -17
8 75 23 34 23 -64 0 -90 -2 -100 -17 -97 -14 3 -18 14 -19 56 -1 29 -4 55 -7
59 -11 10 -8 92 3 114 14 25 40 25 40 -1z m963 -77 c19 -17 20 -17 14 0 -4 11
-1 17 8 17 8 0 12 -6 10 -12 -4 -10 15 -13 77 -11 108 2 118 -2 118 -38 l0
-29 -110 0 c-107 0 -110 1 -110 22 0 17 -3 19 -12 10 -7 -7 -20 -12 -30 -12
-10 0 -18 -4 -18 -10 0 -5 -4 -10 -10 -10 -5 0 -10 20 -10 45 0 42 2 45 27 45
14 0 35 -8 46 -17z m294 -3 c7 -26 29 -26 36 1 9 33 27 12 27 -32 0 -28 -4
-39 -15 -39 -8 0 -15 7 -15 15 0 8 -7 15 -15 15 -8 0 -15 -7 -15 -15 0 -8 -7
-15 -15 -15 -11 0 -15 12 -15 45 0 46 17 62 27 25z m1341 -27 c2 -34 0 -43
-12 -43 -11 0 -16 11 -18 38 l-1 37 -4 -37 c-5 -47 -33 -54 -33 -9 0 16 -3 37
-6 46 -6 14 0 16 32 13 38 -3 39 -4 42 -45z m90 5 c-3 -39 -6 -43 -30 -46 -16
-2 -28 2 -28 8 0 6 8 10 18 8 12 -2 18 5 20 25 2 19 -1 27 -12 27 -9 0 -16 5
-16 10 0 6 12 10 26 10 23 0 25 -3 22 -42z m32 15 c0 -16 4 -34 9 -42 14 -22
31 -3 31 35 0 19 5 34 11 34 6 0 9 -17 7 -42 -3 -39 -6 -43 -32 -46 -16 -2
-32 2 -37 10 -12 18 -11 78 1 78 6 0 10 -12 10 -27z m117 0 l22 -28 1 28 c0
15 5 27 10 27 6 0 10 -20 10 -45 0 -25 -3 -45 -7 -45 -4 0 -17 10 -30 22 l-23
21 0 -21 c0 -12 -4 -22 -10 -22 -5 0 -10 20 -10 45 0 25 3 45 7 45 4 0 17 -12
30 -27z m-1397 6 c11 -8 12 -12 3 -16 -19 -7 -16 -41 5 -47 10 -3 7 -4 -8 -3
-16 1 -26 10 -31 27 -7 25 -7 25 -8 -3 -1 -26 -4 -28 -33 -25 -29 3 -33 7 -36
37 -2 21 0 31 7 26 6 -3 11 -18 11 -31 0 -34 24 -26 28 9 2 18 8 24 18 20 8
-3 14 0 14 6 0 14 11 14 30 0z m-501 -133 c9 -11 9 -15 -1 -18 -10 -4 -10 -8
2 -23 14 -16 16 -15 42 16 15 18 31 30 34 26 4 -4 -1 -16 -11 -27 -10 -11 -15
-23 -12 -27 4 -3 7 -1 7 5 0 16 27 15 33 0 2 -7 2 -19 -1 -25 -5 -15 -32 -17
-32 -3 0 17 -35 11 -58 -10 l-22 -21 -22 22 c-18 17 -19 21 -5 16 21 -8 22 9
2 30 -14 14 -14 17 1 34 20 23 28 24 43 5z m161 -6 c0 -5 -9 -10 -20 -10 -11
0 -20 -4 -20 -10 0 -5 11 -10 25 -10 15 0 25 6 25 14 0 8 10 18 22 22 26 8 62
-29 53 -56 -3 -11 0 -17 10 -17 10 0 15 10 15 27 0 14 5 31 12 38 17 17 47 15
54 -3 5 -13 8 -13 21 0 21 22 40 18 58 -9 13 -19 14 -29 5 -45 -11 -22 -54
-29 -65 -11 -4 7 -11 8 -18 2 -15 -12 -237 -13 -237 -1 0 5 8 8 18 6 9 -1 19
3 22 8 3 6 -5 11 -17 13 -22 3 -31 30 -16 45 10 11 53 8 53 -3z m-44 -380 c10
0 14 -13 14 -45 l0 -45 -55 0 c-50 0 -55 2 -56 23 l0 22 -9 -22 c-9 -22 -26
-28 -60 -23 -21 3 -30 20 -30 58 0 43 28 44 32 0 4 -46 28 -49 28 -4 0 25 4
36 15 36 8 0 15 -4 15 -10 0 -5 7 -7 15 -4 8 4 23 0 32 -7 15 -12 16 -12 11 3
-8 20 1 30 20 23 7 -3 20 -5 28 -5z m54 -14 c0 -22 2 -23 25 -13 14 7 25 15
25 20 0 4 9 7 20 7 11 0 20 -6 20 -14 0 -9 8 -12 24 -9 13 3 26 0 30 -5 7 -11
66 7 66 20 0 4 7 8 15 8 8 0 15 -9 15 -20 0 -18 2 -19 20 -8 16 10 24 10 40 1
12 -8 21 -9 25 -3 3 6 17 10 29 10 18 0 25 -7 29 -27 3 -16 3 -31 1 -35 -3 -4
-97 -7 -209 -7 l-205 1 0 49 c0 37 4 49 15 49 9 0 15 -9 15 -24z m-1265 -76
c4 -6 13 -5 24 2 16 10 27 4 74 -36 l55 -48 -5 -62 c-7 -71 -17 -88 -52 -84
-18 2 -27 10 -29 26 -2 16 -10 22 -27 22 -17 0 -25 -6 -27 -22 -4 -27 -48 -37
-65 -16 -15 17 -27 212 -13 203 6 -3 7 0 4 9 -5 12 1 16 24 16 17 0 34 -4 37
-10z m150 -15 c0 -13 -7 -20 -20 -20 -18 0 -27 19 -17 38 8 16 37 1 37 -18z
m942 -60 c2 -6 -9 -11 -24 -10 -23 0 -28 -4 -28 -25 0 -21 4 -25 28 -23 15 1
27 -2 27 -8 0 -13 -54 -11 -68 3 -18 18 -15 55 6 67 20 13 54 10 59 -4z m473
-5 c0 -18 3 -19 20 -8 26 17 55 -9 45 -40 -5 -19 -13 -21 -73 -19 -64 2 -67 3
-67 27 0 16 8 28 23 35 12 5 22 13 22 17 0 5 7 8 15 8 8 0 15 -9 15 -20z m130
-25 c0 -25 -4 -45 -10 -45 -5 0 -10 20 -10 45 0 25 5 45 10 45 6 0 10 -20 10
-45z m1059 31 c7 -8 11 -27 9 -43 -3 -24 -8 -28 -38 -30 -19 -1 -26 1 -15 4
31 8 42 23 17 23 -24 0 -38 21 -28 45 7 19 40 19 55 1z m96 -31 c0 -36 -3 -40
-27 -43 -17 -2 -28 2 -28 8 0 7 7 10 15 6 11 -4 15 2 15 24 0 17 -4 30 -10 30
-5 0 -10 5 -10 11 0 6 10 9 23 7 19 -3 22 -9 22 -43z m37 8 c2 -26 8 -38 18
-38 10 0 16 12 18 38 2 20 8 37 13 37 6 0 9 -19 7 -42 -3 -42 -4 -43 -38 -43
-34 0 -35 1 -38 43 -2 23 1 42 7 42 5 0 11 -17 13 -37z m113 10 l24 -28 1 28
c0 15 5 27 10 27 6 0 10 -20 10 -45 0 -50 -12 -57 -41 -22 l-18 22 -1 -22 c0
-14 -6 -23 -15 -23 -11 0 -15 11 -15 38 0 35 6 52 17 52 2 0 15 -12 28 -27z
m-1635 6 c11 -8 12 -12 3 -16 -15 -5 -18 -43 -4 -43 6 0 13 5 16 11 4 6 17 14
29 19 20 8 20 9 -3 9 -18 1 -22 4 -14 12 20 20 53 0 53 -32 0 -30 0 -30 -52
-27 -46 3 -53 6 -59 28 l-7 25 -1 -27 c-1 -35 -21 -37 -21 -3 0 16 -6 25 -15
25 -9 0 -15 -9 -15 -25 0 -28 -19 -35 -21 -7 -1 16 -2 16 -6 0 -5 -21 -63 -26
-63 -5 0 9 -2 9 -9 -1 -5 -8 -21 -12 -37 -10 -25 3 -29 8 -32 37 -2 21 0 31 7
26 6 -3 11 -18 11 -31 0 -35 24 -25 30 12 4 19 8 25 13 16 6 -8 14 -9 27 -2
21 11 50 4 50 -14 0 -6 5 -3 11 7 9 15 18 17 45 12 21 -3 34 -2 34 5 0 13 11
13 30 -1z m375 -54 c6 0 11 12 13 28 4 34 22 26 22 -11 0 -25 1 -26 18 -8 12
13 14 20 5 23 -22 8 -14 23 11 23 34 0 39 -14 15 -36 l-21 -19 24 -7 c12 -3
-8 -6 -47 -5 -59 2 -70 5 -73 20 -2 10 0 26 4 35 6 13 8 11 13 -13 3 -16 11
-30 16 -30z m-671 -72 c4 -4 23 -6 43 -4 32 2 35 1 30 -18 -8 -34 14 -37 39
-6 13 16 26 26 30 22 4 -4 -1 -16 -11 -27 -10 -11 -15 -23 -12 -27 4 -3 7 -1
7 5 0 16 30 15 31 0 1 -7 4 -2 8 11 8 29 33 46 54 38 22 -8 32 -53 17 -72 -15
-18 -51 -20 -68 -3 -9 9 -12 9 -12 0 0 -7 -7 -12 -15 -12 -8 0 -15 5 -15 10 0
6 -9 10 -19 10 -11 0 -23 -4 -26 -10 -3 -5 -23 -10 -44 -10 -20 0 -42 -5 -49
-12 -9 -9 -12 -9 -12 0 0 7 -7 12 -15 12 -8 0 -15 5 -15 11 0 6 7 9 15 5 9 -3
15 0 15 9 0 8 -5 15 -10 15 -20 0 -23 31 -4 45 22 17 28 18 38 8z m333 -14 c8
-8 16 -7 30 2 39 24 71 -8 59 -56 -5 -19 -13 -25 -35 -25 -16 0 -32 6 -35 13
-5 10 -7 10 -12 0 -8 -19 -61 -16 -68 3 -20 52 25 99 61 63z m-72 -69 c3 -5
-1 -10 -10 -10 -9 0 -13 5 -10 10 3 6 8 10 10 10 2 0 7 -4 10 -10z m-6547
-383 c3 -92 2 -97 -18 -97 -19 0 -20 6 -20 93 0 52 3 97 7 101 19 19 28 -8 31
-97z m170 0 c3 -95 2 -97 -20 -97 -13 0 -39 0 -58 0 -42 -1 -70 28 -70 71 0
44 33 72 81 67 38 -3 39 -3 39 30 0 22 4 32 13 30 8 -3 13 -35 15 -101z m410
0 l3 -96 -33 -1 c-18 0 -44 -1 -57 -1 -33 -1 -64 34 -64 72 0 43 35 72 80 67
30 -4 33 -2 33 22 0 30 8 42 24 37 7 -2 12 -43 14 -100z m68 92 c10 -17 -13
-36 -27 -22 -12 12 -4 33 11 33 5 0 12 -5 16 -11z m706 -21 c-9 -9 -15 -9 -24
0 -10 10 -10 15 2 22 20 12 38 -6 22 -22z m76 -4 c3 -28 5 -30 38 -26 68 8
111 -71 64 -118 -19 -19 -41 -26 -65 -20 -5 1 -22 2 -37 2 l-28 -1 0 101 c0
75 3 99 13 96 6 -3 13 -18 15 -34z m180 -67 c3 -92 2 -97 -18 -97 -19 0 -20 6
-20 93 0 52 3 97 7 101 19 19 28 -8 31 -97z m-1852 83 c37 -14 22 -25 -34 -25
-40 0 -47 -3 -47 -19 0 -14 13 -24 50 -36 42 -14 51 -21 53 -44 4 -33 -10 -52
-45 -59 -37 -7 -93 11 -93 30 0 11 5 13 18 7 9 -4 33 -8 52 -8 29 -1 35 3 35
19 0 14 -11 24 -39 33 -54 17 -68 31 -64 61 5 42 59 61 114 41z m6572 -29 c3
-10 -2 -11 -18 -6 -14 4 -20 3 -16 -3 10 -17 44 -21 50 -6 7 17 38 18 54 2 9
-9 12 -7 12 10 0 13 6 22 15 22 11 0 15 -12 15 -45 l0 -46 -62 2 c-35 1 -67 0
-73 -1 -21 -5 -45 0 -45 10 0 6 10 10 23 11 l22 0 -22 11 c-22 11 -30 37 -16
52 12 11 56 2 61 -13z m282 -25 l0 -45 -80 0 -80 0 0 34 c0 44 29 50 31 8 1
-28 1 -28 8 -3 6 20 13 24 46 26 21 0 41 6 43 12 2 7 10 12 18 12 10 0 14 -13
14 -44z m-6696 -8 c9 -13 16 -43 16 -69 l0 -47 -41 -4 c-47 -4 -82 10 -87 35
-6 28 17 47 54 47 24 0 34 5 34 15 0 22 -27 30 -55 17 -29 -13 -44 2 -18 17
32 19 81 13 97 -11z m404 5 c53 -45 22 -126 -48 -126 -44 0 -84 44 -75 82 8
34 41 61 75 61 15 0 37 -8 48 -17z m332 -53 c0 -63 -2 -70 -20 -70 -18 0 -20
7 -20 70 0 63 2 70 20 70 18 0 20 -7 20 -70z m127 53 c3 -9 -7 -12 -34 -10
-52 3 -51 -23 2 -37 33 -10 40 -16 40 -36 0 -32 -40 -52 -80 -42 -46 13 -42
31 6 29 51 -2 64 18 17 28 -18 4 -39 12 -45 17 -19 15 -16 45 5 57 22 14 84 9
89 -6z m161 1 c12 -8 22 -23 22 -34 0 -11 5 -20 10 -20 6 0 10 9 10 19 0 51
94 69 129 25 24 -31 26 -43 10 -78 -24 -53 -110 -52 -134 2 -11 24 -25 29 -25
9 0 -25 -40 -51 -75 -50 -31 1 -35 -2 -35 -23 0 -17 -6 -24 -20 -24 -19 0 -20
7 -20 93 l0 94 53 1 c31 1 61 -5 75 -14z m337 0 c21 -21 21 -124 0 -124 -11 0
-15 12 -15 49 0 95 -62 97 -68 2 -3 -43 -6 -51 -23 -51 -17 0 -19 7 -19 68 l0
68 55 2 c37 1 59 -4 70 -14z m85 -54 c0 -56 -3 -70 -15 -70 -12 0 -15 14 -15
70 0 56 3 70 15 70 12 0 15 -14 15 -70z m399 44 c35 -45 28 -54 -39 -54 -59 0
-60 -1 -49 -21 9 -18 16 -20 56 -14 33 5 43 3 38 -5 -22 -35 -105 -28 -125 10
-42 78 65 152 119 84z m3574 -52 c9 -8 17 -27 17 -41 0 -15 8 -31 20 -39 25
-15 27 -68 3 -94 -22 -25 -78 -24 -96 2 -8 11 -20 18 -28 15 -19 -7 -109 77
-109 101 0 15 4 13 19 -10 23 -34 71 -75 89 -76 6 0 12 8 12 17 0 20 38 63 57
63 7 0 13 11 13 25 0 32 -32 50 -61 34 -16 -8 -28 -8 -46 0 -16 8 -30 8 -43 1
-26 -14 -34 -12 -21 4 17 20 150 19 174 -2z m997 -52 c0 -5 -9 -10 -20 -10
-11 0 -20 -4 -20 -10 0 -5 9 -10 20 -10 11 0 20 -4 20 -10 0 -5 -9 -10 -20
-10 -11 0 -20 -7 -20 -15 0 -8 -7 -15 -15 -15 -11 0 -15 11 -15 38 0 21 3 42
7 45 10 11 63 8 63 -3z m410 -33 l0 -44 -80 -1 c-65 -1 -80 1 -80 14 0 8 10
19 23 24 22 9 22 9 -3 10 l-25 1 24 12 c19 9 26 8 36 -6 11 -16 14 -16 25 -2
9 11 22 14 42 10 23 -5 27 -4 22 9 -3 9 -1 16 5 16 6 0 11 -18 11 -43z m237 3
c11 -26 21 -39 30 -36 7 3 13 1 13 -4 0 -13 -37 -13 -45 0 -3 6 -15 10 -26 10
-10 0 -19 -4 -19 -10 0 -5 -7 -10 -15 -10 -12 0 -11 8 7 45 12 25 26 45 31 45
5 0 16 -18 24 -40z m980 32 c6 -4 11 -23 10 -42 -2 -32 -5 -35 -34 -38 -22 -2
-33 1 -34 10 -2 21 3 62 8 71 5 9 34 9 50 -1z m98 -37 c0 -36 -3 -40 -27 -43
-17 -2 -28 2 -28 8 0 7 7 10 15 6 11 -4 15 2 15 24 0 17 -4 30 -10 30 -5 0
-10 5 -10 11 0 6 10 9 23 7 19 -3 22 -9 22 -43z m37 8 c2 -26 8 -38 18 -38 10
0 16 12 18 38 2 20 8 37 13 37 6 0 9 -19 7 -42 -3 -42 -4 -43 -38 -43 -34 0
-35 1 -38 43 -2 23 1 42 7 42 5 0 11 -17 13 -37z m113 10 l24 -28 1 28 c0 15
5 27 10 27 6 0 10 -20 10 -45 0 -50 -12 -57 -41 -22 l-18 22 -1 -22 c0 -14 -6
-23 -15 -23 -11 0 -15 11 -15 38 0 35 6 52 17 52 2 0 15 -12 28 -27z m-1821 1
c10 -4 16 -18 16 -36 0 -27 -2 -29 -32 -26 -40 4 -45 29 -8 39 24 7 25 7 2 8
-13 1 -20 6 -17 11 7 12 17 12 39 4z m179 -3 c11 -2 8 -61 -3 -61 -5 0 -10 11
-10 25 0 14 -4 25 -10 25 -5 0 -10 -11 -10 -25 0 -16 -6 -25 -15 -25 -9 0 -15
9 -15 25 0 14 -4 25 -10 25 -5 0 -10 -11 -10 -25 0 -16 -6 -25 -15 -25 -9 0
-15 9 -15 25 0 14 -4 25 -10 25 -5 0 -10 -11 -10 -25 0 -14 -4 -25 -10 -25 -5
0 -10 15 -10 33 l0 33 73 -2 c39 -1 75 -2 80 -3z m243 -6 c6 -14 8 -13 19 2
10 14 17 15 36 6 l24 -12 -25 -1 c-25 -1 -25 -1 -2 -10 12 -5 22 -16 22 -25 0
-12 -13 -15 -65 -15 -52 0 -65 3 -65 15 0 9 10 20 23 25 22 9 22 9 -3 10 -20
0 -22 2 -10 10 22 14 40 12 46 -5z m-492 -112 c4 -4 17 -8 29 -8 17 0 23 -7
25 -30 2 -16 9 -33 15 -37 20 -12 37 -9 37 7 0 8 -9 15 -20 15 -15 0 -20 7
-20 25 0 21 5 25 30 25 17 0 30 -4 30 -10 0 -5 -9 -10 -20 -10 -11 0 -20 -4
-20 -10 0 -16 40 -12 46 5 8 20 42 29 59 15 8 -7 15 -25 15 -40 0 -17 5 -27
15 -27 8 0 14 7 13 16 -4 52 28 77 60 48 15 -13 19 -13 30 -1 19 21 40 17 57
-10 13 -19 14 -29 5 -45 -13 -25 -58 -28 -67 -5 -5 14 -7 14 -15 1 -6 -12 -26
-15 -81 -15 -39 0 -78 5 -84 10 -9 7 -13 7 -13 -1 0 -6 -20 -10 -50 -10 -50 2
-50 2 -50 35 0 24 -5 34 -15 34 -17 0 -20 -16 -5 -25 17 -10 11 -39 -10 -53
-12 -7 -20 -8 -20 -2 0 5 -7 10 -15 10 -8 0 -15 5 -15 11 0 6 7 9 15 5 9 -3
15 0 15 9 0 8 -5 15 -10 15 -20 0 -23 31 -4 45 22 17 28 18 38 8z m-6594 -67
c0 -8 12 -17 26 -20 30 -8 27 -31 -5 -30 -31 1 -26 -28 9 -48 17 -9 30 -25 30
-34 0 -21 -28 -54 -47 -54 -7 0 -13 -7 -13 -15 0 -8 -7 -15 -15 -15 -8 0 -15
6 -15 14 0 8 -10 16 -22 18 -13 2 -24 11 -26 22 -3 15 1 18 22 14 35 -7 36 24
1 40 -29 13 -34 54 -9 74 8 7 23 21 32 31 20 21 32 22 32 3z m265 -36 c15 -16
16 -24 7 -45 -7 -15 -8 -27 -2 -30 17 -11 11 -54 -9 -65 -11 -5 -34 -10 -51
-10 -47 0 -70 16 -70 50 0 17 4 30 10 30 6 0 5 10 -2 25 -16 35 12 65 62 65
24 0 43 -7 55 -20z m220 0 c0 -8 -6 -14 -14 -12 -24 5 -58 -7 -65 -23 -4 -12
0 -14 19 -9 34 8 75 -19 75 -51 0 -35 -26 -55 -70 -55 -47 0 -70 27 -70 83 0
54 37 89 88 85 25 -2 37 -8 37 -18z m139 -1 c18 -26 12 -44 -27 -86 l-31 -33
37 0 c26 0 37 -4 37 -15 0 -12 -14 -15 -65 -15 -78 0 -82 10 -25 65 22 21 40
45 40 52 0 20 -28 27 -46 13 -21 -19 -43 3 -24 25 19 23 86 20 104 -6z m96
-64 c0 -78 -2 -85 -20 -85 -18 0 -20 7 -20 64 0 55 -3 64 -20 69 -11 3 -20 12
-20 21 0 12 10 16 40 16 l40 0 0 -85z m210 65 c0 -16 -7 -20 -35 -20 -42 0
-46 -15 -8 -25 38 -9 53 -23 53 -51 0 -43 -24 -54 -111 -52 -68 2 -79 4 -79
19 0 27 19 33 41 13 11 -10 19 -12 19 -5 0 7 15 10 43 9 32 -2 42 1 42 12 0
10 -12 16 -37 18 l-38 3 0 50 0 49 55 0 c48 0 55 -2 55 -20z m149 -6 c23 -30
27 -74 10 -107 -16 -30 -28 -37 -66 -37 -66 0 -96 97 -47 151 26 29 78 25 103
-7z m-740 -108 c8 -9 8 -21 0 -45 -15 -44 -37 -40 -37 7 0 53 13 67 37 38z
m6321 -185 c0 -6 24 -11 53 -13 51 -3 52 -4 55 -35 3 -32 2 -33 -34 -33 -31 0
-36 3 -31 20 3 11 1 20 -4 20 -5 0 -9 -9 -9 -20 0 -13 -7 -20 -20 -20 -16 0
-20 7 -20 30 0 17 -4 30 -10 30 -5 0 -10 -13 -10 -30 0 -20 -5 -30 -15 -30
-10 0 -15 10 -15 29 0 17 -6 31 -16 35 -8 3 -12 10 -9 16 8 13 85 13 85 1z
m515 -11 c4 -6 15 -8 26 -5 35 12 59 -4 57 -36 -2 -28 -3 -29 -60 -29 -51 0
-58 2 -58 20 0 11 -4 20 -10 20 -5 0 -10 -9 -10 -20 0 -18 -6 -20 -62 -19 -97
2 -108 0 -108 -16 0 -8 -7 -15 -15 -15 -8 0 -15 7 -15 15 0 11 -12 15 -50 15
-45 0 -50 2 -51 23 l-2 22 -4 -22 c-7 -38 -33 -28 -33 12 0 32 2 35 29 35 17
0 33 -5 37 -11 4 -8 9 -8 17 0 14 14 124 14 132 1 5 -8 11 -7 21 1 7 6 24 9
36 6 13 -3 39 -2 58 3 49 11 58 11 65 0z m-1554 -71 c17 -17 20 -31 18 -83 -3
-49 1 -69 19 -99 12 -21 22 -40 22 -43 0 -2 -56 -4 -125 -4 -69 0 -125 2 -125
4 0 3 10 22 22 43 18 30 22 50 19 99 -4 79 16 104 84 104 32 0 51 -6 66 -21z
m989 -93 c0 -38 17 -57 31 -35 5 8 9 26 9 42 0 15 5 27 10 27 12 0 13 -60 1
-78 -5 -8 -21 -12 -37 -10 -26 3 -29 7 -32 46 -2 25 1 42 7 42 6 0 11 -15 11
-34z m90 19 c0 -8 6 -12 14 -9 8 3 20 -1 27 -9 12 -13 16 -13 32 1 14 13 22
14 36 5 11 -7 22 -9 25 -5 11 10 46 12 46 2 0 -6 -4 -10 -10 -10 -5 0 -10 -11
-10 -25 0 -25 -29 -37 -31 -12 0 10 -2 10 -6 0 -6 -16 -45 -17 -61 -1 -9 9
-12 9 -12 0 0 -7 -14 -12 -35 -12 -35 0 -35 0 -35 45 0 25 5 45 10 45 6 0 10
-7 10 -15z m1531 -25 c9 -42 1 -53 -37 -48 -24 2 -29 8 -30 33 -3 64 55 77 67
15z m89 -5 c0 -41 -2 -45 -24 -45 -14 0 -28 5 -32 11 -4 8 0 9 15 4 18 -5 21
-2 21 24 0 21 -5 31 -15 31 -8 0 -15 5 -15 10 0 6 11 10 25 10 23 0 25 -4 25
-45z m40 -1 c0 -49 28 -46 32 4 2 20 8 36 13 35 13 -3 18 -29 11 -59 -6 -21
-12 -25 -39 -22 -24 2 -34 9 -41 29 -10 30 -2 64 14 54 5 -3 10 -22 10 -41z
m109 21 c19 -25 20 -25 23 -5 6 37 23 26 26 -17 4 -49 -16 -59 -42 -21 l-16
22 0 -22 c0 -13 -6 -22 -15 -22 -11 0 -15 12 -15 45 0 51 10 56 39 20z m-1830
-129 c9 -11 9 -15 -1 -19 -9 -3 -6 -12 11 -31 27 -29 51 -34 51 -11 0 8 -9 15
-20 15 -15 0 -20 7 -20 24 0 24 3 25 60 25 33 0 60 -5 60 -10 0 -5 -7 -9 -15
-9 -8 0 -15 -4 -15 -10 0 -5 7 -10 16 -10 9 0 18 -9 21 -20 3 -11 9 -18 13
-15 5 3 11 1 14 -4 4 -6 -29 -10 -84 -9 -57 0 -96 -4 -105 -12 -11 -9 -15 -9
-15 -1 0 6 -7 11 -15 11 -8 0 -15 5 -15 11 0 6 7 9 15 5 9 -3 15 0 15 9 0 8
-5 15 -10 15 -20 0 -23 31 -4 45 24 18 29 18 43 1z m241 -11 c11 -13 14 -13
27 0 31 31 67 6 61 -42 -3 -31 -38 -44 -63 -23 -9 7 -15 8 -20 0 -8 -14 -48
-13 -63 2 -17 17 -15 44 4 62 19 20 38 20 54 1z m-120 -389 c14 -2 30 -4 35
-5 6 -2 53 -3 105 -4 l94 -2 1 -30 0 -30 -66 -2 c-60 -2 -67 0 -77 20 l-11 22
0 -22 c-1 -20 -6 -23 -41 -23 -35 0 -40 3 -40 23 -1 19 -2 20 -11 5 -18 -32
-48 -41 -75 -23 -48 31 -20 92 36 79 14 -3 36 -7 50 -8z m-1226 -72 c31 -30 9
-84 -34 -84 -40 0 -66 60 -38 88 17 17 54 15 72 -4z m154 4 c20 -20 15 -66 -9
-78 -49 -27 -96 20 -69 69 12 24 58 29 78 9z m1030 -104 c16 -34 17 -35 22
-13 5 21 12 24 53 25 34 1 51 -3 60 -15 9 -13 19 -15 37 -10 l25 7 -24 1 c-18
1 -22 4 -14 12 19 19 53 1 53 -29 0 -25 1 -26 18 -8 12 13 14 20 5 23 -7 3
-13 9 -13 13 0 11 105 8 116 -2 4 -4 12 -4 18 -1 20 13 48 14 62 2 19 -16 18
-59 -1 -59 -9 0 -15 9 -15 25 0 14 -4 25 -10 25 -5 0 -10 -11 -10 -24 l0 -24
-135 0 -135 -1 0 25 c0 13 -4 24 -10 24 -5 0 -10 -11 -10 -25 0 -14 -4 -25
-10 -25 -5 0 -10 11 -10 25 0 16 -6 25 -15 25 -9 0 -15 -9 -15 -25 0 -18 -5
-25 -19 -25 -11 0 -23 5 -26 10 -9 14 -42 12 -48 -2 -2 -7 -8 -10 -12 -6 -9 9
24 88 37 88 4 0 16 -16 26 -36z m1492 26 c0 -5 -9 -10 -20 -10 -11 0 -20 -4
-20 -10 0 -5 9 -10 19 -10 21 0 31 -17 23 -37 -5 -16 -58 -17 -67 -3 -4 7 2 9
19 4 20 -5 26 -2 26 10 0 9 -8 16 -20 16 -15 0 -20 7 -20 25 0 21 5 25 30 25
17 0 30 -4 30 -10z m88 -32 c-3 -39 -6 -43 -30 -46 -16 -2 -28 2 -28 8 0 6 8
10 18 8 12 -2 18 5 20 25 2 19 -1 27 -12 27 -9 0 -16 5 -16 10 0 6 12 10 26
10 23 0 25 -3 22 -42z m32 15 c0 -16 4 -34 9 -42 14 -22 31 -3 31 35 0 19 5
34 11 34 6 0 9 -17 7 -42 -3 -39 -6 -43 -32 -46 -16 -2 -32 2 -37 10 -12 18
-11 78 1 78 6 0 10 -12 10 -27z m117 0 l22 -28 1 28 c0 15 5 27 10 27 6 0 10
-20 10 -45 0 -25 -3 -45 -7 -45 -4 0 -17 10 -30 22 l-23 21 0 -21 c0 -12 -4
-22 -10 -22 -5 0 -10 20 -10 45 0 25 3 45 7 45 4 0 17 -12 30 -27z m-2912 -63
c24 -27 13 -68 -22 -76 -33 -9 -57 6 -61 38 -6 50 49 76 83 38z m149 4 c19
-18 21 -55 4 -72 -28 -28 -88 -2 -88 38 0 24 26 50 50 50 10 0 26 -7 34 -16z
m1020 -63 c3 -4 17 -6 31 -3 23 4 25 2 25 -34 0 -39 1 -39 40 -41 28 -1 40 3
40 13 0 8 -10 14 -24 14 -19 0 -22 4 -18 25 3 20 10 25 33 25 16 0 29 -4 29
-10 0 -5 -9 -10 -20 -10 -25 0 -26 -16 -1 -23 13 -3 21 1 24 14 7 25 35 35 58
20 15 -8 23 -8 38 0 37 24 69 -8 57 -56 -5 -19 -13 -25 -35 -25 -16 0 -32 6
-35 13 -5 10 -7 10 -12 0 -3 -7 -19 -13 -35 -13 -16 0 -29 6 -30 13 0 10 -2
10 -6 0 -2 -7 -20 -13 -38 -13 -18 0 -36 -6 -39 -12 -5 -10 -7 -10 -12 0 -3 6
-12 12 -20 12 -9 0 -14 11 -14 35 0 28 -4 35 -20 35 -24 0 -25 -8 -4 -31 14
-16 13 -19 -8 -38 -12 -12 -24 -17 -26 -11 -2 5 -10 10 -18 10 -8 0 -14 5 -14
11 0 6 7 9 15 5 9 -3 15 0 15 9 0 8 -5 15 -10 15 -20 0 -23 31 -4 45 22 17 31
18 38 6z m403 -12 c8 -8 16 -7 30 2 39 24 71 -8 59 -56 -5 -19 -13 -25 -35
-25 -16 0 -32 6 -35 13 -5 10 -7 10 -12 0 -8 -19 -61 -16 -68 3 -20 52 25 99
61 63z m-67 -69 c0 -5 -5 -10 -11 -10 -5 0 -7 5 -4 10 3 6 8 10 11 10 2 0 4
-4 4 -10z m-4819 -203 c24 -13 58 -43 74 -66 29 -41 30 -47 30 -146 0 -99 -1
-105 -30 -146 -16 -23 -50 -53 -74 -66 -41 -21 -55 -23 -216 -23 -161 0 -175
2 -216 23 -24 13 -57 43 -74 66 -29 41 -30 47 -30 146 0 99 1 105 30 146 17
23 50 53 74 66 41 21 55 23 216 23 161 0 175 -2 216 -23z m5149 -130 c51 -27
90 -90 90 -147 0 -57 -39 -120 -90 -147 -43 -23 -47 -23 -395 -23 -348 0 -352
0 -395 23 -51 27 -90 90 -90 147 0 57 39 120 90 147 43 23 47 23 395 23 348 0
352 0 395 -23z"/>
<path d="M3240 5775 c0 -17 5 -25 18 -25 37 0 62 13 62 31 0 15 -7 19 -40 19
-36 0 -40 -2 -40 -25z"/>
<path d="M3240 5685 c0 -25 3 -26 43 -23 34 2 42 7 42 23 0 16 -8 21 -42 23
-40 3 -43 2 -43 -23z"/>
<path d="M2654 5679 c-3 -6 -1 -15 7 -19 14 -9 49 5 49 20 0 14 -47 13 -56 -1z"/>
<path d="M3474 5679 c-8 -14 14 -29 33 -22 7 3 13 11 13 19 0 17 -36 19 -46 3z"/>
<path d="M2645 4950 c-4 -6 5 -10 20 -10 15 0 24 4 20 10 -3 6 -12 10 -20 10
-8 0 -17 -4 -20 -10z"/>
<path d="M3060 4900 c0 -5 7 -10 15 -10 8 0 15 5 15 10 0 6 -7 10 -15 10 -8 0
-15 -4 -15 -10z"/>
<path d="M8910 4900 c0 -5 5 -10 10 -10 6 0 10 5 10 10 0 6 -4 10 -10 10 -5 0
-10 -4 -10 -10z"/>
<path d="M9147 4893 c-4 -3 -7 -11 -7 -17 0 -6 5 -5 12 2 6 6 9 14 7 17 -3 3
-9 2 -12 -2z"/>
<path d="M9030 4869 c0 -5 5 -7 10 -4 6 3 10 8 10 11 0 2 -4 4 -10 4 -5 0 -10
-5 -10 -11z"/>
<path d="M7881 4846 c-9 -11 -10 -20 -1 -36 10 -18 13 -19 26 -5 11 11 12 19
4 35 -13 24 -14 24 -29 6z"/>
<path d="M7800 4785 c12 -15 30 -12 30 6 0 5 -10 9 -21 9 -18 0 -19 -2 -9 -15z"/>
<path d="M7973 4665 c0 -22 2 -30 4 -17 2 12 2 30 0 40 -3 9 -5 -1 -4 -23z"/>
<path d="M8900 4755 c0 -10 7 -15 18 -13 21 4 19 22 -2 26 -10 2 -16 -3 -16
-13z"/>
<path d="M8990 4728 c0 -12 1 -19 3 -17 1 2 9 12 16 22 12 14 11 17 -3 17 -10
0 -16 -8 -16 -22z"/>
<path d="M9032 4730 c-11 -17 -10 -20 8 -20 10 0 24 9 30 20 9 17 8 20 -7 20
-10 0 -24 -9 -31 -20z"/>
<path d="M9095 4730 c-15 -17 -16 -20 -3 -20 9 0 18 6 21 14 3 8 16 16 29 19
22 4 21 4 -3 6 -15 0 -34 -8 -44 -19z"/>
<path d="M9140 4719 c0 -5 5 -7 10 -4 6 3 10 8 10 11 0 2 -4 4 -10 4 -5 0 -10
-5 -10 -11z"/>
<path d="M9122 4595 c2 -14 8 -26 13 -26 6 0 11 12 13 26 2 18 -1 25 -13 25
-12 0 -15 -7 -13 -25z"/>
<path d="M9224 4605 c-7 -18 2 -45 15 -45 13 0 22 27 15 45 -4 8 -10 15 -15
15 -5 0 -12 -7 -15 -15z"/>
<path d="M9302 4595 c2 -14 8 -26 13 -26 6 0 11 12 13 26 2 18 -1 25 -13 25
-12 0 -15 -7 -13 -25z"/>
<path d="M8986 4201 c-4 -7 -5 -15 -2 -18 9 -9 19 4 14 18 -4 11 -6 11 -12 0z"/>
<path d="M9136 4201 c-4 -7 -5 -15 -2 -18 9 -9 19 4 14 18 -4 11 -6 11 -12 0z"/>
<path d="M9290 4190 c0 -5 5 -10 10 -10 6 0 10 5 10 10 0 6 -4 10 -10 10 -5 0
-10 -4 -10 -10z"/>
<path d="M7849 4126 c-11 -20 -34 -39 -52 -46 -18 -7 -26 -14 -19 -17 7 -3 12
-25 12 -59 0 -51 1 -54 25 -54 18 0 25 5 25 20 0 16 7 20 35 20 28 0 35 -4 35
-20 0 -15 7 -20 25 -20 24 0 25 3 25 54 0 30 5 56 10 58 6 2 -14 25 -45 51
l-55 48 -21 -35z m61 -36 c11 -11 20 -27 20 -35 0 -19 -36 -55 -55 -55 -19 0
-55 36 -55 55 0 19 36 55 55 55 8 0 24 -9 35 -20z"/>
<path d="M7844 4076 c-8 -22 -1 -49 15 -54 8 -3 11 0 7 7 -4 6 -1 11 6 11 10
0 10 2 -1 9 -8 5 -11 16 -8 25 4 9 2 16 -4 16 -5 0 -12 -6 -15 -14z"/>
<path d="M7884 4081 c4 -6 1 -11 -6 -11 -10 0 -10 -2 1 -9 8 -5 11 -16 7 -26
-4 -11 -2 -15 6 -13 18 6 16 60 -1 66 -8 3 -11 0 -7 -7z"/>
<path d="M9342 4043 c5 -25 28 -28 28 -4 0 12 -6 21 -16 21 -9 0 -14 -7 -12
-17z"/>
<path d="M9428 4053 c7 -3 16 -2 19 1 4 3 -2 6 -13 5 -11 0 -14 -3 -6 -6z"/>
<path d="M10550 4070 c0 -5 7 -10 15 -10 8 0 15 5 15 10 0 6 -7 10 -15 10 -8
0 -15 -4 -15 -10z"/>
<path d="M9240 4030 c0 -5 5 -10 10 -10 6 0 10 5 10 10 0 6 -4 10 -10 10 -5 0
-10 -4 -10 -10z"/>
<path d="M8900 3922 c0 -11 39 -52 50 -52 17 0 21 20 5 26 -9 4 -14 13 -11 20
4 10 -3 14 -19 14 -14 0 -25 -4 -25 -8z"/>
<path d="M9094 3915 c-7 -18 2 -45 15 -45 5 0 11 7 15 15 7 18 -2 45 -15 45
-5 0 -12 -7 -15 -15z"/>
<path d="M9194 3916 c-8 -22 3 -49 19 -43 6 2 12 14 12 27 0 27 -22 39 -31 16z"/>
<path d="M9274 3916 c-8 -22 3 -49 19 -43 6 2 12 14 12 27 0 27 -22 39 -31 16z"/>
<path d="M2686 3494 c-30 -30 -11 -84 29 -84 24 0 45 25 45 54 0 18 -27 46
-45 46 -7 0 -21 -7 -29 -16z"/>
<path d="M3096 3497 c-39 -29 1 -106 42 -81 33 21 24 94 -12 94 -7 0 -20 -6
-30 -13z"/>
<path d="M4068 3499 c-22 -12 -24 -62 -4 -79 43 -35 99 28 61 70 -20 22 -32
24 -57 9z"/>
<path d="M9180 3506 c0 -9 5 -16 10 -16 6 0 10 4 10 9 0 6 -4 13 -10 16 -5 3
-10 -1 -10 -9z"/>
<path d="M2457 3443 c-17 -17 -6 -34 20 -31 36 4 45 38 10 38 -13 0 -27 -3
-30 -7z"/>
<path d="M2866 3497 c-39 -29 1 -106 42 -81 24 16 28 65 6 81 -10 7 -21 13
-24 13 -3 0 -14 -6 -24 -13z"/>
<path d="M3476 3487 c-9 -12 -13 -32 -9 -45 6 -26 47 -39 68 -22 22 18 19 67
-4 80 -29 15 -39 13 -55 -13z"/>
<path d="M3648 3499 c-22 -12 -24 -62 -3 -79 35 -29 83 17 62 60 -14 28 -34
34 -59 19z"/>
<path d="M4294 3493 c-17 -17 -16 -18 20 -21 45 -4 54 2 36 23 -16 20 -35 19
-56 -2z"/>
<path d="M7912 3358 c-27 -27 -3 -88 34 -88 26 0 56 39 48 63 -4 12 -12 25
-18 29 -17 12 -51 9 -64 -4z m56 -10 c17 -17 15 -39 -5 -54 -15 -10 -21 -10
-35 3 -21 19 -22 29 -5 48 15 18 29 19 45 3z"/>
<path d="M7936 3332 c-10 -16 9 -30 21 -17 10 10 9 14 -2 19 -8 3 -16 2 -19
-2z"/>
<path d="M9290 3355 c0 -18 14 -27 34 -19 25 9 19 29 -9 32 -16 1 -25 -3 -25
-13z"/>
<path d="M9225 3340 c-3 -5 -1 -10 4 -10 6 0 11 5 11 10 0 6 -2 10 -4 10 -3 0
-8 -4 -11 -10z"/>
<path d="M9560 3360 c0 -5 5 -10 10 -10 6 0 10 5 10 10 0 6 -4 10 -10 10 -5 0
-10 -4 -10 -10z"/>
<path d="M10540 3380 c0 -5 4 -10 9 -10 6 0 13 5 16 10 3 6 -1 10 -9 10 -9 0
-16 -4 -16 -10z"/>
<path d="M10546 3353 c-11 -11 -6 -23 9 -23 8 0 15 4 15 9 0 13 -16 22 -24 14z"/>
<path d="M8980 3339 c0 -5 5 -7 10 -4 6 3 10 8 10 11 0 2 -4 4 -10 4 -5 0 -10
-5 -10 -11z"/>
<path d="M9395 3340 c-3 -5 -1 -10 4 -10 6 0 11 5 11 10 0 6 -2 10 -4 10 -3 0
-8 -4 -11 -10z"/>
<path d="M9445 3340 c3 -5 14 -10 23 -10 15 0 15 2 2 10 -20 13 -33 13 -25 0z"/>
<path d="M9090 3209 c0 -38 24 -35 28 4 2 19 -1 27 -12 27 -11 0 -16 -10 -16
-31z"/>
<path d="M9192 3215 c2 -14 8 -26 13 -26 6 0 11 12 13 26 2 18 -1 25 -13 25
-12 0 -15 -7 -13 -25z"/>
<path d="M9272 3215 c2 -14 8 -26 13 -26 6 0 11 12 13 26 2 18 -1 25 -13 25
-12 0 -15 -7 -13 -25z"/>
<path d="M2340 3054 c0 -8 5 -12 10 -9 6 4 8 11 5 16 -9 14 -15 11 -15 -7z"/>
<path d="M2532 3133 c2 -10 10 -18 18 -18 8 0 16 8 18 18 2 12 -3 17 -18 17
-15 0 -20 -5 -18 -17z"/>
<path d="M2525 3070 c-4 -7 -3 -16 3 -22 14 -14 47 -6 47 12 0 18 -40 26 -50
10z"/>
<path d="M2750 3060 c0 -16 5 -21 23 -18 12 2 22 10 22 18 0 8 -10 16 -22 18
-18 3 -23 -2 -23 -18z"/>
<path d="M3351 3136 c-7 -8 -11 -32 -9 -53 2 -30 7 -38 23 -38 27 0 42 46 27
80 -13 28 -24 31 -41 11z"/>
<path d="M9295 2821 c-3 -5 -1 -12 5 -16 5 -3 10 1 10 9 0 18 -6 21 -15 7z"/>
<path d="M9376 2821 c-4 -7 -5 -15 -2 -18 9 -9 19 4 14 18 -4 11 -6 11 -12 0z"/>
<path d="M7878 2783 c12 -2 30 -2 40 0 9 3 -1 5 -23 4 -22 0 -30 -2 -17 -4z"/>
<path d="M7949 2763 c16 -32 14 -42 -14 -55 -18 -8 -25 -19 -24 -37 0 -23 1
-24 8 -6 5 11 18 29 30 39 25 23 26 36 5 62 -15 18 -15 18 -5 -3z"/>
<path d="M7856 2754 c-19 -19 -12 -34 15 -34 14 0 19 7 19 25 0 29 -12 32 -34
9z"/>
<path d="M7900 2745 c0 -18 5 -25 19 -25 27 0 34 15 15 34 -22 23 -34 20 -34
-9z"/>
<path d="M7821 2739 c-1 -9 9 -24 20 -35 12 -10 25 -28 30 -39 7 -18 8 -17 8
7 1 18 -5 29 -20 33 -11 4 -24 16 -29 28 -6 15 -9 17 -9 6z"/>
<path d="M7820 2687 c0 -10 8 -17 18 -17 14 0 15 -2 2 -10 -13 -8 -12 -10 3
-10 23 0 22 13 -3 35 -18 16 -20 16 -20 2z"/>
<path d="M7947 2682 c-22 -24 -21 -32 1 -32 14 0 15 2 2 10 -13 8 -12 10 3 10
9 0 17 7 17 15 0 19 -3 19 -23 -3z"/>
<path d="M7823 2618 c-6 -7 -16 -23 -22 -35 -9 -18 -9 -23 1 -23 8 0 19 14 26
32 13 35 11 46 -5 26z"/>
<path d="M7954 2614 c5 -10 11 -27 13 -36 3 -10 12 -18 19 -18 12 0 12 5 -1
29 -18 35 -43 55 -31 25z"/>
<path d="M7868 2593 c18 -2 45 -2 60 0 15 2 0 4 -33 4 -33 0 -45 -2 -27 -4z"/>
<path d="M9045 2670 c-7 -12 2 -30 16 -30 5 0 9 9 9 20 0 21 -15 27 -25 10z"/>
<path d="M9128 2673 c7 -3 16 -2 19 1 4 3 -2 6 -13 5 -11 0 -14 -3 -6 -6z"/>
<path d="M10525 2690 c3 -5 10 -10 16 -10 5 0 9 5 9 10 0 6 -7 10 -16 10 -8 0
-12 -4 -9 -10z"/>
<path d="M10527 2663 c-12 -11 -8 -23 8 -23 8 0 15 7 15 15 0 16 -12 20 -23 8z"/>
<path d="M9020 2540 c0 -5 9 -10 20 -10 11 0 20 5 20 10 0 6 -9 10 -20 10 -11
0 -20 -4 -20 -10z"/>
<path d="M9072 2504 c9 -9 21 -13 27 -9 16 10 3 25 -22 25 -20 0 -20 -1 -5
-16z"/>
<path d="M9180 2519 c0 -38 24 -35 28 4 2 19 -1 27 -12 27 -11 0 -16 -10 -16
-31z"/>
<path d="M9260 2519 c0 -38 24 -35 28 4 2 19 -1 27 -12 27 -11 0 -16 -10 -16
-31z"/>
<path d="M9022 2133 c2 -10 10 -18 18 -18 8 0 16 8 18 18 2 12 -3 17 -18 17
-15 0 -20 -5 -18 -17z"/>
<path d="M9136 2131 c-4 -7 -5 -15 -2 -18 9 -9 19 4 14 18 -4 11 -6 11 -12 0z"/>
<path d="M9231 2124 c0 -11 3 -14 6 -6 3 7 2 16 -1 19 -3 4 -6 -2 -5 -13z"/>
<path d="M7970 2060 c0 -13 7 -20 20 -20 13 0 20 7 20 20 0 13 -7 20 -20 20
-13 0 -20 -7 -20 -20z"/>
<path d="M9026 1985 c-3 -8 -1 -15 4 -15 6 0 10 7 10 15 0 8 -2 15 -4 15 -2 0
-6 -7 -10 -15z"/>
<path d="M9315 1970 c-18 -19 -17 -20 1 -20 13 0 20 7 20 20 0 11 -1 20 -2 20
0 0 -9 -9 -19 -20z"/>
<path d="M9360 1969 c0 -24 23 -21 28 4 2 10 -3 17 -12 17 -10 0 -16 -9 -16
-21z"/>
<path d="M9230 1959 c0 -5 5 -7 10 -4 6 3 10 8 10 11 0 2 -4 4 -10 4 -5 0 -10
-5 -10 -11z"/>
<path d="M7820 1910 c0 -13 7 -20 20 -20 13 0 20 7 20 20 0 13 -7 20 -20 20
-13 0 -20 -7 -20 -20z"/>
<path d="M9224 1846 c-8 -22 3 -49 19 -43 6 2 12 14 12 27 0 27 -22 39 -31 16z"/>
<path d="M9304 1846 c-8 -22 3 -49 19 -43 6 2 12 14 12 27 0 27 -22 39 -31 16z"/>
<path d="M9404 1846 c-8 -22 3 -49 19 -43 6 2 12 14 12 27 0 27 -22 39 -31 16z"/>
<path d="M9484 1846 c-8 -22 3 -49 19 -43 6 2 12 14 12 27 0 27 -22 39 -31 16z"/>
</g>
</svg>
